<?xml version="1.0" encoding="iso-8859-1"?>
<!-- Generator: Adobe Illustrator 19.0.0, SVG Export Plug-In . SVG Version: 6.00 Build 0)  -->
<svg version="1.1" id="Capa_1" xmlns="http://www.w3.org/2000/svg" xmlns:xlink="http://www.w3.org/1999/xlink" x="0px" y="0px"
	 viewBox="0 0 512 512" style="enable-background:new 0 0 512 512;" xml:space="preserve">
<polygon style="fill:#C6C5CA;" points="52.457,36.639 36.763,36.689 36.714,52.382 63.782,79.451 79.526,63.708 "/>
<g>
	<polygon style="fill:#FFFFFF;" points="449.473,465.14 435.081,498.753 387.017,450.69 401.409,417.078 	"/>
	<polygon style="fill:#FFFFFF;" points="465.215,449.398 498.828,435.006 450.764,386.942 417.152,401.334 	"/>
</g>
<g>
	<polygon style="fill:#D8D7DA;" points="478.335,443.78 435.889,401.334 456.381,392.559 450.764,386.942 417.152,401.334 
		465.215,449.398 	"/>
	<polygon style="fill:#D8D7DA;" points="405.753,450.69 414.528,430.197 401.409,417.077 387.017,450.69 435.081,498.752 
		440.698,485.633 	"/>
</g>
<polygon style="fill:#C6C5CA;" points="7.576,81.52 36.714,52.382 36.714,52.382 36.763,36.689 52.457,36.64 52.457,36.64 
	81.596,7.501 7.576,7.501 "/>
<polygon style="fill:#898890;" points="26.482,7.501 7.576,7.501 7.576,81.521 26.482,62.615 "/>
<g>
	<path style="fill:#C6C5CA;" d="M359.266,98.505L293.39,32.629C261.798,1.037,211.524-0.766,177.799,27.22L159.654,9.075h-27.1
		l-9.659,9.659l54.642,54.642l17.536-17.536c20.741-20.741,54.368-20.741,75.109,0l65.876,65.876L359.266,98.505z"/>
	<path style="fill:#C6C5CA;" d="M502.926,352.348l-18.145-18.145c27.986-33.725,26.183-83.998-5.409-115.591l-65.879-65.879
		l-23.208,23.208l65.88,65.88c20.74,20.74,20.741,54.367,0,75.108l-17.537,17.537l54.642,54.642l9.659-9.659L502.926,352.348
		L502.926,352.348z"/>
</g>
<g>
	<polygon style="fill:#898890;" points="146.642,18.732 156.3,9.075 132.554,9.075 122.895,18.732 177.537,73.374 189.41,61.501 	
		"/>
	<path style="fill:#898890;" d="M462.374,334.464l17.537-17.537c20.741-20.74,20.74-54.367,0-75.108l-65.88-65.88l11.335-11.335
		l-11.873-11.873l-23.208,23.208l65.88,65.88c20.74,20.74,20.741,54.367,0,75.108l-17.537,17.537l54.642,54.642l9.659-9.659v-4.43
		L462.374,334.464z"/>
	<path style="fill:#898890;" d="M293.928,55.838C280.517,42.427,261.72,37.7,244.501,41.633c9.411,2.15,18.351,6.876,25.681,14.205
		l65.876,65.876l11.873-11.873L293.928,55.838z"/>
</g>
<polygon style="fill:#FF9811;" points="320.632,245.592 431.487,134.737 377.26,80.51 266.405,191.366 261.938,213.139 
	206.403,268.674 184.63,273.142 10.242,474.139 37.858,501.755 238.856,327.368 243.323,305.595 298.858,250.059 "/>
<polygon style="fill:#FF5023;" points="40.414,474.139 214.801,273.142 236.575,268.674 292.111,213.139 296.577,191.366 
	392.347,95.596 377.26,80.51 266.405,191.366 261.938,213.139 206.403,268.674 184.63,273.142 10.242,474.139 37.858,501.755 
	54.014,487.738 "/>
<rect x="173.072" y="292.242" transform="matrix(-0.7071 -0.7071 0.7071 -0.7071 95.709 684.4276)" style="fill:#C6C5CA;" width="33.065" height="60.3"/>
<g>
	
		<rect x="37.298" y="143.406" transform="matrix(-0.7071 -0.7071 0.7071 -0.7071 154.6841 373.149)" style="fill:#FFB655;" width="234.652" height="22.264"/>
	
		<rect x="370.455" y="230.057" transform="matrix(-0.7071 0.7071 -0.7071 -0.7071 921.1808 381.4598)" style="fill:#FFB655;" width="22.264" height="302.911"/>
</g>
<g>
	<polygon style="fill:#FF7956;" points="80.114,79.451 87.692,71.873 79.526,63.708 63.782,79.451 229.704,245.373 237.87,237.207 	
		"/>
	<polygon style="fill:#FF7956;" points="282.955,282.293 290.533,274.715 282.368,266.55 266.624,282.293 480.819,496.488 
		488.984,488.322 	"/>
</g>
<g>
	<path style="fill:#1D1D1F;" d="M36.714,62.987L36.714,62.987l173.548,173.549l10.604-10.605L74.388,79.451l5.138-5.139l0,0
		l146.48,146.481l10.604-10.605L63.062,36.64l0,0l0,0L99.699,0.002H0.077v99.622L36.714,62.987L36.714,62.987z M68.922,63.708
		l-5.138,5.139L44.222,49.286l0.016-5.122l5.122-0.016L68.922,63.708L68.922,63.708z M15.075,15h48.417l-14.15,14.151l-20.054,0.063
		l-0.063,20.054l-14.15,14.149V15z"/>
	<path style="fill:#1D1D1F;" d="M452.478,378.051l-33.612,14.393L301.81,275.387l-10.605,10.605l194.752,194.75l0,0l0,0l0,0
		l-5.139,5.139l0,0l0,0l0,0L286.066,291.13l-10.605,10.605L392.517,418.79l-14.391,33.612l59.486,59.487l14.393-33.612
		l28.814,28.814l26.349-26.349l-28.815-28.815l33.612-14.391L452.478,378.051z M403.941,430.216l12.606,12.606l-8.033,18.76
		l-12.606-12.606L403.941,430.216z M432.548,485.615l-12.61-12.61l8.033-18.76l12.61,12.61L432.548,485.615z M449.051,395.833
		l12.608,12.609l-18.761,8.033l-12.608-12.608L449.051,395.833z M454.321,427.898l18.761-8.033l12.607,12.608l-18.76,8.033
		L454.321,427.898z"/>
	
		<rect x="114.13" y="382.899" transform="matrix(-0.7071 -0.7071 0.7071 -0.7071 -68.4193 752.4548)" style="fill:#1D1D1F;" width="14.998" height="14.998"/>
	
		<rect x="96.45" y="400.571" transform="matrix(-0.7071 -0.7071 0.7071 -0.7071 -111.0978 770.1214)" style="fill:#1D1D1F;" width="14.998" height="14.998"/>
	
		<rect x="78.747" y="418.235" transform="matrix(0.7071 0.7071 -0.7071 0.7071 326.2999 63.7097)" style="fill:#1D1D1F;" width="14.998" height="14.998"/>
	<path style="fill:#1D1D1F;" d="M112.291,18.733L493.269,399.71l0,0l0,0l17.156-17.156v-33.312l-15.689-15.689
		c12.019-16.872,18.085-37.311,17.174-58.271c-1.019-23.419-10.691-45.428-27.236-61.973l-51.739-51.739l-10.605,10.605
		l51.74,51.739c28.343,28.343,30.513,74.683,4.94,105.5l-4.364,5.259l20.782,20.781v20.889l-2.159,2.159l-44.038-44.038
		l12.235-12.234c23.63-23.631,23.63-62.082,0-85.714l-51.74-51.74l-10.605,10.605l51.74,51.739
		c17.783,17.784,17.783,46.721,0,64.503l-12.234,12.235L188.142,73.374l12.234-12.233c8.615-8.615,20.069-13.359,32.252-13.359
		s23.637,4.744,32.251,13.359l51.735,51.736l10.605-10.605l-51.735-51.736c-11.448-11.447-26.668-17.751-42.857-17.751
		s-31.409,6.304-42.856,17.751L177.537,62.77l-44.036-44.036l2.16-2.16h20.888l20.781,20.782l5.259-4.364
		c30.815-25.572,77.157-23.402,105.499,4.941l51.736,51.735l10.605-10.605l-51.736-51.736C282.147,10.783,260.139,1.11,236.72,0.091
		c-20.959-0.896-41.4,5.153-58.271,17.173L162.76,1.576h-33.313L112.291,18.733L112.291,18.733L112.291,18.733z"/>
	<path style="fill:#1D1D1F;" d="M289.805,211.59l-78.884,78.884l-11.692-11.692l-14.937,14.936l-1.901-1.901l-10.604,10.605
		l1.901,1.901l-27.706,27.705l33.988,33.987l27.706-27.705l1.901,1.901l10.604-10.605l-1.9-1.9l14.937-14.936l-11.689-11.689
		l78.884-78.884L289.805,211.59z M179.969,344.807l-12.778-12.777l17.1-17.1l12.778,12.778L179.969,344.807z M194.896,304.323
		l4.331-4.331l12.778,12.777l-4.331,4.331L194.896,304.323z"/>
</g>
<g>
	
		<rect x="352.578" y="161.713" transform="matrix(0.7071 0.7071 -0.7071 0.7071 232.5138 -201.9869)" style="fill:#FFFFFF;" width="14.998" height="35.924"/>
	
		<rect x="395.319" y="129.424" transform="matrix(-0.7071 -0.7071 0.7071 -0.7071 590.8336 518.5776)" style="fill:#FFFFFF;" width="14.998" height="14.998"/>
	
		<rect x="377.649" y="147.111" transform="matrix(0.7071 0.7071 -0.7071 0.7071 222.1331 -227.0567)" style="fill:#FFFFFF;" width="14.998" height="14.998"/>
</g>
<g>
	<polygon style="fill:#1D1D1F;" points="442.092,134.736 377.26,69.905 289.805,157.361 300.41,167.968 377.26,91.114 
		393.771,107.624 316.919,184.475 327.524,195.082 404.376,118.23 420.882,134.736 344.031,211.587 354.636,222.193 	"/>
	<polygon style="fill:#1D1D1F;" points="322.139,252.938 319.124,238.247 295.147,243.165 236.429,301.883 232.021,323.37 
		38.221,491.512 20.485,473.777 188.627,279.977 210.114,275.568 268.832,216.85 273.751,192.874 259.061,189.858 255.045,209.427 
		202.691,261.781 180.631,266.307 0,474.502 37.495,511.998 245.691,331.365 250.216,309.306 302.57,256.953 	"/>
	<polygon style="fill:#1D1D1F;" points="395.512,44.611 414.266,25.857 486.144,97.734 467.39,116.488 450.965,120.351 
		454.399,134.951 474.977,130.111 507.354,97.734 414.266,4.648 381.889,37.026 377.05,57.602 391.649,61.035 	"/>
</g>
<g>
</g>
<g>
</g>
<g>
</g>
<g>
</g>
<g>
</g>
<g>
</g>
<g>
</g>
<g>
</g>
<g>
</g>
<g>
</g>
<g>
</g>
<g>
</g>
<g>
</g>
<g>
</g>
<g>
</g>
</svg>
