<?xml version="1.0" encoding="iso-8859-1"?>
<!-- Generator: Adobe Illustrator 19.0.0, SVG Export Plug-In . SVG Version: 6.00 Build 0)  -->
<svg version="1.1" id="Capa_1" xmlns="http://www.w3.org/2000/svg" xmlns:xlink="http://www.w3.org/1999/xlink" x="0px" y="0px"
	 viewBox="0 0 512 512" style="enable-background:new 0 0 512 512;" xml:space="preserve">
<rect x="7.5" y="234.639" style="fill:#FFB655;" width="497" height="204.43"/>
<polygon style="fill:#FF7956;" points="305.989,336.855 249.616,336.855 233.886,321.125 233.886,234.643 321.719,234.643 
	321.719,321.125 "/>
<rect x="7.5" y="72.932" style="fill:#FFB655;" width="497" height="161.71"/>
<g>
	<rect x="58.34" y="72.932" style="fill:#FF7956;" width="34.948" height="317.51"/>
	<rect x="163.25" y="72.932" style="fill:#FF7956;" width="34.948" height="317.51"/>
	<rect x="382.27" y="72.932" style="fill:#FF7956;" width="34.948" height="317.51"/>
</g>
<polygon style="fill:#FFE477;" points="453.663,72.932 453.663,183.806 382.468,183.806 382.468,72.932 347.573,72.932 
	347.573,183.806 163.128,183.806 163.128,72.932 128.233,72.932 128.233,183.806 58.337,183.806 58.337,72.932 7.5,72.932 
	7.5,234.643 504.5,234.643 504.5,72.932 "/>
<polygon style="fill:#C6C5CA;" points="283.489,336.855 227.116,336.855 211.386,321.125 211.386,234.643 299.219,234.643 
	299.219,321.125 "/>
<polygon style="fill:#898890;" points="238.805,234.643 211.386,234.643 211.386,321.125 227.116,336.855 254.535,336.855 
	238.805,321.125 "/>
<path style="fill:#FFE477;" d="M299.219,234.643v50.837h48.354v102.75H163.128V285.48h48.258v-50.837H7.5v204.425h497V234.643
	H299.219z M128.233,388.23H58.337V285.48h69.896V388.23z M453.663,388.23h-71.195V285.48h71.195V388.23z"/>
<g>
	<rect x="7.5" y="72.932" style="fill:#FFB655;" width="22.5" height="161.71"/>
	<rect x="347.57" y="72.932" style="fill:#FFB655;" width="22.5" height="110.87"/>
	<rect x="453.66" y="72.932" style="fill:#FFB655;" width="22.5" height="110.87"/>
	<rect x="128.23" y="72.932" style="fill:#FFB655;" width="22.5" height="110.87"/>
	<rect x="128.23" y="285.48" style="fill:#FFB655;" width="22.5" height="102.75"/>
	<rect x="453.66" y="285.48" style="fill:#FFB655;" width="22.5" height="102.75"/>
	<rect x="347.57" y="285.48" style="fill:#FFB655;" width="22.5" height="102.75"/>
	<rect x="299.22" y="234.639" style="fill:#FFB655;" width="22.5" height="50.837"/>
	<rect x="7.5" y="234.639" style="fill:#FFB655;" width="22.5" height="204.43"/>
</g>
<g>
	<rect x="103.36" y="253.259" style="fill:#1D1D1F;" width="15" height="15"/>
	<rect x="78.38" y="253.259" style="fill:#1D1D1F;" width="14.977" height="15"/>
	<rect x="128.36" y="253.259" style="fill:#1D1D1F;" width="15" height="15"/>
	<rect x="153.36" y="253.259" style="fill:#1D1D1F;" width="15" height="15"/>
	<rect x="342.24" y="253.259" style="fill:#1D1D1F;" width="15" height="15"/>
	<rect x="392.24" y="253.259" style="fill:#1D1D1F;" width="15" height="15"/>
	<rect x="417.24" y="253.259" style="fill:#1D1D1F;" width="14.977" height="15"/>
	<rect x="367.24" y="253.259" style="fill:#1D1D1F;" width="15" height="15"/>
	<rect x="128.36" y="203.199" style="fill:#1D1D1F;" width="15" height="15"/>
	<rect x="103.36" y="203.199" style="fill:#1D1D1F;" width="15" height="15"/>
	<rect x="78.38" y="203.199" style="fill:#1D1D1F;" width="14.977" height="15"/>
	<rect x="153.36" y="203.199" style="fill:#1D1D1F;" width="15" height="15"/>
	<rect x="293.09" y="98.85" style="fill:#1D1D1F;" width="15" height="15"/>
	<rect x="268.09" y="98.85" style="fill:#1D1D1F;" width="15" height="15"/>
	<rect x="318.09" y="98.85" style="fill:#1D1D1F;" width="15" height="15"/>
	<rect x="318.09" y="350.76" style="fill:#1D1D1F;" width="15" height="15"/>
	<rect x="293.09" y="350.76" style="fill:#1D1D1F;" width="15" height="15"/>
	<rect x="268.09" y="350.76" style="fill:#1D1D1F;" width="15" height="15"/>
	<rect x="285.99" y="203.199" style="fill:#1D1D1F;" width="15" height="15"/>
	<rect x="260.99" y="203.199" style="fill:#1D1D1F;" width="15" height="15"/>
	<rect x="211.01" y="203.199" style="fill:#1D1D1F;" width="14.977" height="15"/>
	<rect x="235.99" y="203.199" style="fill:#1D1D1F;" width="15" height="15"/>
	<rect x="367.24" y="203.199" style="fill:#1D1D1F;" width="15" height="15"/>
	<rect x="417.24" y="203.199" style="fill:#1D1D1F;" width="14.977" height="15"/>
	<rect x="392.24" y="203.199" style="fill:#1D1D1F;" width="15" height="15"/>
	<rect x="342.24" y="203.199" style="fill:#1D1D1F;" width="15" height="15"/>
</g>
<g>
	<rect x="471.51" y="140.06" style="fill:#FFFFFF;" width="15" height="75.29"/>
	<rect x="471.51" y="90.06" style="fill:#FFFFFF;" width="15" height="15"/>
	<rect x="471.51" y="115.06" style="fill:#FFFFFF;" width="15" height="15"/>
	<rect x="471.51" y="279.07" style="fill:#FFFFFF;" width="15" height="15"/>
	<rect x="471.51" y="254.07" style="fill:#FFFFFF;" width="15" height="15"/>
	<rect x="471.51" y="304.07" style="fill:#FFFFFF;" width="15" height="113.34"/>
</g>
<g>
	<path style="fill:#1D1D1F;" d="M0,65.433v381.135h512V65.433H0z M446.163,80.433v60.789h-32.29v15h32.29v20.084h-56.195v-62.457
		h43.8v-15h-43.8V80.433H446.163z M340.073,80.433v60.789h-69.45v15h69.45v20.084H170.628v-20.084h29.389v-15h-29.389v-27.373H256
		v-15h-85.372V80.433H340.073z M120.733,80.433v60.789H83.535v15h37.199v20.084H65.837v-62.457h27.448v-15H65.837V80.433H120.733z
		 M497,242.143v189.425H39.19V383.9h-15v47.667H15V242.143h176.386v-15H39.19v-47.667h-15v47.667H15V80.433h35.837v110.873h84.896
		V80.433h19.895v110.873h199.444V80.433h19.895v110.873h86.195V80.433H497v146.71H319.219v15H497z"/>
	<rect x="247.8" y="260.76" style="fill:#1D1D1F;" width="15" height="45.569"/>
	<path style="fill:#1D1D1F;" d="M374.968,395.73h86.195V277.98h-86.195V395.73z M446.163,292.98v57.777h-42.758v15h42.758v14.973
		h-56.195v-56.515h22.41v-15h-22.41V292.98H446.163z"/>
	<path style="fill:#1D1D1F;" d="M135.733,277.98H50.837v117.75h84.896V277.98z M65.837,380.73v-56.515h27.448v-15H65.837V292.98
		h54.896v57.777H86.858v15h33.875v14.973H65.837z"/>
	<polygon style="fill:#1D1D1F;" points="319.219,292.98 340.073,292.98 340.073,309.216 322.149,309.216 322.149,324.216 
		340.073,324.216 340.073,380.73 170.628,380.73 170.628,365.758 255.302,365.758 255.302,350.758 170.628,350.758 170.628,292.98 
		191.386,292.98 191.386,277.98 155.628,277.98 155.628,395.73 355.073,395.73 355.073,277.98 319.219,277.98 	"/>
	<rect x="113.1" y="407.25" style="fill:#1D1D1F;" width="128.28" height="15"/>
	<path style="fill:#1D1D1F;" d="M183.234,324.216h20.652v0.016l20.124,20.124h62.585l20.124-20.124v-97.089H203.886v82.073h-20.652
		L183.234,324.216L183.234,324.216z M218.886,242.143h72.833v75.876l-11.336,11.337h-50.16l-11.336-11.337L218.886,242.143
		L218.886,242.143z"/>
</g>
<g>
</g>
<g>
</g>
<g>
</g>
<g>
</g>
<g>
</g>
<g>
</g>
<g>
</g>
<g>
</g>
<g>
</g>
<g>
</g>
<g>
</g>
<g>
</g>
<g>
</g>
<g>
</g>
<g>
</g>
</svg>
