<?xml version="1.0" encoding="iso-8859-1"?>
<!-- Generator: Adobe Illustrator 19.0.0, SVG Export Plug-In . SVG Version: 6.00 Build 0)  -->
<svg version="1.1" id="Capa_1" xmlns="http://www.w3.org/2000/svg" xmlns:xlink="http://www.w3.org/1999/xlink" x="0px" y="0px"
	 viewBox="0 0 512 512" style="enable-background:new 0 0 512 512;" xml:space="preserve">
<polygon style="fill:#C6C5CA;" points="429.879,451.27 358.254,379.645 379.458,358.442 451.083,430.066 480.613,439.115 
	504.117,490.349 504.117,504.305 490.161,504.305 438.928,480.8 "/>
<polygon style="fill:#FF7956;" points="184.061,409.96 102.228,328.127 199.546,275.157 485.225,8.071 501.964,10.223 
	504.117,26.963 237.03,312.642 "/>
<polygon style="fill:#FF3F62;" points="143.404,328.127 240.723,275.157 489.706,42.378 504.117,26.963 501.964,10.223 
	485.225,8.071 199.546,275.157 102.228,328.127 184.061,409.96 198.574,383.296 "/>
<polygon style="fill:#C6C5CA;" points="82.121,451.27 153.746,379.645 132.542,358.442 60.918,430.066 31.387,439.115 
	7.883,490.349 7.883,504.305 21.839,504.305 73.071,480.8 "/>
<g>
	<polygon style="fill:#898890;" points="29.366,490.349 52.87,439.115 82.401,430.066 143.283,369.183 132.542,358.442 
		60.918,430.066 31.387,439.115 7.883,490.349 7.883,504.305 21.839,504.305 29.366,500.852 	"/>
	<polygon style="fill:#898890;" points="460.412,480.8 451.362,451.27 379.737,379.645 390.2,369.183 379.458,358.442 
		358.254,379.645 429.879,451.27 438.928,480.8 490.161,504.305 504.117,504.305 504.117,500.852 	"/>
</g>
<g>
	<polygon style="fill:#57A4FF;" points="256,222.377 26.776,8.071 10.036,10.223 7.883,26.963 221.092,255.013 	"/>
	<polygon style="fill:#57A4FF;" points="290.908,255.013 256,292.351 274.971,312.642 327.94,409.96 409.773,328.127 
		312.454,275.157 	"/>
</g>
<g>
	<polygon style="fill:#006DF0;" points="36.37,26.963 37.509,18.106 26.776,8.071 10.036,10.223 7.883,26.963 221.092,255.013 
		236.293,240.801 	"/>
	<polygon style="fill:#006DF0;" points="303.458,312.642 284.488,292.351 306.109,269.225 290.908,255.013 256,292.351 
		274.971,312.642 327.94,409.96 346.386,391.514 	"/>
</g>
<polygon style="fill:#FFFFFF;" points="187.306,7.696 187.306,100.379 236.46,100.379 256.187,120.107 275.916,100.379 
	325.069,100.379 325.069,7.696 "/>
<rect x="187.303" y="7.696" style="fill:#D8D7DA;" width="25.16" height="92.687"/>
<g>
	<path style="fill:#1D1D1F;" d="M455.062,423.455l-65.006-65.006l32.105-32.105l-105.285-57.306l-6.251-5.844l-10.236,10.948
		l7.034,6.577h-17.117v14.988h44.215l42.02,22.871l-87.237,4.728l-8.208-15.08l-5.942-6.355l-10.948,10.236l4.639,4.962
		l57.306,105.286l32.105-32.105l65.006,65.006l9.488,30.959l55.776,25.589h23.087v-23.087l-25.589-55.776L455.062,423.455z
		 M394.704,332.604L394.704,332.604L394.704,332.604l-29.153,29.153l-55.323-0.007l-12.988-23.863L394.704,332.604z M329.729,397.58
		l-11.343-20.841l32.179,0.004l0,0l0,0L329.729,397.58z M496.623,496.817h-4.825l-46.69-21.421l-8.611-28.1l-67.645-67.644
		l10.606-10.606l61.026,61.026l-6.548,6.548l10.598,10.599l8.661-8.66l13.305,4.078l-18.087,18.087l10.598,10.599l19.282-19.282
		l18.33,39.953v4.824H496.623z"/>
	<path style="fill:#1D1D1F;" d="M508.66,3.535l-25.977-3.34L195.125,269.038L89.839,326.344l32.105,32.105l-65.006,65.006
		l-30.96,9.488L0.39,488.718v23.087h23.087l55.776-25.589l9.488-30.959l65.007-65.007l32.105,32.105l57.306-105.285L512,29.512
		L508.66,3.535z M247.919,240.199l27.308-25.531h43.148l-23.869,25.531H247.919z M280.493,255.187l-23.87,25.532h-52.044
		l27.309-25.532H280.493z M291.258,199.68l27.299-25.523h37.692l-23.862,25.523H291.258z M334.589,159.169l27.309-25.532
		l32.24-0.005l-23.875,25.538L334.589,159.169L334.589,159.169z M408.153,118.641l-30.22,0.005l27.305-25.529h26.777
		L408.153,118.641z M421.269,78.13l27.307-25.531h21.319L446.027,78.13H421.269z M117.296,332.604l97.465,5.283l-12.988,23.863
		l-55.324,0.007L117.296,332.604z M75.504,447.297l-8.611,28.1l-46.69,21.421h-4.825v-4.824l18.33-39.953l19.282,19.282
		l10.598-10.599l-18.087-18.087l13.305-4.078l8.661,8.66l10.598-10.599l-6.548-6.548l61.026-61.026l10.606,10.606L75.504,447.297z
		 M182.272,397.58l-20.837-20.837l32.18-0.004L182.272,397.58z M230.904,308.227l-8.208,15.079l-87.237-4.728l42.021-22.871h65.131
		l-11.054,11.824L230.904,308.227z M483.909,37.61h-19.301l23.158-21.651l7.503,0.965l0.965,7.503L483.909,37.61z"/>
	<path style="fill:#1D1D1F;" d="M256.187,130.712l22.832-22.832h53.544V0.208H179.811V107.88h53.544L256.187,130.712z M194.8,15.196
		h122.775v77.696h-44.764l-16.624,16.624l-16.624-16.624H194.8L194.8,15.196L194.8,15.196z"/>
	<polygon style="fill:#1D1D1F;" points="286.028,37.462 273.323,29.511 256.183,56.895 239.044,29.511 226.34,37.462 
		256.183,85.146 	"/>
	<path style="fill:#1D1D1F;" d="M212.918,235.305l-19.293-20.636h46.086v-4.19l6.776-7.247L29.318,0.195L3.341,3.535L0,29.513
		l201.97,216.028L212.918,235.305z M155.75,174.157h37.692l27.299,25.523h-41.13L155.75,174.157z M90.732,78.13h-24.76
		L42.103,52.599h21.32L90.732,78.13z M106.763,93.118l27.306,25.529l-30.221-0.005L79.985,93.118H106.763z M150.103,133.637
		l27.309,25.532h-35.674l-23.875-25.538L150.103,133.637z M16.731,16.925l7.503-0.965L47.392,37.61H28.09L15.766,24.429
		L16.731,16.925z"/>
</g>
<g>
</g>
<g>
</g>
<g>
</g>
<g>
</g>
<g>
</g>
<g>
</g>
<g>
</g>
<g>
</g>
<g>
</g>
<g>
</g>
<g>
</g>
<g>
</g>
<g>
</g>
<g>
</g>
<g>
</g>
</svg>
