<?xml version="1.0" encoding="iso-8859-1"?>
<!-- Generator: Adobe Illustrator 19.0.0, SVG Export Plug-In . SVG Version: 6.00 Build 0)  -->
<svg version="1.1" id="Capa_1" xmlns="http://www.w3.org/2000/svg" xmlns:xlink="http://www.w3.org/1999/xlink" x="0px" y="0px"
	 viewBox="0 0 512 512" style="enable-background:new 0 0 512 512;" xml:space="preserve">
<polygon style="fill:#C6C5CA;" points="408.936,436.699 256.005,503.825 103.064,436.699 75.051,176.528 114.624,7.515 
	397.375,7.515 436.95,176.528 "/>
<g>
	<rect x="136.462" y="176.53" style="fill:#898890;" width="106.554" height="36.474"/>
	<rect x="310.432" y="176.53" style="fill:#898890;" width="106.554" height="36.474"/>
	<polygon style="fill:#898890;" points="162.554,436.699 134.54,176.528 174.114,7.515 114.624,7.515 75.051,176.528 
		103.064,436.699 256.006,503.825 285.75,490.77 	"/>
	<rect x="115.743" y="176.53" style="fill:#898890;" width="106.554" height="36.474"/>
	<rect x="289.714" y="176.53" style="fill:#898890;" width="106.554" height="36.474"/>
</g>
<g>
	<rect x="289.714" y="176.53" style="fill:#57565C;" width="33.71" height="36.474"/>
	<rect x="115.743" y="176.53" style="fill:#57565C;" width="33.71" height="36.474"/>
</g>
<g>
	<rect x="161.461" y="29.498" style="fill:#1D1D1F;" width="14.999" height="14.999"/>
	<rect x="186.459" y="29.498" style="fill:#1D1D1F;" width="14.999" height="14.999"/>
	<rect x="136.462" y="29.498" style="fill:#1D1D1F;" width="14.999" height="14.999"/>
	<rect x="211.458" y="29.498" style="fill:#1D1D1F;" width="14.341" height="14.999"/>
	<rect x="310.552" y="29.498" style="fill:#1D1D1F;" width="14.999" height="14.999"/>
	<rect x="335.551" y="29.498" style="fill:#1D1D1F;" width="14.999" height="14.999"/>
	<rect x="360.55" y="29.498" style="fill:#1D1D1F;" width="14.999" height="14.999"/>
	<rect x="286.214" y="29.498" style="fill:#1D1D1F;" width="14.342" height="14.999"/>
	<rect x="108.004" y="140.162" style="fill:#1D1D1F;" width="14.999" height="14.999"/>
	<rect x="183" y="140.162" style="fill:#1D1D1F;" width="14.341" height="14.999"/>
	<rect x="158.001" y="140.162" style="fill:#1D1D1F;" width="14.999" height="14.999"/>
	<rect x="133.002" y="140.162" style="fill:#1D1D1F;" width="14.999" height="14.999"/>
	<rect x="338.991" y="140.162" style="fill:#1D1D1F;" width="14.999" height="14.999"/>
	<rect x="388.988" y="140.162" style="fill:#1D1D1F;" width="14.999" height="14.999"/>
	<rect x="314.652" y="140.162" style="fill:#1D1D1F;" width="14.341" height="14.999"/>
	<rect x="363.989" y="140.162" style="fill:#1D1D1F;" width="14.999" height="14.999"/>
	<rect x="289.494" y="427.976" style="fill:#1D1D1F;" width="14.999" height="14.999"/>
	<rect x="289.494" y="377.979" style="fill:#1D1D1F;" width="14.999" height="14.999"/>
	<rect x="289.494" y="277.984" style="fill:#1D1D1F;" width="14.999" height="14.999"/>
	<rect x="289.494" y="302.983" style="fill:#1D1D1F;" width="14.999" height="14.999"/>
	<rect x="289.494" y="402.977" style="fill:#1D1D1F;" width="14.999" height="14.999"/>
	<rect x="289.494" y="327.981" style="fill:#1D1D1F;" width="14.999" height="14.999"/>
	<rect x="289.494" y="252.986" style="fill:#1D1D1F;" width="14.999" height="14.999"/>
	<rect x="289.494" y="352.98" style="fill:#1D1D1F;" width="14.999" height="14.999"/>
	<rect x="331.491" y="403.647" style="fill:#1D1D1F;" width="14.999" height="14.999"/>
	<rect x="331.491" y="378.649" style="fill:#1D1D1F;" width="14.999" height="14.999"/>
	<rect x="331.491" y="303.653" style="fill:#1D1D1F;" width="14.999" height="14.999"/>
	<rect x="331.491" y="278.654" style="fill:#1D1D1F;" width="14.999" height="14.999"/>
	<rect x="331.491" y="328.651" style="fill:#1D1D1F;" width="14.999" height="14.999"/>
	<rect x="331.491" y="353.65" style="fill:#1D1D1F;" width="14.999" height="14.999"/>
	<rect x="373.489" y="328.981" style="fill:#1D1D1F;" width="14.999" height="14.999"/>
	<rect x="373.489" y="378.979" style="fill:#1D1D1F;" width="14.999" height="14.999"/>
	<rect x="373.489" y="353.98" style="fill:#1D1D1F;" width="14.999" height="14.999"/>
	<rect x="373.489" y="303.983" style="fill:#1D1D1F;" width="14.999" height="14.999"/>
	<rect x="207.498" y="327.981" style="fill:#1D1D1F;" width="14.999" height="14.999"/>
	<rect x="207.498" y="352.98" style="fill:#1D1D1F;" width="14.999" height="14.999"/>
	<rect x="207.498" y="302.983" style="fill:#1D1D1F;" width="14.999" height="14.999"/>
	<rect x="207.498" y="402.977" style="fill:#1D1D1F;" width="14.999" height="14.999"/>
	<rect x="207.498" y="427.976" style="fill:#1D1D1F;" width="14.999" height="14.999"/>
	<rect x="207.498" y="377.979" style="fill:#1D1D1F;" width="14.999" height="14.999"/>
	<rect x="207.498" y="252.986" style="fill:#1D1D1F;" width="14.999" height="14.999"/>
	<rect x="207.498" y="277.984" style="fill:#1D1D1F;" width="14.999" height="14.999"/>
	<rect x="165.501" y="378.649" style="fill:#1D1D1F;" width="14.999" height="14.999"/>
	<rect x="165.501" y="303.653" style="fill:#1D1D1F;" width="14.999" height="14.999"/>
	<rect x="165.501" y="353.65" style="fill:#1D1D1F;" width="14.999" height="14.999"/>
	<rect x="165.501" y="403.647" style="fill:#1D1D1F;" width="14.999" height="14.999"/>
	<rect x="165.501" y="278.654" style="fill:#1D1D1F;" width="14.999" height="14.999"/>
	<rect x="165.501" y="328.651" style="fill:#1D1D1F;" width="14.999" height="14.999"/>
	<rect x="123.513" y="353.98" style="fill:#1D1D1F;" width="14.999" height="14.999"/>
	<rect x="123.513" y="328.981" style="fill:#1D1D1F;" width="14.999" height="14.999"/>
	<rect x="123.513" y="378.979" style="fill:#1D1D1F;" width="14.999" height="14.999"/>
	<rect x="123.513" y="303.983" style="fill:#1D1D1F;" width="14.999" height="14.999"/>
</g>
<g>
	<rect x="330.491" y="236.377" style="fill:#FFFFFF;" width="14.999" height="14.999"/>
	<rect x="380.488" y="236.377" style="fill:#FFFFFF;" width="33.498" height="14.999"/>
	<rect x="355.49" y="236.377" style="fill:#FFFFFF;" width="14.999" height="14.999"/>
</g>
<g>
	<path style="fill:#1D1D1F;" d="M403.323,0H108.678L67.457,176.047l28.615,265.76L256.005,512l159.922-70.193l28.615-265.76
		L403.323,0z M120.57,14.999h127.936v41.998h14.999V14.999h127.926l9.872,42.165H381.66v14.999h23.155l4.214,17.999h-49.708v14.999
		h53.22l14.951,63.852H297.215v-58.337l-41.22-36.551l-41.2,36.553v58.336H84.509l18.114-77.364h33.835V76.652h-30.323
		L120.57,14.999z M297.215,184.013h91.552v21.476h-91.552V184.013z M123.245,184.013h91.551v21.476h-91.551V184.013z
		 M401.944,431.564l-138.438,60.766v-69.513h-14.999v69.513l-138.45-60.766L91.609,260.235h29.899v-14.999H89.993L83.4,184.013
		h24.845v36.475h121.549V117.422l26.203-23.247l26.22,23.248v103.064h121.55v-36.475h24.833L401.944,431.564z"/>
	<rect x="248.496" y="277.984" style="fill:#1D1D1F;" width="14.999" height="125.663"/>
</g>
<g>
	<rect x="248.496" y="171.52" style="fill:#FFFFFF;" width="14.999" height="84.135"/>
	<rect x="248.496" y="121.523" style="fill:#FFFFFF;" width="14.999" height="14.999"/>
	<rect x="248.496" y="146.522" style="fill:#FFFFFF;" width="14.999" height="14.999"/>
</g>
<g>
</g>
<g>
</g>
<g>
</g>
<g>
</g>
<g>
</g>
<g>
</g>
<g>
</g>
<g>
</g>
<g>
</g>
<g>
</g>
<g>
</g>
<g>
</g>
<g>
</g>
<g>
</g>
<g>
</g>
</svg>
