<?xml version="1.0" encoding="iso-8859-1"?>
<!-- Generator: Adobe Illustrator 19.0.0, SVG Export Plug-In . SVG Version: 6.00 Build 0)  -->
<svg version="1.1" id="Capa_1" xmlns="http://www.w3.org/2000/svg" xmlns:xlink="http://www.w3.org/1999/xlink" x="0px" y="0px"
	 viewBox="0 0 512 512" style="enable-background:new 0 0 512 512;" xml:space="preserve">
<rect x="77" y="36.564" style="fill:#FFB655;" width="27.04" height="44.763"/>
<rect x="77" y="36.564" style="fill:#FF7956;" width="13.522" height="44.763"/>
<rect x="407.96" y="36.564" style="fill:#FFB655;" width="27.04" height="44.763"/>
<rect x="407.96" y="36.564" style="fill:#FF7956;" width="13.522" height="44.763"/>
<path style="fill:#C6C5CA;" d="M104.043,43.732v30.427h21.361V43.732H104.043z M386.596,43.732v30.427h21.361V43.732H386.596z"/>
<polygon style="fill:#57A4FF;" points="125.404,43.732 125.404,410.225 256,366.796 386.596,410.225 386.596,43.732 "/>
<g>
	<polygon style="fill:#006DF0;" points="352.061,182.196 288.085,195.232 301.121,131.256 246.879,131.256 259.915,195.231 
		195.939,182.196 195.939,236.438 259.915,223.402 246.879,287.378 301.121,287.378 288.084,223.401 352.061,236.438 	"/>
	<polygon style="fill:#006DF0;" points="169.546,43.732 125.404,43.732 125.404,410.225 169.546,395.546 	"/>
	<polygon style="fill:#006DF0;" points="300.142,366.796 278.071,374.136 386.596,410.225 386.596,395.546 	"/>
</g>
<polygon style="fill:#FFB655;" points="125.404,367.687 125.404,410.225 256,366.796 386.596,410.225 386.596,367.687 256,324.258 
	"/>
<polygon style="fill:#FF7956;" points="175.404,367.687 281,332.571 256,324.258 125.404,367.687 125.404,410.225 175.404,393.598 
	"/>
<polygon style="fill:#FFFFFF;" points="334.061,182.196 270.085,195.232 283.121,131.256 228.879,131.256 241.915,195.231 
	177.939,182.196 177.939,236.438 241.915,223.402 228.879,287.378 283.121,287.378 270.084,223.401 334.061,236.438 "/>
<g>
	<polygon style="fill:#D8D7DA;" points="259.915,195.231 246.879,131.256 228.879,131.256 241.135,191.405 	"/>
	<polygon style="fill:#D8D7DA;" points="195.939,185.863 177.939,182.196 177.939,236.438 195.939,232.771 	"/>
	<polygon style="fill:#D8D7DA;" points="241.136,227.229 228.879,287.378 246.879,287.378 259.915,223.402 	"/>
</g>
<g>
	<rect x="233" y="7.5" style="fill:#C6C5CA;" width="46" height="36.23"/>
	<polygon style="fill:#C6C5CA;" points="256,366.796 233,374.445 233,504.5 279,504.5 279,374.445 	"/>
</g>
<g>
	<rect x="233" y="7.5" style="fill:#898890;" width="22.996" height="36.23"/>
	<polygon style="fill:#898890;" points="244.498,366.796 233,374.445 233,504.5 255.996,504.5 255.996,374.445 	"/>
</g>
<g>
	<rect x="248.5" y="432.21" style="fill:#1D1D1F;" width="15" height="15"/>
	<rect x="248.5" y="457.21" style="fill:#1D1D1F;" width="15" height="15"/>
	<rect x="248.5" y="407.21" style="fill:#1D1D1F;" width="15" height="15"/>
	<path style="fill:#1D1D1F;" d="M69.5,88.827h42.043V29.063H69.5V88.827z M84.5,44.063h12.043v29.764H84.5V44.063z"/>
	<path style="fill:#1D1D1F;" d="M400.457,29.063v59.764H442.5V29.063H400.457z M427.5,73.827h-12.043V44.063H427.5V73.827z"/>
	<path style="fill:#1D1D1F;" d="M117.904,420.624L117.904,420.624L117.904,420.624L117.904,420.624L117.904,420.624L256,374.7
		l138.096,45.924V36.231H117.904V420.624z M379.096,399.827L256,358.892l-123.096,40.935v-26.73L256,332.162l123.096,40.935V399.827
		z M379.096,51.231v35.645h-52.269v15h52.269v255.412L256,316.354l-123.096,40.935V101.876h123.093v-15H132.904V51.231H379.096z"/>
	<path style="fill:#1D1D1F;" d="M292.304,123.756h-72.607l12.605,61.862l-61.863-12.605v72.608l61.864-12.605l-12.606,61.862h72.607
		l-12.606-61.863l61.863,12.606v-72.608l-61.862,12.606L292.304,123.756z M326.561,191.378v35.878l-66.09-13.468l13.468,66.09
		h-35.877l13.467-66.089l-66.089,13.467v-35.878l66.088,13.467l-13.466-66.089h35.877l-13.467,66.09L326.561,191.378z"/>
</g>
<g>
	<rect x="306" y="59.42" style="fill:#FFFFFF;" width="63.01" height="15"/>
	<rect x="281" y="59.42" style="fill:#FFFFFF;" width="15" height="15"/>
	<rect x="256" y="59.42" style="fill:#FFFFFF;" width="15" height="15"/>
	
		<rect x="268.904" y="344.13" transform="matrix(-0.9489 -0.3156 0.3156 -0.9489 427.7075 772.5223)" style="fill:#FFFFFF;" width="15" height="15"/>
	
		<rect x="315.405" y="365.765" transform="matrix(-0.9489 -0.3156 0.3156 -0.9489 547.5986 835.2072)" style="fill:#FFFFFF;" width="52.04" height="15"/>
	
		<rect x="292.631" y="352.023" transform="matrix(-0.9489 -0.3156 0.3156 -0.9489 471.4595 795.3932)" style="fill:#FFFFFF;" width="15" height="15"/>
</g>
<g>
	<polygon style="fill:#1D1D1F;" points="240.5,15 271.5,15 271.5,27.731 286.5,27.731 286.5,0 225.5,0 225.5,27.731 240.5,27.731 	
		"/>
	<polygon style="fill:#1D1D1F;" points="271.5,497 240.5,497 240.5,394.444 225.5,394.444 225.5,512 286.5,512 286.5,394.444 
		271.5,394.444 	"/>
</g>
<g>
</g>
<g>
</g>
<g>
</g>
<g>
</g>
<g>
</g>
<g>
</g>
<g>
</g>
<g>
</g>
<g>
</g>
<g>
</g>
<g>
</g>
<g>
</g>
<g>
</g>
<g>
</g>
<g>
</g>
</svg>
