<?xml version="1.0" encoding="iso-8859-1"?>
<!-- Generator: Adobe Illustrator 19.0.0, SVG Export Plug-In . SVG Version: 6.00 Build 0)  -->
<svg version="1.1" id="Capa_1" xmlns="http://www.w3.org/2000/svg" xmlns:xlink="http://www.w3.org/1999/xlink" x="0px" y="0px"
	 viewBox="0 0 512 512" style="enable-background:new 0 0 512 512;" xml:space="preserve">
<path style="fill:#FFB655;" d="M309.914,300.22l-38.991-51.09H260.38c-1.192,9.789-9.516,17.376-19.626,17.376
	s-18.434-7.587-19.626-17.376H68.435v102.47h15.913c5.719-11.802,17.812-19.942,31.807-19.942s26.088,8.139,31.807,19.942h165.69
	c5.719-11.802,17.812-19.942,31.807-19.942s26.088,8.139,31.807,19.942h9.315V300.22L309.914,300.22L309.914,300.22z"/>
<g>
	<rect x="247.036" y="257.593" style="fill:#FF7956;" width="20.385" height="94.009"/>
	<path style="fill:#FF7956;" d="M101.468,249.131H68.435v102.47h15.913c3.577-7.382,9.649-13.331,17.119-16.752V249.131z"/>
	<path style="fill:#FF7956;" d="M273.787,266.506c3.169,0,6.163-0.747,8.816-2.073l-11.68-15.304H260.38
		c-0.377,3.098-1.473,5.973-3.109,8.459C260.805,262.959,266.876,266.506,273.787,266.506z"/>
	<path style="fill:#FF7956;" d="M149.188,331.658c-5.97,0-11.586,1.492-16.516,4.105c6.629,3.515,12.01,9.068,15.291,15.836h33.033
		C175.277,339.798,163.183,331.658,149.188,331.658z"/>
	<path style="fill:#FF7956;" d="M378.492,331.658c-5.97,0-11.586,1.492-16.516,4.105c6.629,3.515,12.01,9.068,15.291,15.836h9.315
		v-18.998C383.982,331.993,381.277,331.658,378.492,331.658z"/>
</g>
<g>
	<rect x="48.05" y="249.135" style="fill:#C6C5CA;" width="20.385" height="102.467"/>
	<rect x="230.559" y="266.511" style="fill:#C6C5CA;" width="20.386" height="85.091"/>
	<rect x="386.585" y="300.363" style="fill:#C6C5CA;" width="20.385" height="51.239"/>
</g>
<g>
	<circle style="fill:#FF9811;" cx="116.155" cy="366.989" r="35.322"/>
	<circle style="fill:#FF9811;" cx="345.464" cy="366.989" r="35.322"/>
</g>
<g>
	<path style="fill:#FF5023;" d="M110.564,366.984c0-14.197,8.379-26.431,20.458-32.045c-4.52-2.101-9.554-3.28-14.867-3.28
		c-19.51,0-35.325,15.815-35.325,35.325s15.816,35.325,35.325,35.325c5.313,0,10.347-1.18,14.867-3.28
		C118.943,393.415,110.564,381.181,110.564,366.984z"/>
	<path style="fill:#FF5023;" d="M339.867,366.984c0-14.197,8.379-26.431,20.458-32.045c-4.52-2.101-9.554-3.28-14.867-3.28
		c-19.51,0-35.325,15.815-35.325,35.325s15.816,35.325,35.325,35.325c5.313,0,10.347-1.18,14.867-3.28
		C348.246,393.415,339.867,381.181,339.867,366.984z"/>
</g>
<circle style="fill:#898890;" cx="240.757" cy="246.715" r="19.788"/>
<path style="fill:#57565C;" d="M240.753,246.719c0-7.319,3.985-13.696,9.894-17.118c-2.912-1.688-6.286-2.668-9.894-2.668
	c-10.929,0-19.788,8.859-19.788,19.788c0,10.929,8.859,19.788,19.788,19.788c3.608,0,6.98-0.982,9.894-2.668
	C244.738,260.414,240.753,254.039,240.753,246.719z"/>
<rect x="462.333" y="112.268" transform="matrix(-0.9656 0.26 -0.26 -0.9656 978.3907 175.9806)" style="fill:#898890;" width="30.447" height="80.861"/>
<polygon style="fill:#57565C;" points="468.406,117.607 482.832,113.722 481.746,109.689 452.345,117.607 473.373,195.686 
	488.347,191.653 "/>
<path style="fill:#898890;" d="M454.163,124.354L31.72,220.543c-17.479,4.707-27.834,22.693-23.126,40.172l9.172,34.06
	c3.816,14.17,16.358,23.655,30.282,24.232v-69.876H221.12c-0.096-0.791-0.154-1.594-0.154-2.411
	c0-10.928,8.859-19.788,19.788-19.788s19.788,8.859,19.788,19.788c0,0.817-0.054,1.622-0.152,2.411h10.534l1.458,1.91
	l199.175-62.101L454.163,124.354z"/>
<g>
	<polygon style="fill:#57565C;" points="270.923,249.131 272.38,251.04 278.505,249.131 	"/>
	<path style="fill:#57565C;" d="M96.068,220.543l361.813-82.383l-3.718-13.805L31.72,220.543
		c-17.479,4.707-27.834,22.693-23.126,40.172l9.172,34.06c3.816,14.17,16.358,23.655,30.282,24.232v-69.876h23.904
		C73.196,235.894,82.476,224.203,96.068,220.543z"/>
</g>
<g>
	<rect x="108.696" y="360.33" style="fill:#1D1D1F;" width="14.997" height="14.997"/>
	<rect x="338.386" y="360.33" style="fill:#1D1D1F;" width="14.997" height="14.997"/>
	<path style="fill:#1D1D1F;" d="M258.482,304.343H273.7v-14.997h-15.218v-21.034c5.865-5.009,9.594-12.448,9.594-20.747
		c0-15.046-12.24-27.286-27.286-27.286c-15.046,0-27.286,12.24-27.286,27.286c0,8.299,3.729,15.739,9.594,20.747v4.205h-56.043
		v14.997h56.043V306.4h-26.715v14.997h26.715v23.552h-53.779v14.997h123.048v-14.997H258.48v-40.605H258.482z M240.79,235.276
		c6.776,0,12.289,5.513,12.289,12.289c0,6.775-5.513,12.288-12.289,12.288s-12.289-5.513-12.289-12.288
		C228.502,240.788,234.015,235.276,240.79,235.276z M238.096,344.948v-70.098h5.39v70.098H238.096z"/>
	<path style="fill:#1D1D1F;" d="M512,193.906l-24.927-92.561l-43.881,11.817l1.74,6.459l-144.98,33.012l-1.455-5.402l-14.481,3.899
		l1.302,4.834l-112.143,25.534l-2.401-8.918l-14.481,3.899l2.249,8.351l-60.373,13.747l-2.656-9.865l-14.481,3.899l2.503,9.298
		l-37.438,8.524l-2.113-7.844l-14.481,3.899l1.96,7.277l-1.37,0.312l-0.285,0.07C8.363,219.923-4.385,242.066,1.39,263.511
		l9.172,34.059c2.116,7.857,6.489,14.802,12.646,20.081l9.762-11.384c-3.857-3.308-6.599-7.663-7.926-12.596l-9.172-34.059
		c-3.613-13.416,4.324-27.268,17.704-30.947l1.789-0.407l5.223,19.396v112.292h33.521c-0.478,2.557-0.74,5.191-0.74,7.885
		c0,23.614,19.211,42.825,42.824,42.825c23.614,0,42.824-19.211,42.824-42.825c0-23.613-19.211-42.824-42.824-42.824
		c-18.449,0-34.209,11.726-40.221,28.117v-65.608h33.099v-14.997H75.971v-15.044h125.112v-14.997h-11.486l-12.519-46.488
		l112.143-25.534l16.977,63.043l-15.694,4.894l4.464,14.317l15.133-4.718l1.302,4.833l14.481-3.899l-1.455-5.402l141.951-44.26
		l1.74,6.459L512,193.906z M116.192,340.003c15.345,0,27.827,12.483,27.827,27.827c0,15.345-12.483,27.828-27.827,27.828
		s-27.827-12.483-27.827-27.828C88.365,352.487,100.848,340.003,116.192,340.003z M60.974,344.948h-5.39v-87.474h5.39V344.948z
		 M54.725,242.478l-4.727-17.553l37.438-8.524l7.022,26.077L54.725,242.478L54.725,242.478z M174.065,242.478H109.99l-7.92-29.41
		l60.373-13.747L174.065,242.478z M476.493,119.725l17.126,63.598l-14.919,4.019l-17.127-63.598l0,0L476.493,119.725z
		 M320.527,229.032l-16.672-61.908l144.98-33.011l0,0l13.643,50.659L320.527,229.032z"/>
</g>
<g>
	
		<rect x="349.533" y="132.253" transform="matrix(0.222 0.975 -0.975 0.222 444.7332 -214.8968)" style="fill:#FFFFFF;" width="14.995" height="77.976"/>
	
		<rect x="428.987" y="145.649" transform="matrix(0.222 0.975 -0.975 0.222 488.9054 -306.4445)" style="fill:#FFFFFF;" width="14.995" height="14.996"/>
	
		<rect x="404.616" y="151.206" transform="matrix(0.222 0.975 -0.975 0.222 475.3635 -278.3582)" style="fill:#FFFFFF;" width="14.995" height="14.996"/>
</g>
<g>
	
		<rect x="114.707" y="215.187" transform="matrix(0.975 -0.222 0.222 0.975 -46.3884 32.688)" style="fill:#1D1D1F;" width="14.996" height="14.995"/>
	
		<rect x="139.075" y="209.61" transform="matrix(-0.222 -0.975 0.975 -0.222 -32.5771 408.2226)" style="fill:#1D1D1F;" width="14.995" height="14.996"/>
	<rect x="130.751" y="306.402" style="fill:#1D1D1F;" width="14.997" height="14.997"/>
	<rect x="105.757" y="306.402" style="fill:#1D1D1F;" width="14.997" height="14.997"/>
	<rect x="155.746" y="306.402" style="fill:#1D1D1F;" width="14.997" height="14.997"/>
</g>
<rect x="191.486" y="189.454" transform="matrix(-0.975 0.222 -0.222 -0.975 512.6973 336.2716)" style="fill:#FFFFFF;" width="91.926" height="14.995"/>
<path style="fill:#1D1D1F;" d="M414.502,293.714l-100.841-0.146l-29.117-38.151l-11.921,9.098l33.618,44.05h72.879v32.792
	c-7.848-9.947-19.999-16.35-33.624-16.35H284.53v14.997h28.455c-6.422,7.491-10.314,17.21-10.314,27.827
	c0,23.614,19.211,42.825,42.824,42.825c23.614,0,42.824-19.211,42.824-42.825c0-2.694-0.262-5.328-0.74-7.885h26.922v-66.231
	H414.502L414.502,293.714z M345.496,395.657c-15.344,0-27.827-12.483-27.827-27.828c0-15.344,12.483-27.827,27.827-27.827
	c15.345,0,27.827,12.483,27.827,27.827C373.323,383.174,360.841,395.657,345.496,395.657z M394.116,308.71h5.39v36.238h-5.39V308.71
	z"/>
<g>
</g>
<g>
</g>
<g>
</g>
<g>
</g>
<g>
</g>
<g>
</g>
<g>
</g>
<g>
</g>
<g>
</g>
<g>
</g>
<g>
</g>
<g>
</g>
<g>
</g>
<g>
</g>
<g>
</g>
</svg>
