<?xml version="1.0" encoding="iso-8859-1"?>
<!-- Generator: Adobe Illustrator 19.0.0, SVG Export Plug-In . SVG Version: 6.00 Build 0)  -->
<svg version="1.1" id="Capa_1" xmlns="http://www.w3.org/2000/svg" xmlns:xlink="http://www.w3.org/1999/xlink" x="0px" y="0px"
	 viewBox="0 0 512 512" style="enable-background:new 0 0 512 512;" xml:space="preserve">
<polygon style="fill:#FF7956;" points="178.822,504.5 281.779,504.5 301.614,116 158.988,116 "/>
<polygon style="fill:#FF3F62;" points="158.988,116 178.822,504.5 216.735,504.5 196.902,116 "/>
<g>
	<polygon style="fill:#FFFFFF;" points="309.336,11.843 283.821,23.856 259.956,13.494 259.956,53.728 283.821,64.089 
		309.336,52.077 	"/>
	<polygon style="fill:#FFFFFF;" points="259.956,11.843 234.441,23.856 210.577,13.494 210.577,53.728 234.441,64.089 
		259.956,52.077 	"/>
	<polygon style="fill:#FFFFFF;" points="209.423,42.324 183.908,54.336 160.044,43.975 160.044,84.208 183.908,94.57 
		209.423,82.557 	"/>
</g>
<g>
	<polygon style="fill:#D8D7DA;" points="277.724,53.728 277.724,21.208 259.956,13.494 259.956,53.728 283.821,64.089 
		292.346,60.076 	"/>
	<polygon style="fill:#D8D7DA;" points="228.343,53.728 228.343,21.208 210.577,13.494 210.577,53.728 234.441,64.089 
		242.965,60.076 	"/>
	<polygon style="fill:#D8D7DA;" points="177.811,84.208 177.811,51.689 160.044,43.975 160.044,84.208 183.908,94.57 
		192.432,90.557 	"/>
</g>
<path style="fill:#FF5023;" d="M126.577,149.5h34.121l1.787,35h-35.908c-17.093,0-31,13.906-31,31v204c0,17.094,13.907,31,31,31
	h49.487l1.787,35h-51.274c-36.393,0-66-29.607-66-66v-204C60.577,179.107,90.184,149.5,126.577,149.5z"/>
<path style="fill:#C70024;" d="M79.552,419.5v-204c0-36.393,29.607-66,66-66h-18.975c-36.393,0-66,29.607-66,66v204
	c0,36.393,29.607,66,66,66h18.975C109.16,485.5,79.552,455.893,79.552,419.5z"/>
<g>
	<path style="fill:#FFB655;" d="M449.487,196.209v-64.993c0-42.394-32.521-77.334-73.926-81.185V25.683L357.378,7.5h-12.96v73.323
		h23.532c27.832,0,50.394,22.562,50.394,50.394v64.993L449.487,196.209L449.487,196.209z"/>
	<path style="fill:#FFB655;" d="M375.56,486.317v-24.349c41.404-3.85,73.926-38.791,73.926-81.185v-64.998h-31.143v64.998
		c0,27.831-22.562,50.393-50.393,50.393h-23.533V504.5h12.96L375.56,486.317z"/>
</g>
<g>
	<path style="fill:#FF7956;" d="M433.711,380.784v-64.999h-15.367v64.999c0,27.831-22.562,50.393-50.393,50.393h15.367
		C411.148,431.177,433.711,408.615,433.711,380.784z"/>
	<path style="fill:#FF7956;" d="M418.344,131.217v64.993h15.367v-64.993c0-27.832-22.562-50.394-50.394-50.394h-15.367
		C395.781,80.823,418.344,103.385,418.344,131.217z"/>
	<polygon style="fill:#FF7956;" points="359.784,431.177 344.417,431.177 344.417,504.5 357.378,504.5 359.784,502.093 	"/>
	<polygon style="fill:#FF7956;" points="359.784,9.907 357.378,7.5 344.417,7.5 344.417,80.823 359.784,80.823 	"/>
</g>
<rect x="416.409" y="196.21" style="fill:#FFDAAA;" width="35.01" height="119.58"/>
<rect x="416.409" y="196.21" style="fill:#FF728B;" width="17.507" height="119.58"/>
<g>
	<rect x="198.32" y="128.87" style="fill:#1D1D1F;" width="15" height="15"/>
	<rect x="173.32" y="128.87" style="fill:#1D1D1F;" width="15" height="15"/>
	<rect x="148.189" y="460.5" style="fill:#1D1D1F;" width="15" height="15"/>
	<rect x="123.189" y="460.5" style="fill:#1D1D1F;" width="15" height="15"/>
	<rect x="133.27" y="159.5" style="fill:#1D1D1F;" width="15" height="15"/>
	<path style="fill:#1D1D1F;" d="M171.695,512h117.212l20.599-403.5h-158.41L171.695,512z M274.653,497H237.8v-44.948h-15V497
		h-36.852L166.88,123.5h55.92v30.198h15V123.5h55.92L274.653,497z"/>
	<path style="fill:#1D1D1F;" d="M267.458,8.574V0.023l-9.449,4.448l-5.551-2.41v5.023l-18.141,8.54L203.077,2.062v34.961
		l-19.294,9.083l-31.239-13.563v56.585l23.864,10.361V104h15v-4.672l25.516-12.012V64.659l10.018,4.349V104h15V68.847l8.411-3.96
		V104h15V64.246l10.969,4.762V104h15V68.847l25.515-12.012V0.023l-33.14,15.602L267.458,8.574z M167.544,79.288v-23.88l8.864,3.848
		v23.88L167.544,79.288z M201.923,77.799l-10.516,4.95V59.095l10.516-4.95V77.799z M218.077,48.808V24.927l8.864,3.849v23.881
		L218.077,48.808z M241.941,28.614l10.516-4.95v23.653l-10.516,4.951V28.614z M267.458,48.808V24.927l8.864,3.849v23.881
		L267.458,48.808z M301.836,47.317l-10.515,4.951V28.614l10.515-4.95V47.317z"/>
	<rect x="222.799" y="213.7" style="fill:#1D1D1F;" width="15" height="59.18"/>
	<rect x="222.799" y="332.87" style="fill:#1D1D1F;" width="15" height="59.18"/>
	<polygon style="fill:#1D1D1F;" points="247.227,156.165 230.3,173.091 213.374,156.165 202.768,166.772 219.693,183.698 
		202.768,200.623 213.374,211.23 230.3,194.305 247.227,211.23 257.833,200.623 240.908,183.698 257.833,166.772 	"/>
	<polygon style="fill:#1D1D1F;" points="247.122,275.446 230.3,292.268 213.479,275.446 202.872,286.054 219.693,302.875 
		202.872,319.696 213.479,330.304 230.3,313.482 247.122,330.304 257.729,319.696 240.908,302.875 257.729,286.054 	"/>
	<polygon style="fill:#1D1D1F;" points="247.122,394.623 230.3,411.445 213.479,394.623 202.872,405.23 219.693,422.052 
		202.872,438.873 213.479,449.48 230.3,432.659 247.122,449.48 257.729,438.873 240.908,422.052 257.729,405.23 	"/>
</g>
<g>
	
		<rect x="269.866" y="130.819" transform="matrix(-0.9987 -0.051 0.051 -0.9987 547.317 290.6027)" style="fill:#FFFFFF;" width="15" height="15"/>
	
		<rect x="268.597" y="155.789" transform="matrix(-0.9987 -0.051 0.051 -0.9987 543.5075 340.4471)" style="fill:#FFFFFF;" width="15" height="15"/>
	
		<rect x="264.541" y="180.68" transform="matrix(-0.9987 -0.051 0.051 -0.9987 531.344 499.1878)" style="fill:#FFFFFF;" width="15" height="124.27"/>
</g>
<g>
	<path style="fill:#1D1D1F;" d="M458.922,188.709h-1.935v-57.492c0-22.298-8.313-43.647-23.408-60.114
		c-13.435-14.657-31.174-24.317-50.518-27.639V22.576L360.484,0h-23.566v88.323h31.032c23.651,0,42.894,19.242,42.894,42.894v57.492
		h-1.935v134.577h1.935v57.498c0,23.651-19.242,42.893-42.893,42.893h-31.033V512h23.566l22.577-22.576v-20.888
		c19.344-3.321,37.083-12.981,50.518-27.639c15.095-16.467,23.408-37.816,23.408-60.114v-57.497h1.935L458.922,188.709
		L458.922,188.709z M443.922,250.167h-10.006v15h10.006v18.63h-20.013v-52.261h20.013V250.167z M423.909,298.797h20.013v9.489
		h-20.013V298.797z M443.922,216.536h-20.013v-12.827h20.013V216.536z M367.951,73.323h-16.032V15h2.354l13.79,13.789v28.078
		l6.806,0.633c37.637,3.499,67.12,35.88,67.12,73.717v57.492h-16.143v-57.492C425.844,99.294,399.873,73.323,367.951,73.323z
		 M441.987,380.783c0,37.837-29.483,70.218-67.12,73.717l-6.806,0.633v28.078L354.271,497h-2.354v-58.323h16.033
		c31.922,0,57.893-25.971,57.893-57.893v-57.498h16.143V380.783z"/>
	<rect x="336.919" y="100.82" style="fill:#1D1D1F;" width="15" height="310.35"/>
	<path style="fill:#1D1D1F;" d="M156.038,443h-29.461c-12.958,0-23.5-10.542-23.5-23.5v-204c0-12.958,10.542-23.5,23.5-23.5h15.882
		v-15h-15.882c-21.229,0-38.5,17.271-38.5,38.5v204c0,21.229,17.271,38.5,38.5,38.5h29.461V443z"/>
	<path style="fill:#1D1D1F;" d="M68.077,419.5v-204c0-32.257,26.243-58.5,58.5-58.5h14.095v-15h-14.095
		c-40.528,0-73.5,32.972-73.5,73.5v204c0,40.528,32.972,73.5,73.5,73.5h31.248v-15h-31.248C94.32,478,68.077,451.757,68.077,419.5z"
		/>
</g>
<g>
</g>
<g>
</g>
<g>
</g>
<g>
</g>
<g>
</g>
<g>
</g>
<g>
</g>
<g>
</g>
<g>
</g>
<g>
</g>
<g>
</g>
<g>
</g>
<g>
</g>
<g>
</g>
<g>
</g>
</svg>
