<?xml version="1.0" encoding="iso-8859-1"?>
<!-- Generator: Adobe Illustrator 19.0.0, SVG Export Plug-In . SVG Version: 6.00 Build 0)  -->
<svg version="1.1" id="Capa_1" xmlns="http://www.w3.org/2000/svg" xmlns:xlink="http://www.w3.org/1999/xlink" x="0px" y="0px"
	 viewBox="0 0 512 512" style="enable-background:new 0 0 512 512;" xml:space="preserve">
<rect id="SVGCleanerId_0" x="70.901" y="338.241" transform="matrix(-0.7071 -0.7071 0.7071 -0.7071 32.0679 710.9694)" style="fill:#FFB655;" width="184.76" height="21.205"/>
<polygon style="fill:#FFB655;" points="71.527,465.529 46.597,440.599 137.694,338.255 173.871,374.432 "/>
<rect id="SVGCleanerId_1" x="19.595" y="446.479" transform="matrix(-0.7071 -0.7071 0.7071 -0.7071 -257.8727 831.0734)" style="fill:#FFB655;" width="47.18" height="44.931"/>
<rect id="SVGCleanerId_2" x="108.227" y="176.878" transform="matrix(0.7071 -0.7071 0.7071 0.7071 -40.3149 283.3054)" style="fill:#C6C5CA;" width="427.192" height="26.879"/>
<circle style="fill:#C6C5CA;" cx="485.959" cy="26.175" r="18.541"/>
<g>
	
		<rect id="SVGCleanerId_0_1_" x="70.901" y="338.241" transform="matrix(-0.7071 -0.7071 0.7071 -0.7071 32.0679 710.9694)" style="fill:#FFB655;" width="184.76" height="21.205"/>
</g>
<polygon style="fill:#FF7956;" points="71.527,465.529 46.597,440.599 137.694,338.255 173.871,374.432 "/>
<g>
	
		<rect id="SVGCleanerId_1_1_" x="19.595" y="446.479" transform="matrix(-0.7071 -0.7071 0.7071 -0.7071 -257.8727 831.0734)" style="fill:#FFB655;" width="47.18" height="44.931"/>
</g>
<g>
	
		<rect id="SVGCleanerId_2_1_" x="108.227" y="176.878" transform="matrix(0.7071 -0.7071 0.7071 0.7071 -40.3149 283.3054)" style="fill:#C6C5CA;" width="427.192" height="26.879"/>
</g>
<circle style="fill:#C6C5CA;" cx="485.959" cy="26.175" r="18.541"/>
<path style="fill:#898890;" d="M480.291,26.177c0-7.973,5.041-14.749,12.103-17.369c-2.008-0.745-4.171-1.172-6.439-1.172
	c-10.24,0-18.541,8.301-18.541,18.541s8.301,18.541,18.541,18.541c2.267,0,4.43-0.427,6.439-1.172
	C485.332,40.927,480.291,34.149,480.291,26.177z"/>
<rect x="256.35" y="338.244" transform="matrix(0.7071 -0.7071 0.7071 0.7071 -144.5307 348.7637)" style="fill:#FFB655;" width="184.76" height="21.205"/>
<polygon style="fill:#57A4FF;" points="440.473,465.529 465.402,440.599 374.306,338.255 338.13,374.432 "/>
<polygon style="fill:#FF3F62;" points="74.694,440.598 152.559,353.121 137.694,338.255 46.597,440.598 71.527,465.529 
	86.392,452.298 "/>
<polygon style="fill:#006DF0;" points="366.225,374.432 387.537,353.121 374.306,338.255 338.13,374.432 440.473,465.529 
	453.704,452.298 "/>
<rect x="445.25" y="446.481" transform="matrix(0.7071 -0.7071 0.7071 0.7071 -194.2749 468.8709)" style="fill:#FFB655;" width="47.18" height="44.931"/>
<g>
	<polygon style="fill:#FF7956;" points="41.117,468.153 57.634,451.636 42.381,436.381 10.608,468.153 43.974,501.518 
		59.227,486.264 	"/>
	<polygon style="fill:#FF7956;" points="466.764,469.746 484.874,451.636 469.62,436.381 436.255,469.746 468.027,501.518 
		483.281,486.264 	"/>
</g>
<circle style="fill:#C6C5CA;" cx="26.046" cy="26.175" r="18.541"/>
<path style="fill:#898890;" d="M24.008,26.177c0-7.272,4.196-13.548,10.289-16.586c-2.488-1.24-5.283-1.955-8.252-1.955
	c-10.24,0-18.541,8.301-18.541,18.541s8.301,18.541,18.541,18.541c2.969,0,5.764-0.715,8.252-1.955
	C28.204,39.725,24.008,33.449,24.008,26.177z"/>
<polygon style="fill:#FFFFFF;" points="187.065,7.636 187.065,100.391 236.257,100.391 256,120.133 275.743,100.391 
	324.935,100.391 324.935,7.636 "/>
<rect x="187.062" y="7.636" style="fill:#D8D7DA;" width="22.505" height="92.751"/>
<g>
	
		<rect x="-3.792" y="129.507" transform="matrix(-0.7071 -0.7071 0.7071 -0.7071 142.7385 345.0177)" style="fill:#C6C5CA;" width="293.233" height="26.879"/>
	
		<rect x="249.833" y="290.049" transform="matrix(0.7071 0.7071 -0.7071 0.7071 303.4551 -125.6286)" style="fill:#C6C5CA;" width="107.083" height="26.879"/>
</g>
<g>
	<polygon style="fill:#898890;" points="178.443,331.845 474.331,40.757 463.347,29.773 161.275,331.845 180.28,350.851 
		188.864,342.267 	"/>
	<polygon style="fill:#898890;" points="51.614,48.778 59.636,40.757 48.653,29.773 29.647,48.778 236.994,256.126 247.978,245.143 
			"/>
	<polygon style="fill:#898890;" points="277.967,275.132 285.989,267.109 275.006,256.126 256,275.132 331.719,350.851 
		342.703,339.868 	"/>
</g>
<g>
	<path style="fill:#1D1D1F;" d="M512,468.022l-42.38-42.38l-3.9,3.899l-81.105-91.117l47.535-47.535l-25.605-25.605l-45.72,45.721
		c-0.483-26.573-22.234-48.043-48.92-48.043c-26.986,0-48.942,21.955-48.942,48.943c0,26.686,21.471,48.437,48.042,48.92
		l-45.715,45.715l25.605,25.605l18.738-18.738c-0.845,4.797-1.301,9.697-1.301,14.669c0,22.314,8.69,43.292,24.467,59.07
		c16.286,16.285,37.678,24.428,59.071,24.428c19.677,0,39.344-6.91,55.047-20.689l21.11,21.11L512,468.022z M468.027,490.778
		l-21.162-21.162l22.755-22.756l0,0l5.201,5.201l-14.724,14.724l10.609,10.609l14.724-14.724l5.351,5.351L468.027,490.778z
		 M440.174,455.089l-14.359-12.782l16.498-16.498l12.782,14.359L440.174,455.089z M374.642,396.758l22.121-22.121l12.782,14.36
		l-20.543,20.544L374.642,396.758z M419.537,400.222l12.782,14.36l-17.731,17.731l-14.359-12.782L419.537,400.222z M386.771,363.411
		l-23.354,23.354l-14.359-12.782l24.933-24.933l0,0L386.771,363.411z M292.493,284.091l47.228,47.227
		c-2.287,3.266-5.13,6.11-8.396,8.398l-47.229-47.23C286.382,289.221,289.227,286.378,292.493,284.091z M345.845,311.906
		c0,1.377-0.092,2.733-0.252,4.067l-37.753-37.753c1.334-0.16,2.69-0.252,4.066-0.252
		C330.619,277.967,345.845,293.191,345.845,311.906z M277.967,311.906c0-1.38,0.092-2.738,0.253-4.075l37.761,37.76
		c-1.337,0.161-2.696,0.253-4.076,0.253C293.192,345.845,277.967,330.62,277.967,311.906z M286.508,406.541l120.038-120.039l0,0l0,0
		l0,0l4.387,4.387l0,0l0,0L290.999,410.822l0,0l0,0c-0.105,0.105,0,0-0.105,0.106l0,0L286.508,406.541z M343.41,476.536
		c-12.945-12.943-20.074-30.154-20.074-48.46c0-15.941,5.41-31.048,15.354-43.234l90.856,80.872l-3.9,3.9l10.633,10.633
		C409.383,503.176,368.822,501.95,343.41,476.536z"/>
	<path style="fill:#1D1D1F;" d="M22.192,51.803l195.353,195.352l10.608-10.609L40.256,48.648l8.398-8.398l187.897,187.897
		l10.608-10.609L51.801,22.181C49.928,9.648,39.093,0.003,26.047,0.003c-14.36,0-26.044,11.684-26.044,26.043
		C0.003,39.097,9.653,49.934,22.192,51.803z M26.047,15.007c6.087,0,11.039,4.952,11.039,11.039c0,2.981-1.193,5.685-3.12,7.674
		l-0.246,0.246c-1.988,1.927-4.693,3.12-7.674,3.12c-6.087,0-11.04-4.952-11.04-11.039S19.959,15.007,26.047,15.007z"/>
	<path style="fill:#1D1D1F;" d="M256,130.612l22.851-22.851h53.585V0.003H179.563v107.757h53.586L256,130.612z M194.567,15.007
		h122.866v77.75h-44.796l-16.637,16.637l-16.636-16.637h-44.797L194.567,15.007L194.567,15.007z"/>
	<polygon style="fill:#1D1D1F;" points="285.865,37.288 273.147,29.329 255.996,56.732 238.846,29.329 226.128,37.288 
		255.996,85.012 	"/>
	<path style="fill:#1D1D1F;" d="M249.037,311.906c0-5.777-1.013-11.322-2.86-16.473L489.809,51.802
		c12.539-1.868,22.189-12.706,22.189-25.756c0-14.359-11.684-26.043-26.043-26.043c-13.046,0-23.881,9.644-25.755,22.178
		L216.561,265.82c-5.148-1.845-10.69-2.858-16.466-2.858c-26.685,0-48.436,21.471-48.92,48.043l-45.72-45.72L79.851,290.89
		l47.535,47.535L46.28,429.542l-3.9-3.9L0,468.022l43.974,43.974l21.109-21.109c15.239,13.393,34.576,20.727,55.048,20.727
		c22.314,0,43.292-8.69,59.069-24.467s24.467-36.756,24.467-59.07c0-4.973-0.455-9.873-1.301-14.67l18.739,18.739l25.604-25.605
		l-45.715-45.715C227.567,360.342,249.037,338.591,249.037,311.906z M485.954,15.007c6.087,0,11.039,4.952,11.039,11.039
		s-4.952,11.039-11.039,11.039c-2.981,0-5.685-1.193-7.674-3.12l-0.246-0.246c-1.927-1.988-3.12-4.693-3.12-7.674
		C474.915,19.959,479.867,15.007,485.954,15.007z M463.348,40.251l8.398,8.398L238.62,281.774c-2.451-3.127-5.271-5.946-8.398-8.397
		L463.348,40.251z M172.28,331.319l47.228-47.228c3.266,2.287,6.111,5.131,8.398,8.397l-47.229,47.229
		C177.411,337.429,174.566,334.585,172.28,331.319z M200.095,277.967c1.377,0,2.733,0.092,4.068,0.252l-37.754,37.754
		c-0.16-1.334-0.252-2.691-0.252-4.068C166.155,293.191,181.381,277.967,200.095,277.967z M143.641,354.681l19.302,19.303
		l-14.359,12.782l-23.354-23.355l12.782-14.36L143.641,354.681z M97.413,432.314l-17.731-17.731l12.782-14.359l19.309,19.309
		L97.413,432.314z M122.999,409.539l-20.544-20.544l12.782-14.359l22.121,22.121L122.999,409.539z M69.689,425.808l16.498,16.498
		l-14.36,12.782l-14.918-14.919L69.689,425.808z M21.218,468.022l5.351-5.351l14.724,14.724l10.608-10.609l-14.723-14.724
		l5.201-5.201l7.087,7.087l15.67,15.67l-21.162,21.163L21.218,468.022z M168.592,476.536
		c-12.944,12.945-30.155,20.074-48.461,20.074c-16.464,0-32.029-5.782-44.414-16.359l10.636-10.636l-3.9-3.899l90.856-80.872
		c9.944,12.185,15.353,27.292,15.353,43.234C188.664,446.382,181.536,463.594,168.592,476.536z M221.107,410.928l0.106,0.106
		C221.107,410.928,221.213,411.034,221.107,410.928l0.106,0.106L101.068,290.889l0,0l0,0l0,0l4.386-4.387l0,0l0,0l120.039,120.039
		l0,0l0,0L221.107,410.928z M200.095,345.845c-1.38,0-2.738-0.092-4.075-0.253l37.761-37.761c0.161,1.337,0.253,2.696,0.253,4.075
		C234.034,330.62,218.809,345.845,200.095,345.845z"/>
</g>
<g>
</g>
<g>
</g>
<g>
</g>
<g>
</g>
<g>
</g>
<g>
</g>
<g>
</g>
<g>
</g>
<g>
</g>
<g>
</g>
<g>
</g>
<g>
</g>
<g>
</g>
<g>
</g>
<g>
</g>
</svg>
