<?xml version="1.0" encoding="iso-8859-1"?>
<!-- Generator: Adobe Illustrator 19.0.0, SVG Export Plug-In . SVG Version: 6.00 Build 0)  -->
<svg version="1.1" id="Capa_1" xmlns="http://www.w3.org/2000/svg" xmlns:xlink="http://www.w3.org/1999/xlink" x="0px" y="0px"
	 viewBox="0 0 511.999 511.999" style="enable-background:new 0 0 511.999 511.999;" xml:space="preserve">
<polygon style="fill:#FFB655;" points="237.719,59.952 274.28,59.952 275.799,202.746 236.2,202.746 "/>
<polygon style="fill:#FF7956;" points="236.93,59.952 254.517,59.952 255.247,202.747 236.199,202.747 "/>
<circle style="fill:#FFE477;" cx="255.997" cy="33.743" r="26.251"/>
<path style="fill:#FFB655;" d="M252.649,52.304c-10.251-10.251-10.251-26.873,0-37.124c3.169-3.169,6.946-5.355,10.956-6.565
	c-8.962-2.704-19.086-0.518-26.168,6.565c-10.251,10.251-10.251,26.873,0,37.124c7.083,7.083,17.206,9.269,26.168,6.565
	C259.595,57.659,255.818,55.473,252.649,52.304z"/>
<polygon style="fill:#FFE477;" points="168.351,272.55 178.562,237.077 228.827,237.077 255.999,264.249 283.171,237.077 
	333.437,237.077 343.648,272.55 378.795,272.55 350.646,202.746 161.352,202.746 133.203,272.55 "/>
<g>
	<polygon style="fill:#FFB655;" points="161.352,202.746 133.203,272.55 154.871,272.55 183.02,202.746 	"/>
	<polygon style="fill:#FFB655;" points="333.437,237.077 343.648,272.55 365.315,272.55 355.104,237.077 	"/>
	<polygon style="fill:#FFB655;" points="250.494,237.077 228.827,237.077 255.999,264.249 266.833,253.415 	"/>
</g>
<polygon style="fill:#C6C5CA;" points="296.028,432.272 296.028,237.077 283.171,237.077 255.999,264.249 228.827,237.077 
	215.97,237.077 215.97,432.272 "/>
<g>
	<polygon style="fill:#898890;" points="275.799,264.249 296.028,244.019 296.028,237.077 283.171,237.077 265.899,254.348 	"/>
	<polygon style="fill:#898890;" points="235.77,432.272 235.77,244.019 228.827,237.077 215.97,237.077 215.97,432.272 
		296.028,432.272 296.028,432.272 	"/>
	<polygon style="fill:#898890;" points="396.144,504.507 115.855,504.507 157.854,432.272 354.144,432.272 	"/>
</g>
<polygon style="fill:#57565C;" points="157.854,432.272 115.855,504.507 156.435,504.507 198.434,432.272 "/>
<g>
	<rect x="268.328" y="295.969" style="fill:#FFFFFF;" width="15" height="15"/>
	<rect x="268.328" y="320.97" style="fill:#FFFFFF;" width="15" height="51.022"/>
	<rect x="268.328" y="270.968" style="fill:#FFFFFF;" width="15" height="15"/>
</g>
<g>
	
		<rect x="248.684" y="26.046" transform="matrix(-0.7072 -0.707 0.707 -0.7072 413.6411 238.3942)" style="fill:#1D1D1F;" width="15" height="15"/>
	<rect x="185.395" y="471.494" style="fill:#1D1D1F;" width="15" height="15"/>
	<rect x="160.394" y="471.494" style="fill:#1D1D1F;" width="15" height="15"/>
	<rect x="210.396" y="471.494" style="fill:#1D1D1F;" width="15" height="15"/>
	<path style="fill:#1D1D1F;" d="M153.539,424.763l-50.721,87.236H409.18l-50.721-87.236h-94.96V267.347l22.779-22.778h2.25v167.693
		h15V244.569h24.263l10.21,35.474h51.906l-34.198-84.806H283.22l-1.486-139.675c5.184-6.092,8.017-13.74,8.017-21.828
		c0-9.015-3.511-17.491-9.885-23.866c-13.159-13.158-34.571-13.158-47.73,0c-6.375,6.375-9.885,14.851-9.885,23.866
		c0,8.087,2.833,15.735,8.017,21.828l-1.486,139.675h-72.489l-34.198,84.806H174l10.21-35.474h24.263v167.693h15V244.569h2.25
		l22.779,22.778v157.416H153.539z M266.859,67.445l0.195,18.341h-22.11l0.195-18.341L266.859,67.445 M267.605,137.539h-23.211
		l0.116-10.876h22.98L267.605,137.539z M267.33,111.662h-22.66l0.116-10.876h22.429L267.33,111.662z M244.234,152.539h23.53
		l0.116,10.876h-23.761L244.234,152.539z M242.741,20.476c3.655-3.655,8.457-5.483,13.258-5.483s9.603,1.828,13.258,5.483
		c3.542,3.541,5.492,8.249,5.492,13.258s-1.95,9.717-5.492,13.258c-3.486,3.486-8.015,5.29-12.592,5.451h-1.332
		c-4.577-0.161-9.106-1.965-12.592-5.451c-3.542-3.541-5.492-8.249-5.492-13.258S239.199,24.017,242.741,20.476z M243.959,178.416
		h24.081l0.179,16.822H243.78L243.959,178.416z M172.915,229.569l-10.21,35.474h-18.39l22.1-54.805h82.085v25.735h15v-25.735h82.085
		l22.1,54.805h-18.39l-10.21-35.474h-59.019l-24.066,24.065l-24.066-24.065L172.915,229.569L172.915,229.569z M359.267,455.998
		h-48.764v15h57.485l15.117,26.001H128.891l33.277-57.235h187.66L359.267,455.998z"/>
	<rect x="309.529" y="127.593" style="fill:#1D1D1F;" width="15" height="15"/>
	<rect x="309.529" y="152.594" style="fill:#1D1D1F;" width="15" height="15"/>
	<rect x="309.529" y="8.974" style="fill:#1D1D1F;" width="15" height="108.623"/>
	<rect x="339.96" y="8.974" style="fill:#1D1D1F;" width="15" height="81.573"/>
	<rect x="187.465" y="152.594" style="fill:#1D1D1F;" width="15" height="15"/>
	<rect x="187.465" y="127.593" style="fill:#1D1D1F;" width="15" height="15"/>
	<rect x="187.465" y="8.974" style="fill:#1D1D1F;" width="15" height="108.623"/>
	<rect x="157.044" y="8.974" style="fill:#1D1D1F;" width="15" height="81.573"/>
</g>
<g>
</g>
<g>
</g>
<g>
</g>
<g>
</g>
<g>
</g>
<g>
</g>
<g>
</g>
<g>
</g>
<g>
</g>
<g>
</g>
<g>
</g>
<g>
</g>
<g>
</g>
<g>
</g>
<g>
</g>
</svg>
