<?xml version="1.0" encoding="iso-8859-1"?>
<!-- Generator: Adobe Illustrator 19.0.0, SVG Export Plug-In . SVG Version: 6.00 Build 0)  -->
<svg version="1.1" id="Capa_1" xmlns="http://www.w3.org/2000/svg" xmlns:xlink="http://www.w3.org/1999/xlink" x="0px" y="0px"
	 viewBox="0 0 512 512" style="enable-background:new 0 0 512 512;" xml:space="preserve">
<polygon style="fill:#FFB655;" points="134.049,504.5 90.177,504.5 89.948,192.5 133.82,192.5 "/>
<rect x="83.99" y="51.63" style="fill:#C6C5CA;" width="55.788" height="116.16"/>
<polygon style="fill:#FF7956;" points="108.533,504.5 90.044,504.5 89.948,192.5 108.436,192.5 "/>
<g>
	<rect x="83.99" y="51.63" style="fill:#898890;" width="23.51" height="116.16"/>
	<rect x="77.54" y="167.79" style="fill:#898890;" width="68.68" height="24.714"/>
</g>
<rect x="77.54" y="167.79" style="fill:#787680;" width="21.697" height="24.714"/>
<rect x="90.11" y="386.08" style="fill:#FFFFFF;" width="43.873" height="59.56"/>
<rect x="90.11" y="386.08" style="fill:#D8D7DA;" width="20.859" height="59.56"/>
<circle style="fill:#C6C5CA;" cx="345.44" cy="397.21" r="68.27"/>
<path style="fill:#898890;" d="M306.715,397.208c0-32.629,22.897-59.895,53.496-66.648c-4.759-1.051-9.699-1.621-14.774-1.621
	c-37.704,0-68.27,30.565-68.27,68.27s30.565,68.27,68.27,68.27c5.075,0,10.015-0.571,14.774-1.621
	C329.612,457.102,306.715,429.837,306.715,397.208z"/>
<g>
	<rect x="104.51" y="98.95" style="fill:#FFFFFF;" width="15" height="15"/>
	<rect x="104.51" y="73.949" style="fill:#FFFFFF;" width="15" height="15"/>
	<rect x="104.51" y="123.95" style="fill:#FFFFFF;" width="15" height="26.976"/>
	<path style="fill:#FFFFFF;" d="M362.35,345.847l-4.648,14.262c12.01,3.914,21.401,13.455,25.123,25.523l14.334-4.42
		C392.002,364.49,378.989,351.27,362.35,345.847z"/>
</g>
<g>
	<rect x="104.67" y="326.5" style="fill:#1D1D1F;" width="15" height="15"/>
	<rect x="104.67" y="351.5" style="fill:#1D1D1F;" width="15" height="15"/>
	<rect x="104.67" y="301.5" style="fill:#1D1D1F;" width="15" height="15"/>
	<path style="fill:#1D1D1F;" d="M141.445,212.494l-15,0.012l0.004,4.494H109.35v15h17.111l0.115,146.583H97.703l-0.082-105.289
		H118.1v-15H97.61l-0.036-45.8l-15,0.012L82.808,512h58.872L141.445,212.494z M97.738,423.362h28.871v14.78H97.75L97.738,423.362z
		 M126.587,393.583l0.012,14.779H97.736v-14.779H126.587z M97.796,497l-0.012-14.833h14.389v-15h-14.4l-0.011-14.024h28.872
		L126.668,497H97.796z"/>
	<path style="fill:#1D1D1F;" d="M248.205,37.065c0.881,6.286,3.758,12.092,8.326,16.659l19.392,19.394
		c5.736,5.735,13.271,8.604,20.806,8.604c5.128,0,10.254-1.332,14.815-3.988l9.394,9.394c-3.029,4.625-4.797,10.145-4.797,16.075
		v27.425c0,13.632,9.321,25.126,21.923,28.451v19.015c-12.602,3.325-21.923,14.818-21.923,28.451v27.426
		c0,13.632,9.321,25.126,21.923,28.451v19.015c-12.602,3.325-21.923,14.818-21.923,28.451v1.81h15v-1.81
		c0-5.204,2.78-9.759,6.923-12.296v8.318h15v-8.318c4.143,2.537,6.923,7.092,6.923,12.296v1.81h15v-1.81
		c0-13.632-9.321-25.126-21.923-28.451v-19.015c12.602-3.325,21.923-14.818,21.923-28.451v-27.426
		c0-13.632-9.321-25.126-21.923-28.451v-19.015c12.602-3.325,21.923-14.818,21.923-28.451v-27.425
		c0-16.225-13.199-29.424-29.423-29.424c-4.856,0-9.437,1.19-13.478,3.282l-9.934-9.934c6.56-11.263,5.023-25.98-4.616-35.62
		l-19.393-19.393c-11.474-11.472-30.139-11.472-41.61,0c-2.886,2.886-5.092,6.268-6.553,9.951h-12.967
		c-3.326-12.602-14.82-21.923-28.453-21.923h-27.425c-13.632,0-25.126,9.321-28.451,21.924h-15.258
		C135.665,9.612,124.941,0,112.009,0C97.852,0,86.334,11.518,86.334,25.675V44.13h-9.719v116.156h-6.446V200h83.681v-39.714h-6.446
		V44.13h-9.719v-7.064h15c3.325,12.602,14.818,21.923,28.451,21.923h27.425c13.633,0,25.126-9.32,28.451-21.923h11.193V37.065z
		 M359.984,206.543v27.426c0,5.204-2.78,9.759-6.923,12.296v-11.629h-15v11.629c-4.143-2.537-6.923-7.092-6.923-12.296v-27.426
		c0-5.204,2.78-9.759,6.923-12.296v8.318h15v-8.318C357.205,196.784,359.984,201.339,359.984,206.543z M345.562,88.778
		c7.953,0,14.423,6.471,14.423,14.424v27.425c0,5.204-2.78,9.759-6.923,12.296v-11.629h-15v11.629
		c-4.143-2.537-6.923-7.092-6.923-12.296v-27.425c0-1.749,0.329-3.418,0.901-4.971l8.218,8.218l10.607-10.607l-6.961-6.961
		C344.449,88.818,345,88.778,345.562,88.778z M277.336,18.504c3.693,0,7.387,1.405,10.198,4.218l19.393,19.393
		c3.68,3.679,4.936,8.865,3.8,13.589l-10.258-10.258l-10.607,10.607l10.258,10.258c-4.723,1.136-9.91-0.119-13.59-3.799
		l-19.393-19.394c-1.717-1.716-2.945-3.79-3.62-6.053h14.105v-15h-9.757C270.571,19.7,273.949,18.504,277.336,18.504z M138.85,185
		H85.169v-9.714h53.681V185z M91.615,160.286V59.13h40.788v101.156H91.615z M122.685,44.13h-21.351V25.675
		c0-5.886,4.789-10.675,10.675-10.675c4.618,0,8.55,2.953,10.034,7.065h-10.034v15h10.676
		C122.685,37.065,122.685,44.13,122.685,44.13z M208.56,43.988h-27.425c-5.204,0-9.759-2.78-12.296-6.923h14.441v-15h-14.442
		c2.537-4.144,7.092-6.924,12.297-6.924h27.425c5.205,0,9.76,2.78,12.297,6.924H206.35v15h14.507
		C218.319,41.209,213.764,43.988,208.56,43.988z"/>
	<path style="fill:#1D1D1F;" d="M309.513,411.636l-13.916,5.6c4.984,12.384,14.338,22.441,26.339,28.321l6.6-13.471
		C319.866,427.839,313.11,420.576,309.513,411.636z"/>
	<path style="fill:#1D1D1F;" d="M441.831,404.707v-15h-20.874c-1.508-15.273-7.568-29.226-16.804-40.483l14.785-14.785
		l-10.607-10.607l-14.785,14.785c-13.076-10.729-29.79-17.179-47.984-17.179s-34.908,6.45-47.984,17.179l-14.785-14.785
		l-10.607,10.607l14.785,14.785c-9.236,11.257-15.296,25.21-16.804,40.483h-20.874v15h20.874
		c1.508,15.273,7.568,29.227,16.804,40.484l-14.785,14.785l10.607,10.607l14.785-14.785c11.257,9.236,25.211,15.297,40.484,16.805
		v20.874h15v-20.874c15.273-1.508,29.227-7.569,40.484-16.805l14.785,14.785l10.607-10.607l-14.785-14.785
		c9.236-11.257,15.296-25.211,16.804-40.484H441.831z M345.562,457.978c-33.509,0-60.77-27.262-60.77-60.771
		s27.261-60.77,60.77-60.77s60.77,27.261,60.77,60.77S379.07,457.978,345.562,457.978z"/>
	<rect x="338.06" y="389.71" style="fill:#1D1D1F;" width="15" height="15"/>
	<rect x="338.06" y="357.26" style="fill:#1D1D1F;" width="15" height="15"/>
	<rect x="338.06" y="423.84" style="fill:#1D1D1F;" width="15" height="15"/>
	<rect x="371.35" y="390.55" style="fill:#1D1D1F;" width="15" height="15"/>
	<rect x="304.77" y="390.55" style="fill:#1D1D1F;" width="15" height="15"/>
</g>
<g>
</g>
<g>
</g>
<g>
</g>
<g>
</g>
<g>
</g>
<g>
</g>
<g>
</g>
<g>
</g>
<g>
</g>
<g>
</g>
<g>
</g>
<g>
</g>
<g>
</g>
<g>
</g>
<g>
</g>
</svg>
