<?xml version="1.0" encoding="iso-8859-1"?>
<!-- Generator: Adobe Illustrator 19.0.0, SVG Export Plug-In . SVG Version: 6.00 Build 0)  -->
<svg version="1.1" id="Capa_1" xmlns="http://www.w3.org/2000/svg" xmlns:xlink="http://www.w3.org/1999/xlink" x="0px" y="0px"
	 viewBox="0 0 512 512" style="enable-background:new 0 0 512 512;" xml:space="preserve">
<polygon style="fill:#57A4FF;" points="356.976,504.5 356.984,347.567 322.202,312.786 42.282,312.786 7.5,347.567 7.5,504.5 "/>
<polygon style="fill:#006DF0;" points="80.057,312.786 42.282,312.786 7.5,347.567 7.5,504.5 45.275,504.5 45.275,347.567 "/>
<path style="fill:#FFFFFF;" d="M249.89,407.699H114.588c-13.025-13.025-20.327-20.327-33.352-33.352v-61.561h202.006v61.561
	C270.217,387.371,262.914,394.674,249.89,407.699z"/>
<polygon style="fill:#FFE477;" points="275.232,41.609 228.736,53.451 182.241,10.313 135.747,53.451 89.255,41.609 89.255,109.667 
	275.232,109.667 "/>
<g>
	<polygon style="fill:#FFB655;" points="165.376,53.451 197.055,24.057 182.241,10.313 142.129,47.53 	"/>
	<polygon style="fill:#FFB655;" points="258.365,53.451 275.232,49.155 275.232,41.609 251.983,47.53 	"/>
	<polygon style="fill:#FFB655;" points="89.255,41.609 89.255,109.667 118.884,109.667 118.884,49.156 	"/>
</g>
<rect x="88.73" y="189.84" style="fill:#FF7956;" width="187.02" height="122.94"/>
<rect x="88.73" y="189.84" style="fill:#FF3F62;" width="43.27" height="122.94"/>
<path style="fill:#FFDAAA;" d="M275.75,189.844H88.728v29.431c0,51.645,41.866,93.511,93.511,93.511s93.511-41.866,93.511-93.511
	V189.844z"/>
<path style="fill:#FF9478;" d="M120.198,219.275v-29.431h-31.47v29.431c0,51.645,41.866,93.511,93.511,93.511
	c5.363,0,10.619-0.458,15.735-1.325C153.822,303.979,120.198,265.556,120.198,219.275z"/>
<path style="fill:#FFDAAA;" d="M233.703,385H130.775c-8.632-8.632-13.471-13.471-22.103-22.103v-50.111h147.134v50.111
	C247.174,371.529,242.335,376.368,233.703,385z"/>
<g>
	<circle style="fill:#FF9478;" cx="203.24" cy="365.67" r="16.774"/>
	<path style="fill:#FF9478;" d="M138.305,362.897v-50.111h-29.633v50.111L130.775,385h29.633
		C151.776,376.368,146.937,371.529,138.305,362.897z"/>
</g>
<path style="fill:#FF7956;" d="M251.336,109.667H113.142c-22.502,19.41-36.747,48.129-36.747,80.177h211.688
	C288.083,157.796,273.838,129.076,251.336,109.667z"/>
<path style="fill:#FF3F62;" d="M156.677,109.667h-43.536c-22.502,19.41-36.747,48.129-36.747,80.177h43.536
	C119.931,157.796,134.176,129.076,156.677,109.667z"/>
<circle style="fill:#FFE477;" cx="182.24" cy="365.67" r="16.774"/>
<polygon style="fill:#FFFFFF;" points="315,7.5 315,134.99 382.613,134.99 382.613,162.127 436.887,134.99 504.5,134.99 504.5,7.5 
	"/>
<g>
	<path style="fill:#D8D7DA;" d="M473.904,65.055c0-12.14-9.841-21.981-21.981-21.981c-7.228,0-13.641,3.49-17.647,8.876
		c-4.006-5.386-10.419-8.876-17.647-8.876c-12.14,0-21.981,9.841-21.981,21.981c0,18.066,39.631,46.267,39.624,46.267
		C434.273,111.322,473.904,83.121,473.904,65.055z"/>
	<rect x="315" y="7.5" style="fill:#D8D7DA;" width="29.931" height="127.49"/>
</g>
<path style="fill:#FF7956;" d="M449.377,65.055c0-12.14-9.841-21.981-21.981-21.981c-7.228,0-13.641,3.49-17.647,8.876
	c-4.006-5.386-10.419-8.876-17.647-8.876c-12.14,0-21.981,9.841-21.981,21.981c0,18.066,39.631,46.267,39.624,46.267
	C409.747,111.322,449.377,83.121,449.377,65.055z"/>
<path style="fill:#FF3F62;" d="M390.122,65.055c0-8.539,4.873-15.936,11.986-19.575c-3.001-1.537-6.402-2.406-10.006-2.406
	c-12.14,0-21.981,9.841-21.981,21.98c0,18.066,39.631,46.267,39.624,46.267c0,0,4.268-3.037,10.002-7.756
	C408.011,93.904,390.122,77.192,390.122,65.055z"/>
<g>
	<path style="fill:#FFFFFF;" d="M253.247,219.91l-14.999-0.133c-0.04,4.427-0.6,8.83-1.665,13.087l14.552,3.641
		C252.487,231.102,253.197,225.519,253.247,219.91z"/>
	<path style="fill:#FFFFFF;" d="M247.57,247.102l-13.793-5.895c-1.729,4.046-3.944,7.895-6.583,11.439l12.031,8.957
		C242.57,257.112,245.377,252.233,247.57,247.102z"/>
	<path style="fill:#FFFFFF;" d="M231.884,270.006l-10.492-10.721c-8.161,7.988-18.373,13.235-29.533,15.174l2.568,14.779
		C208.592,286.776,221.544,280.126,231.884,270.006z"/>
	<rect x="325.31" y="457.7" style="fill:#FFFFFF;" width="15" height="33.968"/>
	<rect x="325.31" y="407.7" style="fill:#FFFFFF;" width="15" height="15"/>
	<rect x="325.31" y="432.7" style="fill:#FFFFFF;" width="15" height="15"/>
	<rect x="205" y="81.74" style="fill:#FFFFFF;" width="55.676" height="15"/>
	<rect x="155" y="81.74" style="fill:#FFFFFF;" width="15" height="15"/>
	<rect x="180" y="81.74" style="fill:#FFFFFF;" width="15" height="15"/>
</g>
<g>
	<path style="fill:#1D1D1F;" d="M235.146,305.286c13.444-8.3,24.804-19.66,33.104-33.104v25.604h15V197.344h12.333v-7.5
		c0-23.167-6.952-45.452-20.105-64.446l-12.332,8.539c9.981,14.414,15.845,31.018,17.156,48.407h-42.911v-40.239h-15v40.239h-32.652
		v-40.239h-15v40.239h-32.652v-40.239h-15v40.239h-42.91c1.311-17.391,7.175-33.993,17.156-48.407l-12.332-8.539
		c-13.153,18.994-20.106,41.279-20.106,64.446v7.5h12.333v100.442h15v-25.604c8.3,13.444,19.66,24.804,33.104,33.104H39.175
		L0,344.461V512h364.476l0.008-167.539l-39.175-39.175H235.146z M248.306,320.526v39.265l-17.71,17.71h-27.174
		c1.965-3.504,3.091-7.538,3.091-11.833c0-4.423-1.195-8.569-3.27-12.144C221.59,348.427,237.73,336.774,248.306,320.526z
		 M182.239,341.393c-18.228,0-35.414-7.852-47.383-21.106h94.767C217.653,333.541,200.467,341.393,182.239,341.393z
		 M191.513,365.667c0,5.113-4.16,9.273-9.274,9.273c-5.113,0-9.273-4.16-9.273-9.273c0-5.114,4.16-9.274,9.273-9.274
		C187.353,356.393,191.513,360.553,191.513,365.667z M96.228,219.274v-21.931H268.25v21.931c0,47.427-38.584,86.012-86.011,86.012
		C134.813,305.286,96.228,266.701,96.228,219.274z M116.172,320.525c10.576,16.249,26.716,27.901,45.063,32.997
		c-2.075,3.575-3.27,7.722-3.27,12.144c0,4.295,1.126,8.329,3.091,11.833h-27.175l-17.709-17.71V320.525z M88.736,320.286h12.436
		v45.717l26.497,26.497H236.81l26.497-26.497v-45.717h12.436v50.954l-28.959,28.959H117.695L88.736,371.24V320.286z M349.477,497
		h-51.092v-80.769h-15V497h-20.079v-32.061h-15V497h-17.958v-67.111h-15V497h-46.545v-60.185h-15V497h-38.497v-40.131h-15V497
		H81.099v-80.766h-15V497H15V350.674l30.388-30.388h28.348v57.167l37.746,37.746h141.515l37.746-37.746v-57.167h28.354
		l30.388,30.388L349.477,497z"/>
	<path style="fill:#1D1D1F;" d="M282.732,31.959l-51.889,13.216L182.241,0.081L133.64,45.175L81.755,31.958v85.209h200.977V31.959z
		 M267.732,102.167H96.755V51.259l41.099,10.469l44.387-41.184l44.389,41.184l41.103-10.47v50.909H267.732z"/>
	<rect x="105.2" y="60.923" style="fill:#1D1D1F;" width="15" height="33.398"/>
	<path style="fill:#1D1D1F;" d="M307.5,0v142.49h67.613v31.772l63.544-31.772H512V0H307.5z M497,127.49h-61.884l-45.003,22.502
		V127.49H322.5V15H497V127.49z"/>
	<path style="fill:#1D1D1F;" d="M409.75,120.523c7.145-5.083,47.127-34.592,47.127-55.469c0-16.256-13.225-29.48-29.48-29.48
		c-6.402,0-12.599,2.119-17.647,5.882c-5.048-3.763-11.245-5.882-17.647-5.882c-16.255,0-29.48,13.225-29.48,29.48
		C362.623,85.932,402.605,115.44,409.75,120.523z M392.103,50.574c4.624,0,8.863,2.133,11.629,5.853l6.018,8.089l6.018-8.089
		c2.767-3.72,7.005-5.853,11.629-5.853c7.984,0,14.48,6.496,14.48,14.48c0,8.746-17.833,25.971-32.125,36.932h-0.004
		c-14.292-10.961-32.125-28.186-32.125-36.932C377.623,57.07,384.119,50.574,392.103,50.574z"/>
</g>
<g>
</g>
<g>
</g>
<g>
</g>
<g>
</g>
<g>
</g>
<g>
</g>
<g>
</g>
<g>
</g>
<g>
</g>
<g>
</g>
<g>
</g>
<g>
</g>
<g>
</g>
<g>
</g>
<g>
</g>
</svg>
