<?xml version="1.0" encoding="iso-8859-1"?>
<!-- Generator: Adobe Illustrator 19.0.0, SVG Export Plug-In . SVG Version: 6.00 Build 0)  -->
<svg version="1.1" id="Capa_1" xmlns="http://www.w3.org/2000/svg" xmlns:xlink="http://www.w3.org/1999/xlink" x="0px" y="0px"
	 viewBox="0 0 512 512" style="enable-background:new 0 0 512 512;" xml:space="preserve">
<rect x="172.22" y="55.5" style="fill:#FF9811;" width="167.56" height="275.27"/>
<g>
	<rect x="190.6" y="221.72" style="fill:#FF5023;" width="68.772" height="82.84"/>
	<polygon style="fill:#FF5023;" points="259.368,191.463 190.596,191.463 190.596,108.623 224.982,95.667 259.368,108.623 	"/>
	<rect x="172.22" y="55.5" style="fill:#FF5023;" width="23.511" height="275.27"/>
</g>
<rect x="134.96" y="45" style="fill:#FFB655;" width="37.27" height="210.67"/>
<rect x="134.96" y="45" style="fill:#FF7956;" width="18.342" height="210.67"/>
<rect x="339.78" y="45" style="fill:#FFB655;" width="37.27" height="210.67"/>
<rect x="339.75" y="45.37" style="fill:#FF7956;" width="18.342" height="210.67"/>
<g>
	<polygon style="fill:#FFB655;" points="172.221,292.083 119.543,292.083 103.333,275.873 103.333,255.667 172.221,255.667 	"/>
	<polygon style="fill:#FFB655;" points="392.457,292.083 339.779,292.083 339.779,255.667 408.667,255.667 408.667,275.873 	"/>
</g>
<g>
	<rect x="339.78" y="255.67" style="fill:#FF7956;" width="28.359" height="36.417"/>
	<polygon style="fill:#FF7956;" points="131.692,255.667 103.333,255.667 103.333,275.873 119.543,292.083 147.902,292.083 
		131.692,275.873 	"/>
	<rect x="153.59" y="330.77" style="fill:#FF7956;" width="204.82" height="41.23"/>
</g>
<rect x="153.59" y="330.77" style="fill:#FF3F62;" width="63.894" height="41.23"/>
<rect x="172.22" y="372" style="fill:#FF9811;" width="167.56" height="116.07"/>
<rect x="190.6" y="396.15" style="fill:#FF7956;" width="68.772" height="67.781"/>
<g>
	<polygon style="fill:#FFB655;" points="153.589,372 153.589,330.77 172.221,330.77 172.221,292.083 119.625,292.083 119.625,504.5 
		172.221,504.5 172.221,372 	"/>
	<polygon style="fill:#FFB655;" points="339.779,292.083 339.779,330.77 358.411,330.77 358.411,372 339.779,372 339.779,504.5 
		392.375,504.5 392.375,292.083 	"/>
</g>
<g>
	<rect x="119.62" y="292.08" style="fill:#FF7956;" width="22.5" height="212.42"/>
	<polygon style="fill:#FF7956;" points="380.911,372 380.911,330.77 362.278,330.77 362.278,292.083 339.779,292.083 
		339.779,330.77 358.411,330.77 358.411,372 339.779,372 339.779,504.5 362.278,504.5 362.278,372 	"/>
</g>
<rect x="240.99" y="372.07" style="fill:#FFB655;" width="30.01" height="36.432"/>
<rect x="240.99" y="372.07" style="fill:#FF7956;" width="15" height="36.432"/>
<g>
	<rect x="172.22" y="396.15" style="fill:#FFB655;" width="68.772" height="67.781"/>
	<rect x="271" y="396.15" style="fill:#FFB655;" width="68.772" height="67.781"/>
</g>
<g>
	<rect x="172.22" y="396.15" style="fill:#FF7956;" width="26.981" height="67.781"/>
	<rect x="271" y="396.15" style="fill:#FF7956;" width="26.982" height="67.781"/>
</g>
<g>
	<rect x="172.22" y="221.72" style="fill:#FFB655;" width="68.772" height="82.84"/>
	<rect x="271" y="221.72" style="fill:#FFB655;" width="68.772" height="82.84"/>
	<polygon style="fill:#FFB655;" points="240.994,191.463 172.221,191.463 172.221,108.623 206.607,95.667 240.994,108.623 	"/>
	<polygon style="fill:#FFB655;" points="339.772,191.463 271,191.463 271,108.623 305.386,95.667 339.772,108.623 	"/>
</g>
<g>
	<rect x="271" y="221.72" style="fill:#FF7956;" width="25.315" height="82.84"/>
	<polygon style="fill:#FF7956;" points="296.315,108.623 318.043,100.436 305.386,95.667 271,108.623 271,191.463 296.315,191.463 	
		"/>
	<polygon style="fill:#FF7956;" points="197.536,108.623 219.265,100.436 206.607,95.667 172.221,108.623 172.221,191.463 
		197.536,191.463 	"/>
	<rect x="172.22" y="221.72" style="fill:#FF7956;" width="25.314" height="82.84"/>
</g>
<g>
	<rect x="252.35" y="343.38" style="fill:#FFFFFF;" width="30.624" height="15"/>
	<rect x="292.98" y="343.38" style="fill:#FFFFFF;" width="15" height="15"/>
	<rect x="317.98" y="343.38" style="fill:#FFFFFF;" width="15" height="15"/>
	<rect x="215.69" y="66.942" style="fill:#FFFFFF;" width="30.624" height="15"/>
	<rect x="256.31" y="66.942" style="fill:#FFFFFF;" width="15" height="15"/>
	<rect x="281.31" y="66.942" style="fill:#FFFFFF;" width="15" height="15"/>
</g>
<g>
	<rect x="350.91" y="197.6" style="fill:#1D1D1F;" width="15" height="15"/>
	<rect x="350.91" y="172.78" style="fill:#1D1D1F;" width="15" height="14.818"/>
	<rect x="350.91" y="222.6" style="fill:#1D1D1F;" width="15" height="15"/>
	<rect x="358.58" y="414.88" style="fill:#1D1D1F;" width="15" height="14.818"/>
	<rect x="358.58" y="439.69" style="fill:#1D1D1F;" width="15" height="15"/>
	<rect x="358.58" y="464.69" style="fill:#1D1D1F;" width="15" height="15"/>
	<rect x="138.42" y="464.69" style="fill:#1D1D1F;" width="15" height="15"/>
	<rect x="138.42" y="439.69" style="fill:#1D1D1F;" width="15" height="15"/>
	<rect x="138.42" y="414.88" style="fill:#1D1D1F;" width="15" height="14.818"/>
	<rect x="146.09" y="172.78" style="fill:#1D1D1F;" width="15" height="14.818"/>
	<rect x="146.09" y="222.6" style="fill:#1D1D1F;" width="15" height="15"/>
	<rect x="146.09" y="197.6" style="fill:#1D1D1F;" width="15" height="15"/>
	<path style="fill:#1D1D1F;" d="M416.167,248.167h-68.889V52.5h22.266v183.167h15V37.5h-18.633V30h15V15h-15V0h-15v15h-15v15h15v7.5
		h-18.633V48H179.721V37.5h-18.632V30h15V15h-15V0h-15v15h-15v15h15v7.5h-18.633v198.167h15V52.5h22.265v195.667H95.833v30.813
		l16.292,16.292V512h67.596v-16.427h152.557V512h67.597V295.271l16.292-16.292V248.167z M332.278,388.646H278.5V379.5h53.778
		V388.646z M233.493,456.427h-53.772v-52.781h53.772V456.427z M179.721,388.646V379.5h53.772v9.146H179.721z M248.493,379.568H263.5
		V401h-15.006v-21.432H248.493z M278.5,403.646h53.772v52.781H278.5V403.646z M161.089,364.5v-26.229h189.822V364.5H161.089z
		 M179.721,113.812l26.886-10.13l26.886,10.13v70.151h-53.772V113.812z M179.721,198.963h68.772v-95.528l-41.886-15.782
		l-26.886,10.13V63h152.557v34.785l-26.893-10.133L263.5,103.435v95.528h68.778v15.254H263.5v97.841h68.778v11.213H179.721v-11.213
		h68.772v-97.841h-68.772V198.963z M332.272,113.812v70.151H278.5v-70.151l26.886-10.13L332.272,113.812z M332.272,229.217v67.841
		H278.5v-67.841L332.272,229.217L332.272,229.217z M179.721,229.217h53.772v67.841h-53.772V229.217z M110.833,263.167h53.888v21.416
		H122.65l-11.816-11.816L110.833,263.167L110.833,263.167z M164.721,497h-37.596V299.583h37.596v23.688h-18.632V379.5h18.632V497z
		 M179.721,480.573v-9.146h68.772V416H263.5v55.427h68.778v9.146H179.721z M384.875,497h-37.597V379.5h18.633v-56.229h-18.633
		v-23.688h37.597V497z M401.167,272.767l-11.816,11.816h-42.072v-21.416h53.889v9.6H401.167z"/>
	<rect x="188.23" y="412.79" style="fill:#1D1D1F;" width="15" height="34.5"/>
	<rect x="209.98" y="412.79" style="fill:#1D1D1F;" width="15" height="34.5"/>
	<rect x="287.01" y="412.79" style="fill:#1D1D1F;" width="15" height="34.5"/>
	<rect x="308.76" y="412.79" style="fill:#1D1D1F;" width="15" height="34.5"/>
	<rect x="188.23" y="240.4" style="fill:#1D1D1F;" width="15" height="45.47"/>
	<rect x="209.98" y="240.4" style="fill:#1D1D1F;" width="15" height="45.47"/>
	<rect x="287.01" y="240.4" style="fill:#1D1D1F;" width="15" height="45.47"/>
	<rect x="308.76" y="240.4" style="fill:#1D1D1F;" width="15" height="45.47"/>
	<rect x="188.23" y="127.31" style="fill:#1D1D1F;" width="15" height="45.47"/>
	<rect x="209.98" y="127.31" style="fill:#1D1D1F;" width="15" height="45.47"/>
	<rect x="287.01" y="127.31" style="fill:#1D1D1F;" width="15" height="45.47"/>
	<rect x="308.76" y="127.31" style="fill:#1D1D1F;" width="15" height="45.47"/>
</g>
<g>
</g>
<g>
</g>
<g>
</g>
<g>
</g>
<g>
</g>
<g>
</g>
<g>
</g>
<g>
</g>
<g>
</g>
<g>
</g>
<g>
</g>
<g>
</g>
<g>
</g>
<g>
</g>
<g>
</g>
</svg>
