<?xml version="1.0" encoding="iso-8859-1"?>
<!-- Generator: Adobe Illustrator 19.0.0, SVG Export Plug-In . SVG Version: 6.00 Build 0)  -->
<svg version="1.1" id="Capa_1" xmlns="http://www.w3.org/2000/svg" xmlns:xlink="http://www.w3.org/1999/xlink" x="0px" y="0px"
	 viewBox="0 0 512 512" style="enable-background:new 0 0 512 512;" xml:space="preserve">
<rect id="SVGCleanerId_0" x="7.5" y="123.51" style="fill:#FFB655;" width="497" height="230.99"/>
<g>
	<rect id="SVGCleanerId_0_1_" x="7.5" y="123.51" style="fill:#FFB655;" width="497" height="230.99"/>
</g>
<g>
	<rect x="256.48" y="123.51" style="fill:#FF7956;" width="37.891" height="138.04"/>
	<rect x="156.66" y="154.32" style="fill:#FF7956;" width="37.891" height="200.17"/>
	<rect x="356.3" y="154.32" style="fill:#FF7956;" width="37.891" height="200.17"/>
	<path style="fill:#FF7956;" d="M101.759,266.196c-6.887,0-13.145,2.683-17.797,7.054H28.674v37.891h55.288
		c4.652,4.372,10.909,7.054,17.797,7.054c14.359,0,26-11.641,26-26C127.759,277.837,116.118,266.196,101.759,266.196z"/>
	<polygon style="fill:#FF7956;" points="287.675,311.211 263.175,311.211 250.925,298.961 250.925,261.544 299.925,261.544 
		299.925,298.961 	"/>
	<rect x="9.248" y="123.51" style="fill:#FF7956;" width="60.45" height="230.99"/>
</g>
<g>
	<polygon style="fill:#FFB655;" points="96.625,354.494 7.5,354.494 7.5,388.494 86.625,388.494 	"/>
	<polygon style="fill:#FFB655;" points="415.375,354.494 504.5,354.494 504.5,388.494 425.375,388.494 	"/>
	<polygon style="fill:#FFB655;" points="211.434,354.494 300.559,354.494 290.559,388.494 221.434,388.494 	"/>
</g>
<g>
	<polygon style="fill:#FF7956;" points="211.434,354.494 221.434,388.494 259.805,388.494 249.805,354.494 	"/>
	<rect x="7.5" y="354.49" style="fill:#FF7956;" width="38.37" height="34"/>
	<polygon style="fill:#FF7956;" points="415.375,354.494 425.375,388.494 463.746,388.494 453.746,354.494 	"/>
</g>
<rect x="237.05" y="123.51" style="fill:#C6C5CA;" width="37.891" height="138.04"/>
<rect x="237.05" y="123.51" style="fill:#898890;" width="18.942" height="138.04"/>
<rect x="137.23" y="154.32" style="fill:#C6C5CA;" width="37.891" height="200.17"/>
<rect x="137.23" y="154.32" style="fill:#898890;" width="17.348" height="200.17"/>
<rect x="336.88" y="154.32" style="fill:#C6C5CA;" width="37.891" height="200.17"/>
<rect x="336.88" y="154.32" style="fill:#898890;" width="18.587" height="200.17"/>
<rect x="274.95" y="123.51" style="fill:#FFB655;" width="229.55" height="30.811"/>
<rect x="274.95" y="123.51" style="fill:#FF7956;" width="61.933" height="30.811"/>
<rect x="7.5" y="123.51" style="fill:#FFB655;" width="229.55" height="30.811"/>
<rect x="7.5" y="123.51" style="fill:#FF7956;" width="81.5" height="30.811"/>
<rect x="175.12" y="192.01" style="fill:#C6C5CA;" width="61.933" height="37.891"/>
<rect x="175.12" y="192.01" style="fill:#898890;" width="19.425" height="37.891"/>
<g>
	<rect x="7.5" y="192.01" style="fill:#C6C5CA;" width="129.73" height="37.891"/>
	<rect x="274.95" y="192.01" style="fill:#C6C5CA;" width="61.933" height="37.891"/>
</g>
<rect x="274.95" y="192.01" style="fill:#898890;" width="19.425" height="37.891"/>
<rect x="374.77" y="192.01" style="fill:#C6C5CA;" width="129.73" height="37.891"/>
<rect x="374.95" y="192.01" style="fill:#898890;" width="19.425" height="37.891"/>
<path style="fill:#C6C5CA;" d="M82.333,266.196c-6.887,0-13.145,2.683-17.797,7.054H9.248v37.891h55.288
	c4.652,4.372,10.909,7.054,17.797,7.054c14.359,0,26-11.641,26-26C108.333,277.837,96.693,266.196,82.333,266.196z"/>
<g>
	<rect x="7.5" y="192.01" style="fill:#898890;" width="31.366" height="37.891"/>
	<rect x="9.248" y="273.25" style="fill:#898890;" width="31.366" height="37.891"/>
</g>
<path style="fill:#C6C5CA;" d="M431.415,266.196c6.887,0,13.145,2.683,17.797,7.054H504.5v37.891h-55.288
	c-4.652,4.372-10.909,7.054-17.797,7.054c-14.359,0-26-11.641-26-26C405.415,277.837,417.056,266.196,431.415,266.196z"/>
<path style="fill:#898890;" d="M425.206,292.196c0-10.854,6.653-20.15,16.102-24.044c-3.049-1.258-6.389-1.956-9.893-1.956
	c-14.359,0-26,11.641-26,26s11.641,26,26,26c3.504,0,6.843-0.698,9.893-1.956C431.859,312.346,425.206,303.05,425.206,292.196z"/>
<polygon style="fill:#C6C5CA;" points="268.25,311.211 243.75,311.211 231.5,298.961 231.5,261.544 280.5,261.544 280.5,298.961 "/>
<polygon style="fill:#898890;" points="250.925,261.544 231.5,261.544 231.5,298.961 243.75,311.211 263.175,311.211 
	250.925,298.961 "/>
<g>
	<rect x="248.5" y="162.47" style="fill:#FFFFFF;" width="15" height="15"/>
	<rect x="248.5" y="137.47" style="fill:#FFFFFF;" width="15" height="15"/>
	<rect x="248.5" y="187.47" style="fill:#FFFFFF;" width="15" height="30.623"/>
</g>
<g>
	<rect x="63.731" y="203.45" style="fill:#1D1D1F;" width="15" height="15"/>
	<rect x="88.73" y="203.45" style="fill:#1D1D1F;" width="15" height="15"/>
	<rect x="38.731" y="203.45" style="fill:#1D1D1F;" width="15" height="15"/>
	<rect x="148.68" y="234.66" style="fill:#1D1D1F;" width="15" height="15"/>
	<rect x="148.68" y="209.66" style="fill:#1D1D1F;" width="15" height="15"/>
	<rect x="148.68" y="259.66" style="fill:#1D1D1F;" width="15" height="15"/>
	<rect x="148.68" y="284.66" style="fill:#1D1D1F;" width="15" height="15"/>
	<rect x="348.32" y="259.66" style="fill:#1D1D1F;" width="15" height="15"/>
	<rect x="348.32" y="209.66" style="fill:#1D1D1F;" width="15" height="15"/>
	<rect x="348.32" y="284.66" style="fill:#1D1D1F;" width="15" height="15"/>
	<rect x="348.32" y="234.66" style="fill:#1D1D1F;" width="15" height="15"/>
	<rect x="24" y="284.7" style="fill:#1D1D1F;" width="15" height="15"/>
	<rect x="74" y="284.7" style="fill:#1D1D1F;" width="15" height="15"/>
	<rect x="49" y="284.7" style="fill:#1D1D1F;" width="15" height="15"/>
	<rect x="431" y="203.45" style="fill:#1D1D1F;" width="15" height="15"/>
	<rect x="456" y="203.45" style="fill:#1D1D1F;" width="15" height="15"/>
	<rect x="406" y="203.45" style="fill:#1D1D1F;" width="15" height="15"/>
	<path style="fill:#1D1D1F;" d="M294.946,116.006v15H497v15.811H294.946v15h34.433v22.69h-34.433v15h34.433v22.892h-34.433v15
		h34.433v29.979h-21.045v15h21.045v28.318H291v15h38.378v21.297H182.622v-21.297H199v-15h-16.378v-28.318h28.813v-15h-28.813
		v-29.979h34.433v-15h-34.433v-22.892h34.433v-15h-34.433v-22.69h34.433v-15H15v-15.811h202.054v-15H0v279.988h92.237l10-34.001
		h103.585l10,34.001h80.349l10-34.001h103.592l10,34.001H512V116.006H294.946z M129.73,222.398H15v-22.892h114.73L129.73,222.398
		L129.73,222.398z M167.622,161.816v185.172H144.73V161.816H167.622z M15,161.816h114.73v22.69H15V161.816z M81.013,380.994H15
		v-19.001h71.602L81.013,380.994z M15,346.993v-28.352h46.776c5.863,4.569,13.054,7.055,20.557,7.055
		c18.472,0,33.5-15.028,33.5-33.5c0-18.472-15.028-33.5-33.5-33.5c-7.504,0-14.694,2.485-20.557,7.054H15v-28.352h114.73v6.027H101
		v15h28.73v88.567H15V346.993z M16.749,303.642V280.75h50.759l2.165-2.034c3.445-3.237,7.941-5.02,12.661-5.02
		c10.201,0,18.5,8.299,18.5,18.5s-8.299,18.5-18.5,18.5c-4.719,0-9.216-1.783-12.661-5.021l-2.165-2.034L16.749,303.642
		L16.749,303.642z M284.947,380.994h-57.901l-5.588-19.001h69.078L284.947,380.994z M344.378,161.816h22.891v185.172h-22.891
		V161.816z M382.27,199.507H497v22.892H382.27V199.507z M497,380.994h-66.013l-5.588-19.001H497V380.994z M497,303.642h-50.759
		l-2.165,2.034c-3.445,3.237-7.942,5.021-12.661,5.021c-10.201,0-18.5-8.299-18.5-18.5s8.299-18.5,18.5-18.5
		c4.72,0,9.216,1.782,12.661,5.02l2.165,2.034H497V303.642z M497,265.75h-45.028c-5.863-4.568-13.053-7.054-20.557-7.054
		c-18.472,0-33.5,15.028-33.5,33.5c0,18.472,15.028,33.5,33.5,33.5c7.503,0,14.693-2.485,20.557-7.055H497v28.352H382.27v-8.067
		h25.98v-15h-25.98v-61.334H396v-15h-13.73v-10.193H497V265.75z M497,184.507H382.27v-22.69H497V184.507z"/>
	<rect x="474.75" y="284.7" style="fill:#1D1D1F;" width="15" height="15"/>
	<rect x="424.75" y="284.7" style="fill:#1D1D1F;" width="15" height="15"/>
	<rect x="449.75" y="284.7" style="fill:#1D1D1F;" width="15" height="15"/>
	<path style="fill:#1D1D1F;" d="M271.356,318.711L288,302.067v-48.023h-5.554V116.006h-52.892v138.038H224v48.023l16.644,16.644
		H271.356z M267.446,131.006v94.17h-22.892v-94.17H267.446z M244.554,246.005l5.83-5.829h11.232l5.83,5.829v8.039h-22.892
		L244.554,246.005L244.554,246.005z M239,269.044h34v26.811l-7.856,7.856h-18.287L239,295.854V269.044z"/>
	<rect x="248.5" y="274.88" style="fill:#1D1D1F;" width="15" height="21"/>
</g>
<g>
</g>
<g>
</g>
<g>
</g>
<g>
</g>
<g>
</g>
<g>
</g>
<g>
</g>
<g>
</g>
<g>
</g>
<g>
</g>
<g>
</g>
<g>
</g>
<g>
</g>
<g>
</g>
<g>
</g>
</svg>
