<?xml version="1.0" encoding="iso-8859-1"?>
<!-- Generator: Adobe Illustrator 19.0.0, SVG Export Plug-In . SVG Version: 6.00 Build 0)  -->
<svg version="1.1" id="Capa_1" xmlns="http://www.w3.org/2000/svg" xmlns:xlink="http://www.w3.org/1999/xlink" x="0px" y="0px"
	 viewBox="0 0 511.999 511.999" style="enable-background:new 0 0 511.999 511.999;" xml:space="preserve">
<path id="SVGCleanerId_0" style="fill:#FFE477;" d="M386.745,94.977H43.159v44.998h39.503
	c-19.254,9.766-32.489,29.746-32.489,52.772c0,32.612,26.532,59.144,59.144,59.144h7.206v-29.999h-7.206
	c-16.07,0-29.145-13.075-29.145-29.145c0-16.071,13.075-29.146,29.145-29.146h196.867c16.07,0,29.145,13.075,29.145,29.146
	c0,16.07-13.075,29.145-29.145,29.145h-7.206v29.999h7.206c32.612,0,59.144-26.532,59.144-59.144
	c0-23.026-13.235-43.006-32.488-52.772h53.904l117.746,80.608V14.368L386.745,94.977z"/>
<g>
	<path id="SVGCleanerId_0_1_" style="fill:#FFE477;" d="M386.745,94.977H43.159v44.998h39.503
		c-19.254,9.766-32.489,29.746-32.489,52.772c0,32.612,26.532,59.144,59.144,59.144h7.206v-29.999h-7.206
		c-16.07,0-29.145-13.075-29.145-29.145c0-16.071,13.075-29.146,29.145-29.146h196.867c16.07,0,29.145,13.075,29.145,29.146
		c0,16.07-13.075,29.145-29.145,29.145h-7.206v29.999h7.206c32.612,0,59.144-26.532,59.144-59.144
		c0-23.026-13.235-43.006-32.488-52.772h53.904l117.746,80.608V14.368L386.745,94.977z"/>
</g>
<g>
	<polygon style="fill:#FFB655;" points="425.41,94.977 504.491,40.839 504.491,14.368 386.745,94.977 	"/>
	<path style="fill:#FFB655;" d="M94.415,217.781c-8.522-5.092-14.243-14.406-14.243-25.035c0-10.63,5.722-19.944,14.244-25.036
		c5.623-11.971,15.137-21.764,26.91-27.736H81.824V94.976H43.158v44.998h39.503c-19.254,9.766-32.489,29.746-32.489,52.772
		c0,32.612,26.532,59.144,59.144,59.144h7.206v-9.097C106.966,236.765,99.249,228.082,94.415,217.781z"/>
	<polygon style="fill:#FFB655;" points="425.41,139.975 371.506,139.975 371.506,139.975 386.745,139.975 504.491,220.583 
		504.491,194.113 	"/>
	<path style="fill:#FFB655;" d="M337.644,221.892h7.206c5.443,0,10.539-1.503,14.902-4.111c3.57-7.608,5.577-16.089,5.577-25.035
		c0-8.947-2.006-17.429-5.579-25.036c-4.364-2.607-9.459-4.11-14.9-4.11h-38.666c16.07,0,29.145,13.075,29.145,29.146
		c0,16.07-13.075,29.145-29.145,29.145h-7.206v29.999h7.206c11.557,0,22.34-3.344,31.46-9.097V221.892z"/>
</g>
<polygon style="fill:#FFE477;" points="7.508,150.667 20.077,150.667 43.159,139.974 43.159,94.977 20.077,84.284 7.508,84.284 "/>
<g>
	<polygon style="fill:#FFB655;" points="25.334,86.719 20.077,84.284 7.508,84.284 7.508,150.667 20.077,150.667 25.334,148.232 	
		"/>
	<rect x="43.158" y="94.977" style="fill:#FFB655;" width="22.019" height="44.998"/>
</g>
<polygon style="fill:#FF7956;" points="272.914,221.892 272.914,251.891 246.849,251.891 246.849,221.892 220.784,221.892 
	220.784,251.891 194.719,251.891 194.719,221.892 168.654,221.892 168.654,251.891 142.589,251.891 142.589,221.892 
	116.523,221.892 116.523,456.59 207.751,503.703 298.979,456.59 298.979,221.892 "/>
<g>
	<polygon style="fill:#FF3F62;" points="284.28,341.158 240.95,347.599 247.391,304.268 208.11,304.268 214.55,347.598 
		171.221,341.158 171.221,380.439 214.551,373.998 208.11,417.327 247.391,417.327 240.95,373.998 284.28,380.439 	"/>
	<rect x="225.302" y="221.892" style="fill:#FF3F62;" width="21.547" height="29.999"/>
	<rect x="277.43" y="221.892" style="fill:#FF3F62;" width="21.547" height="29.999"/>
	<polygon style="fill:#FF3F62;" points="147.105,456.59 147.105,251.891 142.589,251.891 142.589,221.892 116.523,221.892 
		116.523,456.59 207.751,503.703 223.043,495.807 	"/>
	<rect x="173.173" y="221.892" style="fill:#FF3F62;" width="21.547" height="29.999"/>
</g>
<polygon style="fill:#FFFFFF;" points="264.28,341.158 220.951,347.599 227.392,304.268 188.111,304.268 194.551,347.598 
	151.221,341.158 151.221,380.439 194.552,373.998 188.111,417.327 227.392,417.327 220.951,373.998 264.28,380.439 "/>
<g>
	<rect x="246.851" y="221.892" style="fill:#FFE477;" width="26.069" height="29.999"/>
	<rect x="142.585" y="221.892" style="fill:#FFE477;" width="26.069" height="29.999"/>
	<rect x="194.723" y="221.892" style="fill:#FFE477;" width="26.069" height="29.999"/>
</g>
<polygon style="fill:#FFB655;" points="116.523,421.528 116.523,456.59 207.751,503.703 298.979,456.59 298.979,421.528 
	207.751,468.642 "/>
<polygon style="fill:#FF7956;" points="146.939,456.59 146.939,437.237 116.523,421.528 116.523,456.59 207.751,503.703 
	222.96,495.85 "/>
<g>
	<rect x="468.513" y="112.796" style="fill:#FFFFFF;" width="14.999" height="59.078"/>
	<rect x="468.513" y="87.797" style="fill:#FFFFFF;" width="14.999" height="14.999"/>
	<rect x="468.513" y="62.794" style="fill:#FFFFFF;" width="14.999" height="14.999"/>
	<rect x="223.332" y="109.826" style="fill:#FFFFFF;" width="14.999" height="14.999"/>
	<rect x="198.333" y="109.826" style="fill:#FFFFFF;" width="14.999" height="14.999"/>
	<rect x="248.331" y="109.826" style="fill:#FFFFFF;" width="101.996" height="14.999"/>
	<rect x="142.585" y="270.43" style="fill:#FFFFFF;" width="14.999" height="14.999"/>
	<rect x="192.583" y="270.43" style="fill:#FFFFFF;" width="91.167" height="14.999"/>
	<rect x="167.584" y="270.43" style="fill:#FFFFFF;" width="14.999" height="14.999"/>
</g>
<g>
	<rect x="163.674" y="132.325" style="fill:#1D1D1F;" width="99.996" height="14.999"/>
	<path style="fill:#1D1D1F;" d="M265.414,244.246h-11.066v-29.999h-41.065v29.999h-11.066v-29.999h-41.065v29.999h-11.066v-29.999
		h-41.065v246.764l98.728,50.987l98.728-50.987V214.247h-41.065L265.414,244.246L265.414,244.246z M291.479,451.878l-83.728,43.239
		l-83.728-43.239v-18.181l83.728,43.24l83.728-43.24V451.878z M280.414,229.247h11.066v187.568l-83.728,43.24l-83.728-43.24V229.247
		h11.066v29.999h41.065v-29.999h11.066v29.999h41.065v-29.999h11.066v29.999h41.065L280.414,229.247L280.414,229.247z"/>
	<path style="fill:#1D1D1F;" d="M236.088,296.624h-56.675l6.231,41.924l-41.923-6.231v56.675l41.924-6.232l-6.232,41.924h56.675
		l-6.232-41.924l41.924,6.232v-56.675l-41.923,6.231L236.088,296.624z M256.781,349.71v21.887l-44.736-6.65l6.65,44.735h-21.887
		l6.65-44.735l-44.735,6.65V349.71l44.735,6.649l-6.649-44.735h21.887l-6.649,44.735L256.781,349.71z"/>
	<path style="fill:#1D1D1F;" d="M315.674,212.049l6.607,13.467c12.675-6.22,20.548-18.83,20.548-32.913
		c0-20.206-16.438-36.646-36.645-36.646H109.318c-20.206,0-36.645,16.439-36.645,36.646c0,14.083,7.874,26.693,20.548,32.913
		l6.607-13.467c-7.498-3.679-12.156-11.131-12.156-19.446c0-11.937,9.71-21.646,21.645-21.646h196.867
		c11.936,0,21.645,9.711,21.645,21.646C327.83,200.918,323.172,208.37,315.674,212.049z"/>
	<path style="fill:#1D1D1F;" d="M384.424,87.331H44.809L21.73,76.639H0.009v81.383H21.73l23.081-10.693h15.587
		c-11.244,12.099-17.725,28.121-17.725,45.272c0,30.994,21.965,58.354,52.229,65.057l3.243-14.644
		c-23.451-5.194-40.473-26.395-40.473-50.412c0-18.968,10.243-36.158,26.847-45.272h60.983V132.33h-72.83v-29.999h306.572v17.999
		h14.999V98.786L496.99,28.447v177.768l-107.924-73.885H284.499v14.999h46.484c16.604,9.115,26.847,26.304,26.847,45.272
		c0,24.018-17.021,45.218-40.473,50.412l3.243,14.644c30.264-6.702,52.229-34.062,52.229-65.057c0-17.15-6.483-33.175-17.726-45.272
		h29.321l127.566,87.332V0L384.424,87.331z M18.424,143.022h-3.417V91.639h3.417l17.234,7.984v35.416L18.424,143.022z
		 M57.673,132.329h-7.015V102.33h7.015V132.329z"/>
</g>
<g>
</g>
<g>
</g>
<g>
</g>
<g>
</g>
<g>
</g>
<g>
</g>
<g>
</g>
<g>
</g>
<g>
</g>
<g>
</g>
<g>
</g>
<g>
</g>
<g>
</g>
<g>
</g>
<g>
</g>
</svg>
