<?xml version="1.0" encoding="iso-8859-1"?>
<!-- Generator: Adobe Illustrator 19.0.0, SVG Export Plug-In . SVG Version: 6.00 Build 0)  -->
<svg version="1.1" id="Capa_1" xmlns="http://www.w3.org/2000/svg" xmlns:xlink="http://www.w3.org/1999/xlink" x="0px" y="0px"
	 viewBox="0 0 512 512" style="enable-background:new 0 0 512 512;" xml:space="preserve">
<polygon style="fill:#57A4FF;" points="271.325,387.114 271.325,329.543 410.009,329.543 410.009,446.929 357.647,446.929 
	357.647,504.5 218.963,504.5 218.963,387.114 "/>
<rect x="218.96" y="387.11" style="fill:#006DF0;" width="26.18" height="117.39"/>
<polygon style="fill:#57A4FF;" points="410.009,329.543 410.009,446.929 357.647,446.929 271.325,446.929 271.325,329.543 "/>
<g>
	<polygon style="fill:#006DF0;" points="391.581,375.559 366.341,376.99 367.771,351.75 342.418,351.75 343.848,376.99 
		318.609,375.559 318.609,400.913 343.849,399.482 342.418,424.722 367.771,424.722 366.341,399.482 391.581,400.913 	"/>
	<polygon style="fill:#006DF0;" points="294.938,329.542 294.938,446.928 286.023,446.928 271.325,446.928 271.325,329.542 	"/>
</g>
<g>
	<polygon style="fill:#FF7956;" points="309.322,137.11 309.322,56.5 115.139,56.5 115.139,220.863 188.455,220.863 
		188.455,301.473 382.639,301.473 382.639,137.11 	"/>
	<polygon style="fill:#FF7956;" points="115.139,56.5 115.139,220.863 188.455,220.863 309.322,220.863 309.322,56.5 	"/>
</g>
<g>
	<polygon style="fill:#FF3F62;" points="286.177,119.638 245.257,124.792 250.41,83.871 212.324,83.871 217.477,124.791 
		176.556,119.638 176.556,157.725 217.477,152.571 212.324,193.492 250.41,193.492 245.256,152.571 286.177,157.725 	"/>
	<polygon style="fill:#FF3F62;" points="115.139,56.5 115.139,220.863 128.271,220.863 149.92,220.863 149.92,56.5 	"/>
</g>
<polygon style="fill:#FFFFFF;" points="267.041,119.638 226.12,124.792 231.274,83.871 193.187,83.871 198.34,124.791 
	157.42,119.638 157.42,157.725 198.341,152.571 193.187,193.492 231.274,193.492 226.12,152.571 267.041,157.725 "/>
<g>
	<polygon style="fill:#D8D7DA;" points="217.477,124.791 212.323,83.871 193.187,83.871 198.032,122.343 	"/>
	<polygon style="fill:#D8D7DA;" points="198.033,155.02 193.187,193.492 212.323,193.492 217.477,152.571 	"/>
	<polygon style="fill:#D8D7DA;" points="176.556,122.048 157.42,119.638 157.42,157.725 176.556,155.315 	"/>
</g>
<polygon style="fill:#FFFFFF;" points="377.153,375.559 351.913,376.99 353.343,351.75 327.99,351.75 329.42,376.99 
	304.181,375.559 304.181,400.913 329.421,399.482 327.99,424.722 353.343,424.722 351.913,399.482 377.153,400.913 "/>
<rect x="72.14" y="56.5" style="fill:#C6C5CA;" width="43" height="448"/>
<rect x="72.14" y="56.5" style="fill:#898890;" width="21.5" height="448"/>
<circle style="fill:#FFE477;" cx="93.64" cy="32" r="24.5"/>
<path style="fill:#FFB655;" d="M90.639,32c0-9.674,5.609-18.036,13.75-22.018C101.143,8.394,97.496,7.5,93.639,7.5
	c-13.531,0-24.5,10.969-24.5,24.5s10.969,24.5,24.5,24.5c3.857,0,7.504-0.894,10.75-2.482C96.247,50.036,90.639,41.674,90.639,32z"
	/>
<polygon style="fill:#FF5023;" points="309.322,220.863 188.455,301.473 188.455,220.863 "/>
<rect x="410.01" y="329.54" style="fill:#C6C5CA;" width="30.71" height="174.96"/>
<rect x="410.01" y="329.54" style="fill:#898890;" width="15.355" height="174.96"/>
<circle style="fill:#FFE477;" cx="425.36" cy="312.05" r="17.498"/>
<path style="fill:#FF7956;" d="M421.866,312.045c0-7.173,4.321-13.33,10.498-16.031c-2.145-0.938-4.51-1.466-7-1.466
	c-9.664,0-17.498,7.834-17.498,17.498c0,9.664,7.834,17.498,17.498,17.498c2.49,0,4.855-0.528,7-1.466
	C426.187,325.375,421.866,319.218,421.866,312.045z"/>
<polygon style="fill:#006DF0;" points="271.325,446.929 357.647,504.5 357.647,446.929 "/>
<g>
	<rect x="86.14" y="247.15" style="fill:#FFFFFF;" width="15" height="95.69"/>
	<rect x="86.14" y="222.15" style="fill:#FFFFFF;" width="15" height="15"/>
	<rect x="86.14" y="197.15" style="fill:#FFFFFF;" width="15" height="15"/>
	<rect x="347.6" y="181.45" style="fill:#FFFFFF;" width="15" height="15"/>
	<rect x="347.6" y="156.45" style="fill:#FFFFFF;" width="15" height="15"/>
	<rect x="347.6" y="206.45" style="fill:#FFFFFF;" width="15" height="63.55"/>
	<rect x="231.13" y="450.93" style="fill:#FFFFFF;" width="15" height="31.1"/>
	<rect x="231.13" y="425.93" style="fill:#FFFFFF;" width="15" height="15"/>
	<rect x="231.13" y="400.93" style="fill:#FFFFFF;" width="15" height="15"/>
</g>
<g>
	<path style="fill:#1D1D1F;" d="M149.92,166.229l39.772-5.009l-5.009,39.772h55.094l-5.009-39.772l39.772,5.009v-55.094
		l-39.772,5.009l5.009-39.772h-55.094l5.009,39.772l-39.772-5.009L149.92,166.229L149.92,166.229z M164.92,128.142l42.069,5.298
		l-5.298-42.069h21.078l-5.298,42.069l42.069-5.298v21.079l-42.069-5.298l5.298,42.069h-21.078l5.298-42.069l-42.069,5.298
		L164.92,128.142L164.92,128.142z"/>
	<path style="fill:#1D1D1F;" d="M384.652,367.623l-24.775,1.404l1.404-24.777h-41.228l1.403,24.776l-24.776-1.404v41.227
		l24.776-1.404l-1.404,24.776h41.229l-1.405-24.777l24.776,1.404L384.652,367.623L384.652,367.623z M369.652,392.976l-25.704-1.457
		l1.458,25.704h-9.479l1.457-25.703l-25.704,1.457v-9.479l25.702,1.457l-1.456-25.703h9.479l-1.457,25.704l25.703-1.457v9.477
		H369.652z"/>
	<rect x="304.94" y="271.5" style="fill:#1D1D1F;" width="15" height="15"/>
	<rect x="254.94" y="271.5" style="fill:#1D1D1F;" width="15" height="15"/>
	<rect x="279.94" y="271.5" style="fill:#1D1D1F;" width="15" height="15"/>
	<path style="fill:#1D1D1F;" d="M93.639,0c-17.645,0-32,14.355-32,32c0,6.244,1.804,12.07,4.908,17h-1.908v463h58V49h-1.908
		c3.104-4.93,4.908-10.756,4.908-17C125.639,14.355,111.283,0,93.639,0z M76.639,32c0-9.374,7.626-17,17-17c9.374,0,17,7.626,17,17
		s-7.626,17-17,17C84.265,49,76.639,41.374,76.639,32z M107.639,497h-28V64h28V497z"/>
	<path style="fill:#1D1D1F;" d="M329.322,144.61h45.816v149.363h-161.92l103.605-69.097V49H135.139v15h166.684v149.363H135.139v15
		h45.816v80.61h209.184V129.61h-60.816v15H329.322z M284.56,228.363l-88.604,59.093v-59.093L284.56,228.363L284.56,228.363z"/>
	<path style="fill:#1D1D1F;" d="M450.361,312.045c0-13.784-11.214-24.998-24.998-24.998c-13.783,0-24.997,11.214-24.997,24.998
		c0,3.596,0.769,7.014,2.143,10.107V512h45.71V322.153C449.592,319.06,450.361,315.642,450.361,312.045z M425.363,302.048
		c5.513,0,9.998,4.485,9.998,9.998s-4.485,9.998-9.998,9.998s-9.997-4.485-9.997-9.998S419.851,302.048,425.363,302.048z
		 M433.219,497h-15.71V337.043h15.71V497z"/>
	<path style="fill:#1D1D1F;" d="M263.825,450.942L332.884,497H226.463V394.614h24.862v-15h-39.862V512h153.684v-57.571h24.862v-15
		H278.825V337.043h111.184v-15H263.825V450.942z M350.146,454.429v36.054l-54.059-36.054L350.146,454.429L350.146,454.429z"/>
</g>
<g>
</g>
<g>
</g>
<g>
</g>
<g>
</g>
<g>
</g>
<g>
</g>
<g>
</g>
<g>
</g>
<g>
</g>
<g>
</g>
<g>
</g>
<g>
</g>
<g>
</g>
<g>
</g>
<g>
</g>
</svg>
