<?xml version="1.0" encoding="iso-8859-1"?>
<!-- Generator: Adobe Illustrator 19.0.0, SVG Export Plug-In . SVG Version: 6.00 Build 0)  -->
<svg version="1.1" id="Capa_1" xmlns="http://www.w3.org/2000/svg" xmlns:xlink="http://www.w3.org/1999/xlink" x="0px" y="0px"
	 viewBox="0 0 512 512" style="enable-background:new 0 0 512 512;" xml:space="preserve">
<polygon style="fill:#C6C5CA;" points="291.062,471.5 220.938,471.5 235,274.603 277,274.603 "/>
<g>
	<circle style="fill:#898890;" cx="269.33" cy="434.75" r="15"/>
	<polygon style="fill:#898890;" points="235,274.603 220.938,471.5 244.943,471.5 259.006,274.603 	"/>
	<polygon style="fill:#898890;" points="352,504.5 160,504.5 174,471.5 338,471.5 	"/>
</g>
<polygon style="fill:#57565C;" points="174,471.5 160,504.5 220.938,504.5 234.938,471.5 "/>
<rect x="133" y="114.39" style="fill:#898890;" width="246" height="53.32"/>
<g>
	<circle style="fill:#57565C;" cx="271.88" cy="141.05" r="18.543"/>
	<rect x="133" y="114.39" style="fill:#57565C;" width="40" height="53.32"/>
</g>
<rect x="144.61" y="7.5" style="fill:#C6C5CA;" width="222.78" height="106.89"/>
<circle style="fill:#898890;" cx="275.69" cy="60.946" r="31.27"/>
<path style="fill:#C6C5CA;" d="M144.707,167.712c2.362,59.432,51.281,106.891,111.293,106.891l0,0
	c60.012,0,108.931-47.459,111.293-106.891H144.707z"/>
<g>
	<rect x="144.61" y="7.5" style="fill:#898890;" width="39.37" height="106.89"/>
	<path style="fill:#898890;" d="M184.076,167.712h-39.369c2.362,59.432,51.281,106.891,111.293,106.891l0,0
		c6.718,0,13.295-0.599,19.684-1.739C224.99,263.823,186.174,220.491,184.076,167.712z"/>
	<polygon style="fill:#898890;" points="271.407,274.603 240.593,274.603 231.994,167.712 280.006,167.712 	"/>
</g>
<polygon style="fill:#57565C;" points="231.994,167.712 240.594,274.603 260.278,274.603 251.679,167.712 "/>
<circle style="fill:#B6E892;" cx="256" cy="141.05" r="18.543"/>
<path style="fill:#95D6A6;" d="M255.073,141.051c0-7.053,3.938-13.185,9.735-16.32c-2.62-1.417-5.62-2.223-8.808-2.223
	c-10.241,0-18.543,8.302-18.543,18.543s8.302,18.544,18.543,18.544c3.188,0,6.188-0.806,8.808-2.223
	C259.011,154.236,255.073,148.104,255.073,141.051z"/>
<circle style="fill:#FF7956;" cx="256" cy="60.946" r="31.27"/>
<path style="fill:#FF3F62;" d="M244.411,60.946c0-13.832,8.983-25.559,21.431-29.684c-3.096-1.026-6.402-1.59-9.842-1.59
	c-17.272,0-31.274,14.002-31.274,31.274S238.728,92.22,256,92.22c3.44,0,6.747-0.564,9.842-1.59
	C253.394,86.504,244.411,74.778,244.411,60.946z"/>
<circle style="fill:#57A4FF;" cx="256" cy="434.75" r="15"/>
<path style="fill:#006DF0;" d="M254,434.75c0-5.952,3.476-11.079,8.5-13.503c-1.969-0.95-4.168-1.497-6.5-1.497
	c-8.284,0-15,6.716-15,15s6.716,15,15,15c2.332,0,4.531-0.548,6.5-1.497C257.476,445.829,254,440.702,254,434.75z"/>
<g>
	<path style="fill:#FFFFFF;" d="M256,41.195v15c2.619,0,4.75,2.131,4.75,4.75s-2.131,4.75-4.75,4.75v15
		c10.891,0,19.75-8.86,19.75-19.75S266.891,41.195,256,41.195z"/>
	<rect x="248.5" y="319.15" style="fill:#FFFFFF;" width="15" height="15"/>
	<rect x="248.5" y="294.15" style="fill:#FFFFFF;" width="15" height="15"/>
	<rect x="248.5" y="344.15" style="fill:#FFFFFF;" width="15" height="32.1"/>
	<rect x="335" y="83.72" style="fill:#FFFFFF;" width="15" height="15"/>
	<rect x="335" y="58.717" style="fill:#FFFFFF;" width="15" height="15"/>
	<rect x="335" y="21.17" style="fill:#FFFFFF;" width="15" height="27.543"/>
</g>
<g>
	<rect x="316.06" y="133.55" style="fill:#1D1D1F;" width="15" height="15"/>
	<rect x="291.06" y="133.55" style="fill:#1D1D1F;" width="15" height="15"/>
	<rect x="341.06" y="133.55" style="fill:#1D1D1F;" width="15" height="15"/>
	<rect x="180.94" y="133.55" style="fill:#1D1D1F;" width="15" height="15"/>
	<rect x="155.94" y="133.55" style="fill:#1D1D1F;" width="15" height="15"/>
	<rect x="205.94" y="133.55" style="fill:#1D1D1F;" width="15" height="15"/>
	<rect x="248.5" y="207.69" style="fill:#1D1D1F;" width="15" height="15"/>
	<rect x="248.5" y="232.69" style="fill:#1D1D1F;" width="15" height="15"/>
	<rect x="248.5" y="182.69" style="fill:#1D1D1F;" width="15" height="15"/>
	<path style="fill:#1D1D1F;" d="M169.035,464l-20.364,48h214.658l-20.364-48H169.035z M171.329,497l7.636-18h154.07l7.636,18
		H171.329z"/>
	<path style="fill:#1D1D1F;" d="M386.5,106.891h-11.609V0H137.109v106.891H125.5v68.321h12.224
		c2.802,28.003,15.353,53.927,35.807,73.634c16.771,16.157,37.53,26.842,59.971,31.131l0.171,2.126h44.654l0.171-2.126
		c22.44-4.289,43.2-14.974,59.971-31.131c20.455-19.706,33.005-45.631,35.807-73.634H386.5V106.891z M264.513,266.756
		c-2.808,0.225-5.646,0.347-8.513,0.347s-5.705-0.122-8.513-0.347l-7.365-91.544h31.756L264.513,266.756z M140.5,121.891h97.883
		c-5.176,4.763-8.427,11.588-8.427,19.16c0,7.572,3.251,14.398,8.427,19.161H140.5V121.891z M256,152.095
		c-6.09,0-11.044-4.954-11.044-11.043s4.954-11.043,11.044-11.043c6.09,0,11.044,4.954,11.044,11.043S262.09,152.095,256,152.095z
		 M273.617,121.891H371.5v38.321h-97.884c5.177-4.763,8.427-11.588,8.427-19.161C282.044,133.479,278.793,126.654,273.617,121.891z
		 M152.109,77H173.5V62h-21.391V15H359.89v91.891H152.109V77z M152.799,175.212h72.274l1.471,18.288H180v15h47.751l4.497,55.897
		C190.085,254.624,157.823,219.349,152.799,175.212z M279.752,264.397l7.175-89.185h72.274
		C354.177,219.349,321.915,254.624,279.752,264.397z"/>
	<path style="fill:#1D1D1F;" d="M303.467,238.619c17.601-11.288,30.646-28.472,36.733-48.385l-14.344-4.386
		c-5.05,16.518-15.877,30.774-30.487,40.145L303.467,238.619z"/>
	<path style="fill:#1D1D1F;" d="M256,22.172c-21.38,0-38.773,17.394-38.773,38.773S234.62,99.719,256,99.719
		s38.773-17.394,38.773-38.774S277.38,22.172,256,22.172z M256,84.719c-13.108,0-23.773-10.665-23.773-23.774
		S242.892,37.172,256,37.172s23.773,10.665,23.773,23.773S269.108,84.719,256,84.719z"/>
	<path style="fill:#1D1D1F;" d="M233.5,434.75c0,12.407,10.094,22.5,22.5,22.5s22.5-10.093,22.5-22.5s-10.094-22.5-22.5-22.5
		S233.5,422.343,233.5,434.75z M263.5,434.75c0,4.136-3.364,7.5-7.5,7.5s-7.5-3.364-7.5-7.5s3.364-7.5,7.5-7.5
		C260.136,427.25,263.5,430.614,263.5,434.75z"/>
	<polygon style="fill:#1D1D1F;" points="226.225,292.186 219.203,390.5 212,390.5 212,405.5 218.132,405.5 214.885,450.966 
		229.848,452.034 233.171,405.5 278.829,405.5 282.152,452.034 297.115,450.966 293.868,405.5 300,405.5 300,390.5 292.797,390.5 
		285.775,292.186 270.813,293.254 277.758,390.5 234.242,390.5 241.188,293.254 	"/>
</g>
<g>
</g>
<g>
</g>
<g>
</g>
<g>
</g>
<g>
</g>
<g>
</g>
<g>
</g>
<g>
</g>
<g>
</g>
<g>
</g>
<g>
</g>
<g>
</g>
<g>
</g>
<g>
</g>
<g>
</g>
</svg>
