<?xml version="1.0" encoding="iso-8859-1"?>
<!-- Generator: Adobe Illustrator 19.0.0, SVG Export Plug-In . SVG Version: 6.00 Build 0)  -->
<svg version="1.1" id="Capa_1" xmlns="http://www.w3.org/2000/svg" xmlns:xlink="http://www.w3.org/1999/xlink" x="0px" y="0px"
	 viewBox="0 0 512 512" style="enable-background:new 0 0 512 512;" xml:space="preserve">
<circle style="fill:#FFFFFF;" cx="264.56" cy="188.5" r="151.5"/>
<g>
	<circle style="fill:#D8D7DA;" cx="282.06" cy="188.5" r="31.949"/>
	<path style="fill:#D8D7DA;" d="M280.634,73.262c-63.644,0-115.238,51.594-115.238,115.238s51.594,115.238,115.238,115.238
		S395.871,252.144,395.871,188.5S344.278,73.262,280.634,73.262z M280.634,262.943c-41.114,0-74.443-33.329-74.443-74.443
		s33.329-74.443,74.443-74.443s74.443,33.329,74.443,74.443S321.747,262.943,280.634,262.943z"/>
	<path style="fill:#D8D7DA;" d="M145.008,188.5c0-78.275,59.364-142.681,135.526-150.662C275.284,37.288,269.956,37,264.56,37
		c-83.671,0-151.5,67.829-151.5,151.5S180.888,340,264.559,340c5.396,0,10.724-0.287,15.974-0.838
		C204.372,331.181,145.008,266.775,145.008,188.5z"/>
</g>
<path style="fill:#FF7956;" d="M264.559,73.262c-63.644,0-115.238,51.594-115.238,115.238s51.594,115.238,115.238,115.238
	S379.797,252.144,379.797,188.5S328.204,73.262,264.559,73.262z M264.559,262.943c-41.114,0-74.443-33.329-74.443-74.443
	s33.329-74.443,74.443-74.443s74.443,33.329,74.443,74.443S305.673,262.943,264.559,262.943z"/>
<g>
	<path style="fill:#FF3F62;" d="M274.561,262.255c3.273,0.44,6.607,0.688,10.001,0.688c41.114,0,74.443-33.329,74.443-74.443
		s-33.329-74.443-74.443-74.443c-3.394,0-6.728,0.248-10.001,0.688c36.381,4.889,64.442,36.035,64.442,73.755
		S310.942,257.367,274.561,262.255z"/>
	<path style="fill:#FF3F62;" d="M169.324,188.5c0-60.274,46.277-109.731,105.237-114.801c-3.297-0.284-6.631-0.437-10.001-0.437
		c-63.644,0-115.238,51.594-115.238,115.238s51.594,115.238,115.238,115.238c3.37,0,6.704-0.153,10.001-0.437
		C215.601,298.231,169.324,248.774,169.324,188.5z"/>
</g>
<circle style="fill:#FF7956;" cx="264.56" cy="188.5" r="31.949"/>
<path style="fill:#FF3F62;" d="M248.685,188.5c0-14.869,10.158-27.364,23.912-30.928c-2.568-0.665-5.261-1.021-8.037-1.021
	c-17.645,0-31.949,14.304-31.949,31.949s14.304,31.949,31.949,31.949c2.776,0,5.469-0.355,8.037-1.021
	C258.842,215.864,248.685,203.369,248.685,188.5z"/>
<g>
	<rect x="232.61" y="340" style="fill:#FFB655;" width="63.897" height="163.91"/>
	<polygon style="fill:#FFB655;" points="485.564,504.5 411.781,504.5 313.902,334.968 369.239,303.02 	"/>
	<rect x="232.61" y="7.5" style="fill:#FFB655;" width="63.897" height="29.535"/>
</g>
<rect x="232.61" y="7.5" style="fill:#FF7956;" width="23.389" height="29.535"/>
<polygon style="fill:#FFB655;" points="43.555,504.5 117.337,504.5 215.217,334.968 159.88,303.02 "/>
<g>
	<polygon style="fill:#FF7956;" points="159.88,303.02 43.555,504.5 75.504,504.5 183.841,316.854 	"/>
	<rect x="232.61" y="340" style="fill:#FF7956;" width="31.949" height="163.91"/>
	<polygon style="fill:#FF7956;" points="377.226,316.854 369.239,303.02 313.902,334.968 411.781,504.5 443.73,504.5 
		345.851,334.968 	"/>
</g>
<g>
	<polygon style="fill:#FFFFFF;" points="48.311,214.015 56.826,188.5 49.962,164.636 90.195,164.636 97.059,188.5 88.544,214.015 	
		"/>
	<polygon style="fill:#FFFFFF;" points="23.936,123.812 32.452,98.296 25.588,74.432 65.821,74.432 72.685,98.296 64.17,123.812 	
		"/>
</g>
<g>
	<polygon style="fill:#D8D7DA;" points="71.295,164.636 49.962,164.636 56.826,188.5 48.311,214.015 69.644,214.015 78.159,188.5 	
		"/>
	<polygon style="fill:#D8D7DA;" points="46.921,74.432 25.588,74.432 32.452,98.296 23.936,123.812 45.27,123.812 53.785,98.296 	
		"/>
</g>
<g>
	<path style="fill:#FFFFFF;" d="M264.519,101.5c4.61,0,9.237,0.365,13.751,1.085l2.363-14.813
		c-5.293-0.844-10.715-1.272-16.114-1.272V101.5z"/>
	<path style="fill:#FFFFFF;" d="M316.006,100.471l-7.594,12.937c19.834,11.642,34.522,31.004,40.299,53.124l14.514-3.79
		C356.451,136.805,339.24,114.109,316.006,100.471z"/>
	<path style="fill:#FFFFFF;" d="M300.24,109.176l6.182-13.667c-4.91-2.221-10.033-4.061-15.229-5.47l-3.926,14.477
		C291.692,105.716,296.057,107.284,300.24,109.176z"/>
	
		<rect x="125.043" y="368.939" transform="matrix(0.866 0.5 -0.5 0.866 217.7641 -12.6801)" style="fill:#FFFFFF;" width="15" height="62.129"/>
	
		<rect x="149.321" y="350.42" transform="matrix(-0.866 -0.5 0.5 -0.866 113.6676 746.2967)" style="fill:#FFFFFF;" width="15" height="15"/>
	
		<rect x="161.821" y="328.77" transform="matrix(-0.866 -0.5 0.5 -0.866 147.818 712.1477)" style="fill:#FFFFFF;" width="15" height="15"/>
</g>
<g>
	<path style="fill:#1D1D1F;" d="M205.634,271.746l8.678-12.235c-16.767-11.893-28.838-29.316-33.989-49.061l-14.515,3.787
		C171.849,237.391,185.992,257.815,205.634,271.746z"/>
	<polygon style="fill:#1D1D1F;" points="240.071,15 288.968,15 288.968,25.035 303.968,25.035 303.968,0 225.071,0 225.071,25.035 
		240.071,25.035 	"/>
	<rect x="264.69" y="446.95" style="fill:#1D1D1F;" width="15" height="15"/>
	<rect x="264.69" y="471.95" style="fill:#1D1D1F;" width="15" height="15"/>
	<rect x="264.69" y="421.95" style="fill:#1D1D1F;" width="15" height="15"/>
	
		<rect x="352.214" y="328.791" transform="matrix(0.5 0.866 -0.866 0.5 471.0873 -143.3769)" style="fill:#1D1D1F;" width="15" height="15"/>
	
		<rect x="365.442" y="392.48" transform="matrix(-0.5 -0.866 0.866 -0.5 248.3736 943.3558)" style="fill:#1D1D1F;" width="62.129" height="15"/>
	
		<rect x="364.713" y="350.441" transform="matrix(0.5 0.866 -0.866 0.5 496.0859 -143.3764)" style="fill:#1D1D1F;" width="15" height="15"/>
	<path style="fill:#1D1D1F;" d="M93.907,221.516L102.423,196h162.096v-15H102.666l-6.864-23.864H39.96l8.974,31.199L37.86,221.516
		H93.907z M83.1,206.516H58.68L62.189,196h24.42L83.1,206.516z M84.508,172.136l2.55,8.864H62.433l-2.55-8.864H84.508z"/>
	<path style="fill:#1D1D1F;" d="M69.533,131.312l8.515-25.516h162.361v-15H78.292l-6.864-23.864H15.586l8.974,31.199l-11.073,33.181
		H69.533z M58.725,116.312H34.306l3.509-10.516h24.42L58.725,116.312z M60.134,81.932l2.55,8.864H38.058l-2.55-8.864H60.134z"/>
	<polygon style="fill:#1D1D1F;" points="112.967,497 98.151,497 123.505,453.085 110.515,445.585 80.83,497 56.505,497 
		158.029,321.156 145.038,313.656 30.525,512 121.627,512 213.046,353.658 200.056,346.158 	"/>
	<polygon style="fill:#1D1D1F;" points="288.968,496.405 240.071,496.405 240.071,357.003 225.071,357.003 225.071,511.405 
		303.968,511.405 303.968,357.003 288.968,357.003 	"/>
	<polygon style="fill:#1D1D1F;" points="384,313.657 371.01,321.157 472.533,497 448.208,497 418.523,445.585 405.533,453.085 
		430.887,497 416.071,497 328.982,346.158 315.992,353.658 407.411,512 498.513,512 	"/>
	<path style="fill:#1D1D1F;" d="M123.6,114.815c-8.634,16.48-14.25,34.212-16.692,52.703l14.871,1.964
		c2.21-16.739,7.294-32.79,15.108-47.706L123.6,114.815z"/>
	<path style="fill:#1D1D1F;" d="M264.519,44.5c79.401,0,144,64.598,144,144s-64.599,144-144,144
		c-71.982,0-133.351-53.73-142.749-124.981l-14.871,1.962c5,37.904,23.608,72.786,52.399,98.221
		c25.242,22.3,56.766,35.888,90.054,39.069v60.895h15v-60.168c0.056,0,0.111,0.002,0.167,0.002c87.673,0,159-71.327,159-159
		s-71.327-159-159-159c-40.73,0-79.475,15.392-109.095,43.341l10.294,10.91C192.544,58.439,227.632,44.5,264.519,44.5z"/>
	<path style="fill:#1D1D1F;" d="M143.627,209.793c10.287,58.781,61.129,101.445,120.892,101.445
		c67.678,0,122.737-55.06,122.737-122.738S332.197,65.762,264.519,65.762c-15.617,0-30.838,2.897-45.242,8.612l5.531,13.942
		c12.636-5.013,25.996-7.555,39.71-7.555c59.406,0,107.737,48.331,107.737,107.738s-48.331,107.738-107.737,107.738
		c-52.46,0-97.089-37.443-106.117-89.031L143.627,209.793z"/>
	<path style="fill:#1D1D1F;" d="M185.591,166.489l14.45,4.022c8.024-28.824,34.538-48.955,64.478-48.955
		c36.913,0,66.943,30.031,66.943,66.943s-30.03,66.943-66.943,66.943c-29.94,0-56.454-20.131-64.478-48.955l-14.45,4.022
		c9.823,35.287,42.279,59.932,78.928,59.932c45.184,0,81.943-36.76,81.943-81.943s-36.76-81.943-81.943-81.943
		C227.87,106.557,195.414,131.202,185.591,166.489z"/>
	<path style="fill:#1D1D1F;" d="M167.193,113.723c-12.02,15.622-20.166,34.116-23.558,53.483l14.775,2.588
		c2.975-16.989,10.123-33.216,20.671-46.925L167.193,113.723z"/>
	<path style="fill:#1D1D1F;" d="M264.519,212.949c-7.439,0-14.387-3.334-19.061-9.148l-11.69,9.399
		c7.537,9.373,18.745,14.749,30.751,14.749c21.752,0,39.448-17.697,39.448-39.449s-17.696-39.449-39.448-39.449
		c-12.006,0-23.215,5.376-30.751,14.749l11.69,9.399c4.674-5.814,11.622-9.148,19.061-9.148c13.48,0,24.448,10.968,24.448,24.449
		S278,212.949,264.519,212.949z"/>
</g>
<g>
</g>
<g>
</g>
<g>
</g>
<g>
</g>
<g>
</g>
<g>
</g>
<g>
</g>
<g>
</g>
<g>
</g>
<g>
</g>
<g>
</g>
<g>
</g>
<g>
</g>
<g>
</g>
<g>
</g>
</svg>
