<?xml version="1.0" encoding="iso-8859-1"?>
<!-- Generator: Adobe Illustrator 19.0.0, SVG Export Plug-In . SVG Version: 6.00 Build 0)  -->
<svg version="1.1" id="Capa_1" xmlns="http://www.w3.org/2000/svg" xmlns:xlink="http://www.w3.org/1999/xlink" x="0px" y="0px"
	 viewBox="0 0 512 512" style="enable-background:new 0 0 512 512;" xml:space="preserve">
<polygon style="fill:#FF7956;" points="256,312.607 447.893,504.5 504.5,504.5 504.5,447.893 312.607,256 "/>
<polygon style="fill:#FFB655;" points="65.208,472.643 39.357,446.792 139.25,344.75 167.25,372.75 "/>
<polygon style="fill:#FF7956;" points="63.592,446.792 151.496,356.996 139.25,344.75 39.357,446.792 65.208,472.643 
	77.455,460.655 "/>
<circle style="fill:#FFE477;" cx="33.75" cy="478.25" r="26.25"/>
<path style="fill:#FFB655;" d="M26.25,478.25c0-11.193,7.009-20.745,16.875-24.519C40.213,452.616,37.054,452,33.75,452
	C19.253,452,7.5,463.753,7.5,478.25s11.753,26.25,26.25,26.25c3.304,0,6.463-0.616,9.375-1.731
	C33.259,498.995,26.25,489.443,26.25,478.25z"/>
<polygon style="fill:#FFE477;" points="264.582,371.367 232.28,389.231 196.737,353.688 196.737,315.263 158.312,315.263 
	122.769,279.72 140.633,247.418 115.78,222.565 86.327,291.827 220.173,425.673 289.435,396.22 "/>
<g>
	<polygon style="fill:#FFB655;" points="255.907,389.231 272.996,379.781 264.582,371.367 247.494,380.817 	"/>
	<polygon style="fill:#FFB655;" points="109.954,291.827 132.358,239.143 115.78,222.565 86.327,291.827 220.173,425.673 
		236.751,418.623 	"/>
</g>
<polygon style="fill:#C6C5CA;" points="447.893,7.5 149.221,306.172 158.312,315.263 196.737,315.263 196.737,353.688 
	205.828,362.779 504.5,64.107 504.5,7.5 "/>
<g>
	<polygon style="fill:#898890;" points="477.435,7.5 447.893,7.5 149.221,306.172 158.312,315.263 187.854,315.263 178.763,306.172 
			"/>
	<polygon style="fill:#898890;" points="226.279,315.263 196.737,315.263 196.737,353.688 205.828,362.779 226.279,342.328 	"/>
</g>
<polygon style="fill:#FF7956;" points="256,199.393 205.828,149.221 196.737,158.312 196.737,196.737 158.312,196.737 
	149.221,205.828 199.393,256 "/>
<g>
	<polygon style="fill:#FF3F62;" points="327.378,270.771 312.607,256 256,312.607 447.893,504.5 477.435,504.5 285.542,312.607 	"/>
	<polygon style="fill:#FF3F62;" points="226.279,169.672 205.828,149.221 196.737,158.312 196.737,196.737 226.279,196.737 	"/>
	<polygon style="fill:#FF3F62;" points="178.763,205.828 187.854,196.737 158.312,196.737 149.221,205.828 199.393,256 
		214.164,241.229 	"/>
</g>
<g>
	<polygon style="fill:#C6C5CA;" points="221.175,221.175 221.175,182.749 230.266,173.658 205.828,149.221 196.737,158.312 
		196.737,196.737 158.312,196.737 149.221,205.828 173.658,230.266 182.749,221.175 	"/>
	<polygon style="fill:#C6C5CA;" points="476.447,419.84 476.447,476.447 419.84,476.447 447.893,504.5 504.5,504.5 504.5,447.893 	
		"/>
</g>
<g>
	<polygon style="fill:#898890;" points="178.763,205.828 187.854,196.737 158.312,196.737 149.221,205.828 173.658,230.266 
		182.749,221.175 194.109,221.175 	"/>
	<polygon style="fill:#898890;" points="419.84,476.447 447.893,504.5 477.435,504.5 449.382,476.447 	"/>
</g>
<g>
	
		<rect x="462.214" y="63.787" transform="matrix(0.7071 0.7071 -0.7071 0.7071 187.9832 -311.2582)" style="fill:#FFFFFF;" width="15" height="15"/>
	
		<rect x="444.534" y="81.469" transform="matrix(0.7071 0.7071 -0.7071 0.7071 195.3083 -293.5782)" style="fill:#FFFFFF;" width="15" height="15"/>
	
		<rect x="396.089" y="86.408" transform="matrix(0.7071 0.7071 -0.7071 0.7071 215.3808 -245.1303)" style="fill:#FFFFFF;" width="15" height="102.029"/>
	
		<rect x="338.293" y="318.587" transform="matrix(0.7071 0.7071 -0.7071 0.7071 331.8585 -149.0041)" style="fill:#FFFFFF;" width="15" height="15"/>
	
		<rect x="343.919" y="365.366" transform="matrix(-0.7071 -0.7071 0.7071 -0.7071 406.5086 914.1136)" style="fill:#FFFFFF;" width="97.309" height="15"/>
	
		<rect x="320.613" y="300.91" transform="matrix(0.7071 0.7071 -0.7071 0.7071 314.1806 -141.6799)" style="fill:#FFFFFF;" width="15" height="15"/>
</g>
<g>
	<rect x="26" y="470.75" style="fill:#1D1D1F;" width="15" height="15"/>
	<path style="fill:#1D1D1F;" d="M444.786,0L149.221,295.565l-17.156-17.156l17.863-32.303l-36.702-36.701L77.444,293.55
		l51.256,51.256l-97.715,99.817C13.664,446.035,0,460.572,0,478.25C0,496.86,15.14,512,33.75,512
		c17.678,0,32.215-13.664,33.627-30.984l99.817-97.715l51.256,51.256l84.145-35.783l-36.701-36.702l-32.303,17.863l-17.156-17.156
		L512,67.214V0H444.786z M450.999,15h35.394L193.631,307.763h-32.213l-1.591-1.591L450.999,15z M91.334,404.418l7.609-7.773
		l16.412,16.412l-7.773,7.609L91.334,404.418z M96.863,431.16l-7.772,7.609L73.232,422.91l7.609-7.772L96.863,431.16z
		 M109.436,385.926l7.609-7.772l16.802,16.802l-7.772,7.609L109.436,385.926z M62.738,433.629l15.634,15.634l-13.107,12.831
		l-6.923-6.923c-0.488-0.52-0.992-1.024-1.512-1.512l-6.923-6.923L62.738,433.629z M33.75,497C23.411,497,15,488.589,15,478.25
		s8.411-18.75,18.75-18.75c4.926,0,9.401,1.924,12.75,5.042l0.958,0.958c3.117,3.35,5.042,7.824,5.042,12.75
		C52.5,488.589,44.089,497,33.75,497z M144.566,384.462l-17.027-17.027l11.768-12.021l17.28,17.28L144.566,384.462z
		 M230.969,398.526l32.302-17.863l13.004,13.003l-54.377,23.125l-58.041-58.041l18.197-18.197l-10.606-10.606l-18.197,18.197
		L95.21,290.103l23.125-54.377l13.003,13.003l-17.863,32.303l41.731,41.731l0,0l0,0h34.032v34.032l0,0l0,0L230.969,398.526z
		 M205.828,352.173l-1.591-1.591v-32.213L497,25.607v35.394L205.828,352.173z"/>
	
		<rect x="226.763" y="241.292" transform="matrix(-0.7071 -0.7071 0.7071 -0.7071 223.9895 590.3629)" style="fill:#1D1D1F;" width="15" height="15"/>
	
		<rect x="209.097" y="258.965" transform="matrix(-0.7071 -0.7071 0.7071 -0.7071 181.3351 608.0408)" style="fill:#1D1D1F;" width="15" height="15"/>
	
		<rect x="191.414" y="276.635" transform="matrix(-0.7071 -0.7071 0.7071 -0.7071 138.6536 625.7015)" style="fill:#1D1D1F;" width="15" height="15"/>
	<path style="fill:#1D1D1F;" d="M321.446,275.445l147.501,147.501v46.001h-46.001l-15.072-15.072l12.43-12.43l-10.607-10.606
		l-12.429,12.429L285.022,331.024l22.614-22.614l-10.607-10.606l-33.22,33.22L444.786,512H512v-67.214L332.054,264.839
		L321.446,275.445z M497,497h-46.001l-13.053-13.053h46.001v-46.001L497,450.999V497z"/>
	
		<rect x="33.292" y="30.101" transform="matrix(-0.7071 -0.7071 0.7071 -0.7071 43.0481 93.0322)" style="fill:#1D1D1F;" width="15" height="15"/>
	
		<rect x="108.556" y="48.929" transform="matrix(0.7071 -0.7071 0.7071 0.7071 -45.8147 115.1207)" style="fill:#1D1D1F;" width="15" height="127.869"/>
	
		<rect x="50.969" y="47.784" transform="matrix(0.7071 -0.7071 0.7071 0.7071 -21.9667 57.5361)" style="fill:#1D1D1F;" width="15" height="15"/>
	
		<rect x="24.021" y="114.207" transform="matrix(0.7071 0.7071 -0.7071 0.7071 111.2824 -25.2455)" style="fill:#1D1D1F;" width="124.189" height="15"/>
	
		<rect x="138.328" y="96.357" transform="matrix(0.7071 -0.7071 0.7071 0.7071 -30.7259 133.5352)" style="fill:#1D1D1F;" width="15" height="15"/>
	
		<rect x="156.005" y="114.027" transform="matrix(0.7071 -0.7071 0.7071 0.7071 -38.043 151.2101)" style="fill:#1D1D1F;" width="15" height="15"/>
	
		<rect x="120.647" y="78.683" transform="matrix(-0.7071 -0.7071 0.7071 -0.7071 157.8202 237.7367)" style="fill:#1D1D1F;" width="15" height="15"/>
	<polygon style="fill:#1D1D1F;" points="138.614,205.828 179.947,247.161 190.554,236.555 184.265,230.266 185.855,228.675 
		205.934,228.675 205.934,213.675 179.643,213.675 173.658,219.659 159.827,205.828 161.418,204.237 204.237,204.237 
		204.237,161.418 205.828,159.827 219.659,173.658 213.675,179.643 213.675,205.934 228.675,205.934 228.675,185.855 
		230.266,184.265 236.555,190.554 247.161,179.947 205.828,138.614 189.237,155.205 189.237,189.237 155.205,189.237 	"/>
</g>
<g>
</g>
<g>
</g>
<g>
</g>
<g>
</g>
<g>
</g>
<g>
</g>
<g>
</g>
<g>
</g>
<g>
</g>
<g>
</g>
<g>
</g>
<g>
</g>
<g>
</g>
<g>
</g>
<g>
</g>
</svg>
