<?xml version="1.0" encoding="iso-8859-1"?>
<!-- Generator: Adobe Illustrator 19.0.0, SVG Export Plug-In . SVG Version: 6.00 Build 0)  -->
<svg version="1.1" id="Capa_1" xmlns="http://www.w3.org/2000/svg" xmlns:xlink="http://www.w3.org/1999/xlink" x="0px" y="0px"
	 viewBox="0 0 512 512" style="enable-background:new 0 0 512 512;" xml:space="preserve">
<polygon style="fill:#FF7956;" points="380.629,504.5 380.635,347.567 345.854,312.786 65.934,312.786 31.152,347.567 31.152,504.5 
	"/>
<g>
	<rect x="314.54" y="380.19" style="fill:#FF3F62;" width="32.652" height="124.31"/>
	<polygon style="fill:#FF3F62;" points="104.465,312.786 65.934,312.786 31.152,347.567 31.152,504.5 69.683,504.5 69.683,347.567 	
		"/>
</g>
<path style="fill:#FF7956;" d="M205.891,447.593c-39.942,0-77.194-11.499-108.64-31.359V504.5h217.285v-88.269
	C283.09,436.093,245.836,447.593,205.891,447.593z"/>
<g>
	<path style="fill:#FF3F62;" d="M244.422,447.593c24.64,0,48.253-4.381,70.114-12.397V416.23
		c-26.331,16.631-56.735,27.394-89.38,30.458C231.499,447.284,237.923,447.593,244.422,447.593z"/>
	<path style="fill:#FF3F62;" d="M97.251,416.235V504.5h38.531v-69.301C122.204,430.221,109.3,423.844,97.251,416.235z"/>
</g>
<rect x="104.97" y="165.47" style="fill:#FFB655;" width="201.84" height="24.375"/>
<rect x="104.97" y="165.47" style="fill:#FF7956;" width="44.03" height="24.375"/>
<polygon style="fill:#FFE477;" points="299.63,30.786 252.762,88.407 205.893,30.786 159.026,88.407 112.161,30.786 
	112.161,165.469 299.63,165.469 "/>
<g>
	<polygon style="fill:#FFB655;" points="204.146,102.322 222.009,124.285 239.874,102.322 222.009,80.359 	"/>
	<polygon style="fill:#FFB655;" points="280.294,88.407 299.63,64.634 299.63,30.786 266.528,71.483 	"/>
	<polygon style="fill:#FFB655;" points="186.557,88.407 219.659,47.71 205.893,30.786 172.792,71.482 	"/>
	<polygon style="fill:#FFB655;" points="112.161,30.786 112.161,165.469 139.693,165.469 139.693,64.637 	"/>
</g>
<polygon style="fill:#FF7956;" points="188.031,102.322 205.895,124.285 223.759,102.322 205.895,80.359 "/>
<polygon style="fill:#FF3F62;" points="204.031,102.322 213.895,90.195 205.895,80.359 188.031,102.322 205.895,124.285 
	213.895,114.45 "/>
<g>
	<circle style="fill:#FFB655;" cx="112.16" cy="19.14" r="11.643"/>
	<circle style="fill:#FFB655;" cx="205.9" cy="19.14" r="11.643"/>
	<circle style="fill:#FFB655;" cx="299.63" cy="19.14" r="11.643"/>
</g>
<path style="fill:#FFDAAA;" d="M117.111,189.844c-3.066,9.254-4.731,19.148-4.731,29.431c0,51.645,41.866,93.511,93.511,93.511
	s93.511-41.866,93.511-93.511c0-10.283-1.665-20.176-4.731-29.431L117.111,189.844L117.111,189.844z"/>
<path style="fill:#FF9478;" d="M142.013,219.275c0-10.283,1.665-20.176,4.731-29.431h-29.633
	c-3.066,9.254-4.731,19.148-4.731,29.431c0,51.645,41.866,93.511,93.511,93.511c5.043,0,9.99-0.404,14.816-1.173
	C176.104,304.512,142.013,265.877,142.013,219.275z"/>
<path style="fill:#FFFFFF;" d="M380.635,347.567l-34.782-34.782H65.934l-34.782,34.782v1.12
	c35.637,59.257,100.555,98.906,174.739,98.906c74.188,0,139.109-39.653,174.745-98.915V347.567z"/>
<g>
	<polygon style="fill:#D8D7DA;" points="288.954,360.268 166.669,360.268 128.44,312.786 327.183,312.786 	"/>
	<circle style="fill:#D8D7DA;" cx="228.729" cy="374.97" r="14.7"/>
	<path style="fill:#D8D7DA;" d="M80.794,348.688v-1.12l34.782-34.782H65.934l-34.782,34.782v1.12
		c35.637,59.257,100.555,98.906,174.739,98.906c8.403,0,16.685-0.514,24.821-1.502C167.02,438.355,112.395,401.233,80.794,348.688z"
		/>
</g>
<polygon style="fill:#FFE477;" points="267.033,360.268 144.75,360.268 106.52,312.786 305.262,312.786 "/>
<g>
	<polygon style="fill:#FFB655;" points="106.52,312.786 144.75,360.268 191.641,360.268 153.41,312.786 	"/>
	<circle style="fill:#FFB655;" cx="206.81" cy="374.97" r="14.7"/>
</g>
<polygon style="fill:#FFE477;" points="480.848,246.793 442.957,249.995 446.16,212.104 417.335,212.104 420.538,249.995 
	382.647,246.793 382.647,275.617 420.538,272.415 417.335,310.305 446.16,310.305 442.957,272.415 480.848,275.617 "/>
<g>
	<polygon style="fill:#FFB655;" points="432.038,249.995 428.835,212.104 417.335,212.104 420.454,249.016 	"/>
	<polygon style="fill:#FFB655;" points="454.457,249.995 480.848,247.765 480.848,246.793 454.54,249.016 	"/>
	<polygon style="fill:#FFB655;" points="394.147,247.765 382.647,246.793 382.647,275.617 394.147,274.645 	"/>
	<polygon style="fill:#FFB655;" points="420.454,273.394 417.335,310.305 428.835,310.305 432.038,272.415 	"/>
	<polygon style="fill:#FFB655;" points="454.457,272.415 454.54,273.394 480.848,275.617 480.848,274.645 	"/>
	<rect x="408.54" y="310.31" style="fill:#FFB655;" width="46.42" height="20.361"/>
</g>
<g>
	<rect x="408.54" y="310.31" style="fill:#FF7956;" width="20.361" height="20.361"/>
	<rect x="418.329" y="330.67" style="fill:#FF7956;" width="26.824" height="173.83"/>
</g>
<rect x="418.329" y="330.67" style="fill:#FF3F62;" width="13.412" height="173.83"/>
<g>
	<path style="fill:#FFFFFF;" d="M276.898,219.91l-14.999-0.133c-0.04,4.426-0.6,8.83-1.665,13.087l14.552,3.64
		C276.139,231.102,276.85,225.518,276.898,219.91z"/>
	<path style="fill:#FFFFFF;" d="M271.221,247.102l-13.793-5.896c-1.729,4.045-3.943,7.894-6.583,11.439l12.032,8.957
		C266.223,257.11,269.03,252.231,271.221,247.102z"/>
	<path style="fill:#FFFFFF;" d="M215.51,274.459l2.568,14.778c14.164-2.461,27.116-9.112,37.457-19.232l-10.492-10.72
		C236.883,267.273,226.671,272.52,215.51,274.459z"/>
	<rect x="179.139" y="327.17" style="fill:#FFFFFF;" width="15" height="15"/>
	<rect x="154.139" y="327.17" style="fill:#FFFFFF;" width="15" height="15"/>
	<rect x="204.139" y="327.17" style="fill:#FFFFFF;" width="55.33" height="15"/>
	<rect x="262.62" y="137.38" style="fill:#FFFFFF;" width="22.333" height="15"/>
	<rect x="237.62" y="137.38" style="fill:#FFFFFF;" width="15" height="15"/>
	<rect x="212.62" y="137.38" style="fill:#FFFFFF;" width="15" height="15"/>
</g>
<g>
	<path style="fill:#1D1D1F;" d="M233.427,102.322l-27.533-33.849l-27.53,33.849l27.53,33.849L233.427,102.322z M205.895,92.245
		l8.197,10.077l-8.197,10.077l-8.196-10.077L205.895,92.245z"/>
	<path style="fill:#1D1D1F;" d="M104.661,36.752v121.217h-7.187v39.375h216.844v-39.375h-7.188V36.751
		c6.836-2.924,11.64-9.714,11.64-17.608C318.771,8.587,310.183,0,299.627,0s-19.143,8.587-19.143,19.143
		c0,5.928,2.709,11.234,6.953,14.748l-34.676,42.631L218.086,33.89c4.244-3.514,6.953-8.82,6.953-14.748
		C225.039,8.587,216.451,0,205.896,0s-19.143,8.587-19.143,19.143c0,5.926,2.708,11.231,6.949,14.745l-34.676,42.634L124.352,33.89
		c4.243-3.514,6.952-8.82,6.952-14.747C131.303,8.587,122.716,0,112.161,0S93.018,8.587,93.018,19.143
		C93.018,27.037,97.823,33.828,104.661,36.752z M299.318,182.344H112.474v-9.375h186.844V182.344z M299.627,15
		c2.285,0,4.143,1.858,4.143,4.143s-1.858,4.143-4.143,4.143s-4.143-1.858-4.143-4.143S297.342,15,299.627,15z M205.896,15
		c2.285,0,4.143,1.858,4.143,4.143s-1.858,4.143-4.143,4.143c-2.284,0-4.143-1.858-4.143-4.143S203.611,15,205.896,15z
		 M205.893,42.671l46.869,57.622l39.369-48.401v106.077h-172.47V51.893l39.365,48.4L205.893,42.671z M112.161,15
		c2.285,0,4.143,1.858,4.143,4.143s-1.858,4.143-4.143,4.143c-2.284,0-4.143-1.858-4.143-4.143
		C108.018,16.858,109.876,15,112.161,15z"/>
	<path style="fill:#1D1D1F;" d="M258.798,305.286c28.841-17.806,48.104-49.699,48.104-86.011c0-3.313-0.173-6.643-0.528-10.18
		l-14.925,1.498c0.305,3.035,0.453,5.875,0.453,8.682c0,47.427-38.584,86.011-86.011,86.011s-86.011-38.584-86.011-86.011
		c0-2.807,0.148-5.647,0.453-8.682l-14.925-1.498c-0.355,3.537-0.528,6.867-0.528,10.18c0,36.312,19.263,68.206,48.104,86.011
		H62.828l-39.175,39.175V512h364.476l0.008-167.539l0,0l0,0l-39.175-39.175H258.798z M289.595,320.286l-26.152,32.482H148.34
		l-26.152-32.482H289.595z M214.008,374.967c0,3.97-3.23,7.2-7.2,7.2s-7.2-3.23-7.2-7.2s3.23-7.199,7.2-7.199
		S214.008,370.997,214.008,374.967z M69.041,320.286h33.889l38.23,47.482h44.655c-0.777,2.259-1.205,4.68-1.205,7.199
		c0,12.241,9.959,22.2,22.2,22.2s22.2-9.959,22.2-22.2c0-2.52-0.428-4.94-1.205-7.199h42.82l38.23-47.482h33.895l28.812,28.812l0,0
		c-36.272,57.079-97.829,90.996-165.668,90.996c-67.835,0-129.393-33.919-165.666-90.992L69.041,320.286z M38.652,497v-37.637
		h30.904v-15H38.652v-71.488c14.29,18.483,31.58,34.557,51.099,47.435v52.875H77.708v15h12.043V497H38.652z M286.958,497v-32.061
		h-15V497h-133v-40.131h-15V497h-19.207v-67.659c22.556,12.316,47.235,20.379,72.704,23.829v27.514h15v-26.021
		c4.465,0.284,8.946,0.43,13.436,0.43c11.127,0,22.198-0.884,33.109-2.611v33.851h15v-36.776
		c18.482-4.31,36.34-11.102,53.036-20.219V497H286.958z M322.036,497v-45.954h8.422v-15h-8.422v-15.74
		c19.519-12.88,36.809-28.954,51.098-47.438L373.129,497H322.036z"/>
	<path style="fill:#1D1D1F;" d="M202.129,410.051c-4.764-0.107-9.582-0.423-14.32-0.94l-1.625,14.912
		c5.165,0.563,10.416,0.907,15.607,1.024L202.129,410.051z"/>
	<path style="fill:#1D1D1F;" d="M253.384,418.783l-3.919-14.479c-4.6,1.245-9.31,2.304-13.999,3.148l2.657,14.763
		C243.234,421.294,248.37,420.14,253.384,418.783z"/>
	<path style="fill:#1D1D1F;" d="M178.331,407.802c-4.703-0.788-9.426-1.789-14.038-2.977l-3.741,14.526
		c5.027,1.294,10.175,2.386,15.301,3.245L178.331,407.802z"/>
	<path style="fill:#1D1D1F;" d="M227.811,423.767l-1.809-14.891c-4.729,0.574-9.542,0.95-14.306,1.115l0.521,14.991
		C217.411,424.802,222.658,424.393,227.811,423.767z"/>
	<path style="fill:#1D1D1F;" d="M348.094,356.229l-11.759-9.313c-2.958,3.734-6.115,7.388-9.385,10.86l10.92,10.284
		C341.433,364.278,344.872,360.297,348.094,356.229z"/>
	<path style="fill:#1D1D1F;" d="M330.509,375.444l-10.316-10.889c-3.463,3.281-7.107,6.45-10.832,9.417l9.348,11.731
		C322.766,382.47,326.736,379.019,330.509,375.444z"/>
	<path style="fill:#1D1D1F;" d="M310.37,391.966l-8.66-12.247c-3.896,2.755-7.954,5.369-12.061,7.771l7.571,12.949
		C301.698,397.82,306.122,394.969,310.37,391.966z"/>
	<path style="fill:#1D1D1F;" d="M85.39,358.366c-3.285-3.454-6.46-7.092-9.438-10.815l-11.713,9.37
		c3.244,4.055,6.703,8.019,10.281,11.782L85.39,358.366z"/>
	<path style="fill:#1D1D1F;" d="M93.767,386.252l9.291-11.776c-3.742-2.952-7.401-6.103-10.878-9.364l-10.264,10.939
		C85.704,379.604,89.691,383.036,93.767,386.252z"/>
	<path style="fill:#1D1D1F;" d="M115.328,400.883l7.508-12.985c-4.119-2.382-8.19-4.977-12.098-7.712l-8.602,12.289
		C106.397,395.457,110.835,398.286,115.328,400.883z"/>
	<rect x="348.96" y="407.7" style="fill:#1D1D1F;" width="15" height="15"/>
	<rect x="348.96" y="432.7" style="fill:#1D1D1F;" width="15" height="15"/>
	<rect x="348.96" y="457.7" style="fill:#1D1D1F;" width="15" height="33.968"/>
	<rect x="128.289" y="116.33" style="fill:#1D1D1F;" width="15" height="33.667"/>
	<path style="fill:#1D1D1F;" d="M488.348,283.777v-45.146l-37.168,3.141l3.141-37.168h-45.146l3.141,37.168l-37.169-3.141v45.146
		l37.169-3.141l-1.873,22.169h-9.406v35.361h61.422v-35.361h-9.406l-1.873-22.169L488.348,283.777z M447.458,323.167h-31.422v-5.361
		h31.422V323.167z M425.496,302.805l3.263-38.612l-38.612,3.263v-12.503l38.612,3.263l-3.263-38.612h12.503l-3.263,38.612
		l38.612-3.263v12.503l-38.612-3.263l3.263,38.612L425.496,302.805L425.496,302.805z"/>
	<polygon style="fill:#1D1D1F;" points="437.66,497 425.835,497 425.835,350.667 410.835,350.667 410.835,512 452.66,512 
		452.66,350.667 437.66,350.667 	"/>
</g>
<g>
</g>
<g>
</g>
<g>
</g>
<g>
</g>
<g>
</g>
<g>
</g>
<g>
</g>
<g>
</g>
<g>
</g>
<g>
</g>
<g>
</g>
<g>
</g>
<g>
</g>
<g>
</g>
<g>
</g>
</svg>
