<?xml version="1.0" encoding="iso-8859-1"?>
<!-- Generator: Adobe Illustrator 19.0.0, SVG Export Plug-In . SVG Version: 6.00 Build 0)  -->
<svg version="1.1" id="Capa_1" xmlns="http://www.w3.org/2000/svg" xmlns:xlink="http://www.w3.org/1999/xlink" x="0px" y="0px"
	 viewBox="0 0 512 512" style="enable-background:new 0 0 512 512;" xml:space="preserve">
<polygon style="fill:#FF7956;" points="406.262,175.689 325.963,220.689 301,136.887 210.998,136.887 186.037,220.689 
	105.738,175.689 24.444,256.983 140.872,373.411 140.872,414.955 218.25,414.955 255.997,436.507 293.744,414.955 371.128,414.955 
	371.128,373.411 487.556,256.983 "/>
<g>
	<polygon style="fill:#FF3F62;" points="348.279,208.183 325.963,220.689 301,136.887 237.039,136.887 212.078,220.689 
		212.078,414.955 244.292,414.955 269.018,429.072 293.744,414.955 352.005,414.955 352.005,220.689 	"/>
	<polygon style="fill:#FF3F62;" points="229.578,220.689 254.539,136.887 210.998,136.887 192.265,199.779 	"/>
	<polygon style="fill:#FF3F62;" points="261.792,414.955 218.25,414.955 255.997,436.507 277.768,424.077 	"/>
	<polygon style="fill:#FF3F62;" points="67.986,256.983 133.642,191.327 105.738,175.689 24.444,256.983 140.872,373.411 
		140.872,414.955 184.414,414.955 184.414,373.411 	"/>
</g>
<polygon style="fill:#57A4FF;" points="210.998,136.887 186.037,220.689 186.037,414.955 218.25,414.955 255.997,436.507 
	293.744,414.955 325.963,414.955 325.963,220.689 301,136.887 "/>
<g>
	<polygon style="fill:#006DF0;" points="242.12,136.887 210.998,136.887 186.037,220.689 186.037,414.955 217.159,414.955 
		217.159,220.689 	"/>
	<polygon style="fill:#006DF0;" points="249.372,414.955 218.25,414.955 255.997,436.507 271.558,427.622 	"/>
	<polygon style="fill:#006DF0;" points="263.549,271.517 248.445,271.517 210.994,136.887 301,136.887 	"/>
</g>
<polygon style="fill:#004FAC;" points="237.039,136.887 210.994,136.887 248.445,271.517 263.549,271.517 269.019,251.854 "/>
<polygon style="fill:#FF5023;" points="24.444,256.983 24.444,452.702 40.843,452.702 117.303,349.842 "/>
<polygon style="fill:#C70024;" points="50.958,283.497 24.444,256.983 24.444,452.702 40.843,452.702 50.958,439.095 "/>
<g>
	<circle style="fill:#FFE477;" cx="256" cy="298.88" r="25.479"/>
	<circle style="fill:#FFE477;" cx="32.979" cy="478.18" r="25.479"/>
</g>
<polygon style="fill:#FF5023;" points="487.556,256.983 487.556,452.702 471.157,452.702 394.697,349.842 "/>
<polygon style="fill:#C70024;" points="425.842,349.842 487.556,288.128 487.556,256.983 394.697,349.842 471.157,452.702 
	487.556,452.702 487.556,432.865 "/>
<circle style="fill:#FFE477;" cx="479.02" cy="478.18" r="25.479"/>
<g>
	<path style="fill:#FFB655;" d="M252.288,298.884c0-10.177,5.969-18.958,14.595-23.04c-3.301-1.562-6.989-2.439-10.884-2.439
		c-14.072,0-25.479,11.407-25.479,25.479s11.407,25.479,25.479,25.479c3.894,0,7.583-0.877,10.884-2.439
		C258.257,317.842,252.288,309.061,252.288,298.884z"/>
	<path style="fill:#FFB655;" d="M29.268,478.181c0-10.177,5.969-18.958,14.595-23.04c-3.301-1.562-6.989-2.439-10.884-2.439
		c-14.072,0-25.479,11.407-25.479,25.479s11.407,25.479,25.479,25.479c3.894,0,7.583-0.877,10.884-2.439
		C35.236,497.139,29.268,488.359,29.268,478.181z"/>
	<path style="fill:#FFB655;" d="M475.309,478.181c0-10.177,5.969-18.958,14.595-23.04c-3.301-1.562-6.989-2.439-10.884-2.439
		c-14.072,0-25.479,11.407-25.479,25.479s11.407,25.479,25.479,25.479c3.894,0,7.583-0.877,10.884-2.439
		C481.278,497.139,475.309,488.359,475.309,478.181z"/>
</g>
<polygon style="fill:#FFFFFF;" points="361.376,8.34 361.376,104.629 412.442,104.629 412.442,125.125 453.434,104.629 
	504.5,104.629 504.5,8.34 "/>
<rect x="361.38" y="8.339" style="fill:#D8D7DA;" width="19.688" height="96.29"/>
<g>
	
		<rect x="370.784" y="320.103" transform="matrix(0.7071 0.7071 -0.7071 0.7071 342.447 -171.5347)" style="fill:#FFFFFF;" width="15" height="15"/>
	
		<rect x="398.947" y="267.403" transform="matrix(-0.7071 0.7071 -0.7071 -0.7071 930.1166 164.5386)" style="fill:#FFFFFF;" width="64.069" height="15"/>
	
		<rect x="388.461" y="302.433" transform="matrix(0.7071 0.7071 -0.7071 0.7071 335.1299 -189.2096)" style="fill:#FFFFFF;" width="15" height="15"/>
	
		<rect x="80.555" y="246.406" transform="matrix(-0.7071 0.7071 -0.7071 -0.7071 345.7367 409.5138)" style="fill:#FFFFFF;" width="15" height="59.91"/>
	
		<rect x="114.112" y="302.417" transform="matrix(-0.7071 0.7071 -0.7071 -0.7071 426.7493 443.0695)" style="fill:#FFFFFF;" width="15" height="15"/>
	
		<rect x="131.796" y="320.094" transform="matrix(-0.7071 -0.7071 0.7071 -0.7071 6.1489 657.7358)" style="fill:#FFFFFF;" width="15" height="15"/>
</g>
<g>
	<rect x="267.04" y="387.77" style="fill:#1D1D1F;" width="15" height="15"/>
	<rect x="292.04" y="387.77" style="fill:#1D1D1F;" width="15" height="15"/>
	<rect x="242.04" y="387.77" style="fill:#1D1D1F;" width="15" height="15"/>
	<path style="fill:#1D1D1F;" d="M223.021,298.884c0,18.185,14.794,32.979,32.979,32.979s32.979-14.794,32.979-32.979
		c0-12.474-6.962-23.351-17.204-28.953L311,129.387H201.083l39.136,140.546C229.981,275.537,223.021,286.412,223.021,298.884z
		 M256,316.863c-9.914,0-17.979-8.065-17.979-17.979s8.065-17.979,17.979-17.979s17.979,8.065,17.979,17.979
		S265.914,316.863,256,316.863z M291.129,144.387l-33.278,119.63h-3.708l-33.278-119.63H291.129z"/>
	<path style="fill:#1D1D1F;" d="M495.056,449.378v-164.11h-15v159.935h-5.129l-62.151-83.61l-12.038,8.948l59.749,80.379
		c-8.712,5.942-14.445,15.944-14.445,27.262c0,18.185,14.794,32.979,32.979,32.979S512,496.366,512,478.181
		C512,465.814,505.154,455.021,495.056,449.378z M479.021,496.161c-9.914,0-17.979-8.065-17.979-17.979s8.065-17.979,17.979-17.979
		S497,468.268,497,478.181C497,488.095,488.935,496.161,479.021,496.161z"/>
	<path style="fill:#1D1D1F;" d="M450.5,361.107h15v-71.461l32.663-32.663L407.55,166.37l-77.074,43.193l-11.552-38.781
		l-14.376,4.282l13.917,46.719v185.672h-26.71l-35.756,20.415l-35.757-20.415h-26.704v-26.544H275v-15h-81.463V221.783l13.913-46.71
		l-14.376-4.282l-11.549,38.772l-77.074-43.193l-90.613,90.613l70.582,70.582l-24.98,33.605l12.038,8.948l23.663-31.833
		l38.232,38.232v45.938h82.888l39.737,22.687l39.737-22.687h82.894v-45.938l71.872-71.872L450.5,361.107L450.5,361.107z
		 M35.05,256.983l71.976-71.975l71.511,40.076v26.581l-32.361-32.361L135.57,229.91l42.968,42.968v93.033H143.98L35.05,256.983z
		 M148.372,407.456v-26.544h30.165v26.544H148.372z M363.628,370.305v37.151h-30.165v-141.11l29.387-29.387l-10.606-10.606
		l-18.781,18.781v-20.049l71.511-40.076l71.976,71.975L363.628,370.305z"/>
	<path style="fill:#1D1D1F;" d="M353.876,0.839v111.29h51.066v25.131l50.262-25.131H512V0.839H353.876z M497,97.129h-45.337
		l-31.721,15.861V97.129h-51.066v-81.29H497V97.129z"/>
	<path style="fill:#1D1D1F;" d="M432.938,88.339c17.92,0,32.5-14.58,32.5-32.5h-15c0,9.649-7.851,17.5-17.5,17.5
		s-17.5-7.851-17.5-17.5h-15C400.438,73.76,415.018,88.339,432.938,88.339z"/>
	<rect x="413.25" y="30.339" style="fill:#1D1D1F;" width="15" height="17.5"/>
	<rect x="437.63" y="30.339" style="fill:#1D1D1F;" width="15" height="17.5"/>
	<path style="fill:#1D1D1F;" d="M99.224,361.592l-62.151,83.61h-5.129V285.267h-15v164.11C6.846,455.021,0,465.814,0,478.181
		c0,18.185,14.794,32.979,32.979,32.979s32.979-14.794,32.979-32.979c0-11.318-5.732-21.32-14.444-27.262l59.749-80.379
		L99.224,361.592z M32.979,496.161c-9.914,0-17.979-8.065-17.979-17.979s8.065-17.979,17.979-17.979s17.979,8.065,17.979,17.979
		C50.958,488.095,42.893,496.161,32.979,496.161z"/>
</g>
<g>
</g>
<g>
</g>
<g>
</g>
<g>
</g>
<g>
</g>
<g>
</g>
<g>
</g>
<g>
</g>
<g>
</g>
<g>
</g>
<g>
</g>
<g>
</g>
<g>
</g>
<g>
</g>
<g>
</g>
</svg>
