<?xml version="1.0" encoding="iso-8859-1"?>
<!-- Generator: Adobe Illustrator 19.0.0, SVG Export Plug-In . SVG Version: 6.00 Build 0)  -->
<svg version="1.1" id="Capa_1" xmlns="http://www.w3.org/2000/svg" xmlns:xlink="http://www.w3.org/1999/xlink" x="0px" y="0px"
	 viewBox="0 0 512 512" style="enable-background:new 0 0 512 512;" xml:space="preserve">
<g>
	<rect x="18" y="340.089" style="fill:#FFB655;" width="476" height="30.575"/>
	<rect x="34.95" y="370.669" style="fill:#FFB655;" width="442.1" height="85.57"/>
</g>
<rect x="34.95" y="370.669" style="fill:#FF7956;" width="60.26" height="85.57"/>
<g>
	<rect x="18" y="456.24" style="fill:#FFE477;" width="476" height="28.575"/>
	<rect x="18" y="340.089" style="fill:#FFE477;" width="476" height="30.575"/>
</g>
<g>
	<rect x="18" y="456.24" style="fill:#FFB655;" width="60.37" height="28.575"/>
	<rect x="18" y="340.089" style="fill:#FFB655;" width="60.37" height="30.575"/>
</g>
<path style="fill:#FF7956;" d="M397.066,340.091c11.312-14.976,18.023-33.621,18.023-53.836c0-49.38-40.03-89.41-89.41-89.41
	c-28.169,0-53.291,13.031-69.679,33.389c-16.388-20.358-41.51-33.389-69.68-33.389c-49.38,0-89.41,40.031-89.41,89.41
	c0,20.214,6.712,38.859,18.023,53.836H397.066z"/>
<path style="fill:#FF3F62;" d="M341.615,198.262c-5.171-0.93-10.496-1.417-15.936-1.417c-28.169,0-53.291,13.031-69.679,33.389
	l-0.003,109.857h31.846l0.003-109.857C301.075,213.801,319.996,202.147,341.615,198.262z"/>
<g>
	<path style="fill:#FF7956;" d="M114.945,340.091c-11.315-14.976-18.035-33.619-18.035-53.836c0-33.094,17.981-61.986,44.705-77.446
		c-13.151-7.608-28.419-11.964-44.705-11.964c-49.38,0-89.41,40.031-89.41,89.41c0,20.214,6.711,38.859,18.023,53.836H114.945z"/>
	<path style="fill:#FF7956;" d="M415.09,286.256c0,20.217-6.72,38.859-18.035,53.836h89.421
		c11.312-14.976,18.023-33.621,18.023-53.836c0-49.38-40.03-89.41-89.41-89.41c-16.286,0-31.554,4.356-44.705,11.964
		C397.109,224.27,415.09,253.162,415.09,286.256z"/>
</g>
<g>
	<path style="fill:#FF3F62;" d="M210.583,200.188c-7.716-2.172-15.852-3.341-24.262-3.341c-49.38,0-89.41,40.031-89.41,89.41
		c0,20.214,6.712,38.859,18.023,53.835h48.553c-11.312-14.976-18.023-33.621-18.023-53.835
		C145.464,245.296,173.007,210.77,210.583,200.188z"/>
	<path style="fill:#FF3F62;" d="M121.172,200.188c-7.716-2.171-15.851-3.342-24.261-3.342c-49.38,0-89.41,40.031-89.41,89.41
		c0,20.214,6.711,38.859,18.023,53.835h48.553c-11.312-14.976-18.023-33.621-18.023-53.835
		C56.053,245.296,83.597,210.771,121.172,200.188z"/>
	<path style="fill:#FF3F62;" d="M418.938,208.811c6.36-3.679,13.218-6.589,20.444-8.623c-7.724-2.176-15.872-3.342-24.292-3.342
		c-16.286,0-31.554,4.356-44.705,11.964c26.724,15.46,44.705,44.352,44.705,77.446c0,20.217-6.72,38.859-18.035,53.835h48.553
		c11.315-14.976,18.035-33.618,18.035-53.835C463.643,253.162,445.662,224.27,418.938,208.811z"/>
</g>
<path style="fill:#FFE477;" d="M186.32,196.845c28.169,0,53.291,13.031,69.68,33.389c16.388-20.358,41.51-33.389,69.679-33.389
	c5.077,0,10.054,0.43,14.9,1.243v-48.229H171.414v48.23C176.262,197.275,181.241,196.845,186.32,196.845z"/>
<g>
	<path style="fill:#FFB655;" d="M221.596,196.845c-5.08,0-10.058,0.43-14.906,1.244v-48.23h-35.275v48.23
		c4.848-0.814,9.827-1.244,14.906-1.244c28.169,0,53.291,13.031,69.68,33.389c5.092-6.326,11.029-11.943,17.638-16.683
		C258.979,203.037,241.012,196.845,221.596,196.845z"/>
	<polygon style="fill:#FFB655;" points="317.332,70.521 270,74.521 274,27.189 237.994,27.189 241.994,74.521 194.662,70.521 
		194.662,106.527 241.994,102.527 237.994,149.859 274,149.859 270,102.527 317.332,106.527 	"/>
</g>
<g>
	<polygon style="fill:#FF7956;" points="258.444,74.521 254.444,27.189 237.994,27.189 241.875,73.12 	"/>
	<polygon style="fill:#FF7956;" points="241.875,103.927 237.994,149.859 254.444,149.859 258.444,102.527 	"/>
	<polygon style="fill:#FF7956;" points="211.112,71.911 194.662,70.521 194.662,106.527 211.112,105.137 	"/>
</g>
<g>
	<rect x="435" y="401.5" style="fill:#FFFFFF;" width="15" height="15"/>
	<rect x="297" y="401.5" style="fill:#FFFFFF;" width="103" height="15"/>
	<rect x="410" y="401.5" style="fill:#FFFFFF;" width="15" height="15"/>
	<path style="fill:#FFFFFF;" d="M342.39,221.458c-5.436-1.402-11.058-2.113-16.71-2.113v15c4.39,0,8.752,0.551,12.964,1.637
		L342.39,221.458z"/>
	<path style="fill:#FFFFFF;" d="M367.39,233.968c-4.408-3.523-9.244-6.478-14.374-8.782l-6.146,13.683
		c3.979,1.788,7.732,4.081,11.155,6.817L367.39,233.968z"/>
	<path style="fill:#FFFFFF;" d="M377.59,286.255h15c0-16.455-6.051-32.282-17.037-44.565l-11.18,10
		C372.896,261.221,377.59,273.495,377.59,286.255z"/>
	<rect x="214.5" y="230.24" style="fill:#FFFFFF;" width="15" height="15"/>
	<rect x="214.5" y="280.24" style="fill:#FFFFFF;" width="15" height="35.625"/>
	<rect x="214.5" y="255.24" style="fill:#FFFFFF;" width="15" height="15"/>
</g>
<g>
	<rect x="101.79" y="419.45" style="fill:#1D1D1F;" width="15" height="15"/>
	<rect x="76.79" y="419.45" style="fill:#1D1D1F;" width="15" height="15"/>
	<rect x="51.79" y="419.45" style="fill:#1D1D1F;" width="15" height="15"/>
	<rect x="469.55" y="390.669" style="fill:#1D1D1F;" width="15" height="45.569"/>
	<rect x="27.45" y="390.669" style="fill:#1D1D1F;" width="15" height="45.569"/>
	<path style="fill:#1D1D1F;" d="M10.501,492.31H501.5v-43.575H10.501V492.31z M25.501,463.735H486.5v13.575H25.501V463.735z"/>
	<path style="fill:#1D1D1F;" d="M65.042,252.783c-5.88,10.14-8.989,21.715-8.989,33.473c0,9.368,1.882,18.402,5.593,26.852
		l13.733-6.032c-2.871-6.537-4.327-13.541-4.327-20.819c0-9.119,2.408-18.091,6.964-25.949L65.042,252.783z"/>
	<path style="fill:#1D1D1F;" d="M512,286.255c0-53.437-43.474-96.91-96.91-96.91c-15.607,0-30.977,3.777-44.728,10.936
		c-13.378-6.981-28.576-10.936-44.682-10.936c-26.522,0-51.462,10.673-69.68,29.559c-18.218-18.885-43.157-29.559-69.68-29.559
		c-16.106,0-31.304,3.954-44.682,10.936c-13.75-7.159-29.121-10.936-44.728-10.936C43.474,189.345,0,232.82,0,286.255
		c0,16.426,4.052,32.201,11.785,46.336h-1.284v45.574H501.5v-45.574h-1.285C507.948,318.458,512,302.682,512,286.255z
		 M415.09,204.345c45.165,0,81.91,36.745,81.91,81.91c0,16.734-4.958,32.675-14.365,46.336h-71.831
		c7.733-14.135,11.786-29.911,11.786-46.336c0-30.955-14.59-58.565-37.253-76.32C394.77,206.264,404.868,204.345,415.09,204.345z
		 M325.68,204.345c45.165,0,81.91,36.745,81.91,81.91c0,16.733-4.958,32.674-14.365,46.336H263.5v-99.645
		C279.112,214.738,301.625,204.345,325.68,204.345z M248.5,232.947v99.644H118.776c-9.407-13.662-14.366-29.603-14.366-46.336
		c0-45.166,36.745-81.91,81.91-81.91C210.375,204.345,232.889,214.738,248.5,232.947z M15,286.255
		c0-45.166,36.745-81.91,81.91-81.91c10.222,0,20.319,1.919,29.753,5.591C104,227.69,89.41,255.3,89.41,286.255
		c0,16.425,4.052,32.201,11.785,46.336h-71.83C19.958,318.93,15,302.99,15,286.255z M486.5,363.167H25.501v-15.574H486.5V363.167z"
		/>
	<path style="fill:#1D1D1F;" d="M467,286.255c0,7.278-1.456,14.283-4.327,20.819l13.734,6.032
		c3.711-8.449,5.593-17.483,5.593-26.852c0-23.834-12.866-46.06-33.577-58.003l-7.494,12.994C457.01,250.52,467,267.766,467,286.255
		z"/>
	<path style="fill:#1D1D1F;" d="M235.667,168.192h-56.752v-10.833H333.08v20.505h15v-35.505h-67.187l-2.671-31.61l46.61,3.939V62.36
		l-46.61,3.939l3.938-46.61h-52.327l3.939,46.61l-46.61-3.939v52.328l46.61-3.939l-2.671,31.61h-67.187v40.833h71.752
		L235.667,168.192L235.667,168.192z M202.162,98.366V78.681l48.054,4.061l-4.061-48.054h19.686l-4.062,48.054l48.054-4.061v19.685
		l-48.054-4.061l4.062,48.054h-19.686l4.061-48.054L202.162,98.366z"/>
</g>
<g>
</g>
<g>
</g>
<g>
</g>
<g>
</g>
<g>
</g>
<g>
</g>
<g>
</g>
<g>
</g>
<g>
</g>
<g>
</g>
<g>
</g>
<g>
</g>
<g>
</g>
<g>
</g>
<g>
</g>
</svg>
