<?xml version="1.0" encoding="iso-8859-1"?>
<!-- Generator: Adobe Illustrator 19.0.0, SVG Export Plug-In . SVG Version: 6.00 Build 0)  -->
<svg version="1.1" id="Capa_1" xmlns="http://www.w3.org/2000/svg" xmlns:xlink="http://www.w3.org/1999/xlink" x="0px" y="0px"
	 viewBox="0 0 512 512" style="enable-background:new 0 0 512 512;" xml:space="preserve">
<rect x="72.67" y="7.5" style="fill:#FF9478;" width="366.67" height="79.5"/>
<rect x="49.25" y="18.795" style="fill:#FF3F62;" width="23.417" height="56.91"/>
<g>
	<circle style="fill:#FFB655;" cx="28.375" cy="47.25" r="20.875"/>
	<circle style="fill:#FFB655;" cx="28.375" cy="47.25" r="20.875"/>
</g>
<rect x="439.33" y="18.795" style="fill:#FF3F62;" width="23.417" height="56.91"/>
<circle style="fill:#FFB655;" cx="483.62" cy="47.25" r="20.875"/>
<rect x="72.67" y="425" style="fill:#FF9478;" width="366.67" height="79.5"/>
<g>
	<rect x="72.67" y="7.5" style="fill:#FF7956;" width="48" height="79.5"/>
	<rect x="72.67" y="425" style="fill:#FF7956;" width="48" height="79.5"/>
</g>
<rect x="91.47" y="87" style="fill:#FFDAAA;" width="329.06" height="338"/>
<rect x="91.47" y="87" style="fill:#FF9478;" width="53.863" height="338"/>
<rect x="49.25" y="436.3" style="fill:#FF3F62;" width="23.417" height="56.91"/>
<circle style="fill:#FFB655;" cx="28.375" cy="464.75" r="20.875"/>
<rect x="439.33" y="436.3" style="fill:#FF3F62;" width="23.417" height="56.91"/>
<circle style="fill:#FFB655;" cx="483.62" cy="464.75" r="20.875"/>
<g>
	<path style="fill:#FF7956;" d="M483.625,68.125c3.129,0,6.086-0.708,8.75-1.941c-7.152-3.312-12.125-10.534-12.125-18.934
		s4.973-15.622,12.125-18.934c-2.664-1.234-5.621-1.941-8.75-1.941c-11.529,0-20.875,9.346-20.875,20.875
		S472.096,68.125,483.625,68.125z"/>
	<path style="fill:#FF7956;" d="M28.375,68.125c3.129,0,6.086-0.708,8.75-1.941C29.973,62.872,25,55.65,25,47.25
		s4.973-15.622,12.125-18.934c-2.664-1.234-5.621-1.941-8.75-1.941C16.846,26.375,7.5,35.721,7.5,47.25S16.846,68.125,28.375,68.125
		z"/>
	<path style="fill:#FF7956;" d="M480.25,464.75c0-8.4,4.973-15.622,12.125-18.934c-2.664-1.234-5.621-1.941-8.75-1.941
		c-11.529,0-20.875,9.346-20.875,20.875s9.346,20.875,20.875,20.875c3.129,0,6.086-0.708,8.75-1.941
		C485.223,480.372,480.25,473.15,480.25,464.75z"/>
	<path style="fill:#FF7956;" d="M25,464.75c0-8.4,4.973-15.622,12.125-18.934c-2.664-1.234-5.621-1.941-8.75-1.941
		c-11.529,0-20.875,9.346-20.875,20.875s9.346,20.875,20.875,20.875c3.129,0,6.086-0.708,8.75-1.941
		C29.973,480.372,25,473.15,25,464.75z"/>
</g>
<g>
	<rect x="95.67" y="30.17" style="fill:#FFFFFF;" width="15" height="15"/>
	<rect x="145.67" y="30.17" style="fill:#FFFFFF;" width="123.33" height="15"/>
	<rect x="120.67" y="30.17" style="fill:#FFFFFF;" width="15" height="15"/>
	<rect x="247.19" y="469.5" style="fill:#FFFFFF;" width="123.33" height="15"/>
	<rect x="380.53" y="469.5" style="fill:#FFFFFF;" width="15" height="15"/>
	<rect x="405.53" y="469.5" style="fill:#FFFFFF;" width="15" height="15"/>
</g>
<g>
	<rect x="348.77" y="388.58" style="fill:#1D1D1F;" width="15" height="15"/>
	<rect x="323.77" y="388.58" style="fill:#1D1D1F;" width="15" height="15"/>
	<rect x="373.77" y="388.58" style="fill:#1D1D1F;" width="15" height="15"/>
	<path style="fill:#1D1D1F;" d="M446.833,0H65.167v94.5h381.666L446.833,0L446.833,0z M80.167,79.5V15h351.666v37.167h-125.5v15
		h125.5V79.5H80.167z"/>
	<path style="fill:#1D1D1F;" d="M28.375,75.625c4.834,0,9.387-1.218,13.375-3.358v10.938h15v-71.91h-15v10.938
		c-3.988-2.141-8.541-3.358-13.375-3.358C12.729,18.875,0,31.604,0,47.25S12.729,75.625,28.375,75.625z M28.375,33.875
		c7.375,0,13.375,6,13.375,13.375s-6,13.375-13.375,13.375S15,54.625,15,47.25S21,33.875,28.375,33.875z"/>
	<path style="fill:#1D1D1F;" d="M470.25,72.267c3.988,2.141,8.541,3.358,13.375,3.358C499.271,75.625,512,62.896,512,47.25
		s-12.729-28.375-28.375-28.375c-4.834,0-9.387,1.218-13.375,3.358V11.295h-15v71.91h15V72.267z M483.625,33.875
		c7.375,0,13.375,6,13.375,13.375s-6,13.375-13.375,13.375s-13.375-6-13.375-13.375S476.25,33.875,483.625,33.875z"/>
	<path style="fill:#1D1D1F;" d="M65.167,512h381.666v-94.5H65.167V512z M431.833,432.5V497H80.167v-35.821H150v-15H80.167V432.5
		H431.833z"/>
	<polygon style="fill:#1D1D1F;" points="428.029,405 428.029,107 413.029,107 413.029,322.833 389,322.833 389,337.833 
		413.029,337.833 413.029,405 	"/>
	<polygon style="fill:#1D1D1F;" points="83.971,107 83.971,405 98.971,405 98.971,378.244 137,378.244 137,363.244 98.971,363.244 
		98.971,127.167 123,127.167 123,112.167 98.971,112.167 98.971,107 	"/>
	<path style="fill:#1D1D1F;" d="M41.75,439.733c-3.988-2.141-8.541-3.358-13.375-3.358C12.729,436.375,0,449.104,0,464.75
		s12.729,28.375,28.375,28.375c4.834,0,9.387-1.218,13.375-3.358v10.938h15v-71.91h-15V439.733z M28.375,478.125
		c-7.375,0-13.375-6-13.375-13.375s6-13.375,13.375-13.375s13.375,6,13.375,13.375S35.75,478.125,28.375,478.125z"/>
	<path style="fill:#1D1D1F;" d="M483.625,436.375c-4.834,0-9.387,1.218-13.375,3.358v-10.938h-15v71.91h15v-10.938
		c3.988,2.141,8.541,3.358,13.375,3.358c15.646,0,28.375-12.729,28.375-28.375S499.271,436.375,483.625,436.375z M483.625,478.125
		c-7.375,0-13.375-6-13.375-13.375s6-13.375,13.375-13.375s13.375,6,13.375,13.375S491,478.125,483.625,478.125z"/>
	<rect x="203.14" y="135.54" style="fill:#1D1D1F;" width="15" height="15"/>
	<rect x="178.14" y="135.54" style="fill:#1D1D1F;" width="15" height="15"/>
	<rect x="228.14" y="135.54" style="fill:#1D1D1F;" width="160.86" height="15"/>
	<rect x="444.58" y="299.8" style="fill:#1D1D1F;" width="15" height="15"/>
	<rect x="444.58" y="103.93" style="fill:#1D1D1F;" width="15" height="160.86"/>
	<rect x="444.58" y="274.8" style="fill:#1D1D1F;" width="15" height="15"/>
	<rect x="247.19" y="177.21" style="fill:#1D1D1F;" width="141.81" height="15"/>
	<rect x="123" y="177.21" style="fill:#1D1D1F;" width="105.43" height="15"/>
	<rect x="187.14" y="218.88" style="fill:#1D1D1F;" width="201.86" height="15"/>
	<rect x="123" y="218.88" style="fill:#1D1D1F;" width="44.667" height="15"/>
	<rect x="344.5" y="260.55" style="fill:#1D1D1F;" width="44.5" height="15"/>
	<rect x="123" y="260.55" style="fill:#1D1D1F;" width="200.77" height="15"/>
	<rect x="123" y="302.21" style="fill:#1D1D1F;" width="210.86" height="15"/>
	<rect x="472" y="103.93" style="fill:#1D1D1F;" width="15" height="81.57"/>
	<rect x="52.42" y="103.93" style="fill:#1D1D1F;" width="15" height="160.86"/>
	<rect x="52.42" y="299.8" style="fill:#1D1D1F;" width="15" height="15"/>
	<rect x="52.42" y="274.8" style="fill:#1D1D1F;" width="15" height="15"/>
	<rect x="25" y="103.93" style="fill:#1D1D1F;" width="15" height="81.57"/>
</g>
<g>
</g>
<g>
</g>
<g>
</g>
<g>
</g>
<g>
</g>
<g>
</g>
<g>
</g>
<g>
</g>
<g>
</g>
<g>
</g>
<g>
</g>
<g>
</g>
<g>
</g>
<g>
</g>
<g>
</g>
</svg>
