<?xml version="1.0" encoding="iso-8859-1"?>
<!-- Generator: Adobe Illustrator 19.0.0, SVG Export Plug-In . SVG Version: 6.00 Build 0)  -->
<svg version="1.1" id="Capa_1" xmlns="http://www.w3.org/2000/svg" xmlns:xlink="http://www.w3.org/1999/xlink" x="0px" y="0px"
	 viewBox="0 0 512 512" style="enable-background:new 0 0 512 512;" xml:space="preserve">
<rect x="178.66" y="227.86" style="fill:#FFB655;" width="295.4" height="41.756"/>
<rect x="178.66" y="227.86" style="fill:#FF7956;" width="29.1" height="41.756"/>
<g>
	<path style="fill:#FFB655;" d="M474.066,340.263v-41.435h-35.091C454.268,308.975,466.518,323.339,474.066,340.263z"/>
	<path style="fill:#FFB655;" d="M442.522,340.585c-12.485-18.178-33.411-30.105-57.13-30.105s-44.645,11.928-57.13,30.105H442.522z"
		/>
</g>
<path style="fill:#FF7956;" d="M395.314,311.193c-3.241-0.465-6.552-0.714-9.922-0.714c-23.719,0-44.645,11.928-57.13,30.105h19.843
	C358.817,324.99,375.744,314.003,395.314,311.193z"/>
<g>
	<path style="fill:#FFB655;" d="M331.809,298.828H178.662v41.756h117.915C304.113,323.52,316.419,309.039,331.809,298.828z"/>
	<circle style="fill:#FFB655;" cx="386.7" cy="379.75" r="15.16"/>
</g>
<path style="fill:#FF7956;" d="M385.59,379.748c0-5.836,3.303-10.894,8.137-13.428c-2.101-1.101-4.487-1.732-7.023-1.732
	c-8.373,0-15.16,6.787-15.16,15.16c0,8.373,6.787,15.16,15.16,15.16c2.536,0,4.922-0.631,7.023-1.732
	C388.893,390.642,385.59,385.585,385.59,379.748z"/>
<rect x="148.23" y="210.51" style="fill:#FFB655;" width="30.434" height="130.07"/>
<rect x="148.23" y="210.51" style="fill:#FF7956;" width="15.217" height="130.07"/>
<path style="fill:#FFB655;" d="M133.125,365.965h156.198c1.267-8.907,3.741-17.424,7.255-25.381H133.125V365.965z"/>
<rect x="133.12" y="340.58" style="fill:#FF7956;" width="27.426" height="25.381"/>
<path style="fill:#FFB655;" d="M386.704,364.589c2.246,0,4.37,0.501,6.287,1.377h60.295c-1.871-9.266-5.596-17.857-10.763-25.381
	H328.262c-5.168,7.524-8.893,16.115-10.763,25.381h62.918C382.334,365.089,384.458,364.589,386.704,364.589z"/>
<g>
	<path style="fill:#FF7956;" d="M400.75,365.965h12.574c-1.917-0.876-4.041-1.377-6.287-1.377S402.667,365.089,400.75,365.965z"/>
	<path style="fill:#FF7956;" d="M328.262,340.585c-5.168,7.524-8.893,16.115-10.763,25.381h20.333
		c1.871-9.266,5.596-17.857,10.763-25.381H328.262z"/>
</g>
<path style="fill:#FF9811;" d="M385.392,282.699c-53.598,0-97.048,43.45-97.048,97.048s43.45,97.048,97.048,97.048
	s97.048-43.45,97.048-97.048S438.99,282.699,385.392,282.699z M385.392,449.016c-38.256,0-69.269-31.013-69.269-69.269
	s31.013-69.269,69.269-69.269s69.269,31.013,69.269,69.269C454.661,418.004,423.648,449.016,385.392,449.016z"/>
<g>
	<path style="fill:#FF5023;" d="M304.815,379.748c0-50.824,39.07-92.516,88.813-96.697c-2.716-0.228-5.461-0.351-8.236-0.351
		c-53.598,0-97.048,43.45-97.048,97.048s43.45,97.048,97.048,97.048c2.775,0,5.52-0.123,8.236-0.351
		C343.885,472.264,304.815,430.572,304.815,379.748z"/>
	<path style="fill:#FF5023;" d="M393.628,448.512c2.703,0.32,5.447,0.504,8.236,0.504c38.256,0,69.269-31.013,69.269-69.269
		s-31.013-69.269-69.269-69.269c-2.789,0-5.533,0.184-8.236,0.504c34.371,4.075,61.033,33.297,61.033,68.764
		C454.661,415.215,427.999,444.438,393.628,448.512z"/>
</g>
<path style="fill:#FFB655;" d="M380.417,393.53h-62.918c-0.899-4.455-1.376-9.063-1.376-13.782c0-4.72,0.476-9.328,1.376-13.783
	h62.918c-5.231,2.39-8.873,7.656-8.873,13.783C371.544,385.875,375.186,391.141,380.417,393.53z M7.5,365.965v27.565h281.823
	c-0.64-4.503-0.979-9.103-0.979-13.782c0-4.68,0.338-9.28,0.979-13.783H7.5z M392.99,365.965c5.231,2.39,8.873,7.656,8.873,13.783
	c0,6.127-3.642,11.392-8.873,13.782h60.294c0.899-4.455,1.376-9.063,1.376-13.782c0-4.72-0.476-9.328-1.376-13.783H392.99z
	 M481.462,365.965c0.64,4.503,0.979,9.103,0.979,13.783s-0.338,9.28-0.979,13.782H504.5v-27.565H481.462z"/>
<g>
	<path style="fill:#FF7956;" d="M337.832,365.965h-20.333c-0.899,4.455-1.376,9.063-1.376,13.783s0.476,9.328,1.376,13.782h20.333
		c-0.899-4.455-1.376-9.063-1.376-13.782C336.457,375.029,336.933,370.421,337.832,365.965z"/>
	<rect x="7.5" y="365.96" style="fill:#FF7956;" width="49.5" height="27.565"/>
	<path style="fill:#FF7956;" d="M422.197,379.748c0-6.127-3.642-11.392-8.873-13.783H400.75c-1.427,0.652-2.731,1.525-3.88,2.565
		c3.062,2.77,4.993,6.763,4.993,11.218s-1.931,8.448-4.993,11.218c1.149,1.039,2.452,1.912,3.88,2.564h12.574
		C418.555,391.141,422.197,385.875,422.197,379.748z"/>
	<path style="fill:#FF7956;" d="M501.795,365.965h-20.333c0.64,4.503,0.979,9.103,0.979,13.783s-0.338,9.28-0.979,13.782h20.333
		c0.64-4.503,0.979-9.103,0.979-13.782C502.774,375.068,502.435,370.468,501.795,365.965z"/>
</g>
<path style="fill:#FFB655;" d="M474.066,210.514v129.748c3.589,8.048,6.112,16.676,7.396,25.702H504.5v-155.45H474.066z"/>
<path style="fill:#FF7956;" d="M489.283,210.514h-15.217v129.748c3.589,8.048,6.112,16.676,7.396,25.702h15.217
	c-1.284-9.027-3.806-17.654-7.396-25.702V210.514z"/>
<polygon style="fill:#FFFFFF;" points="175.421,35.204 175.421,143.626 232.922,143.626 256,166.704 279.078,143.626 
	336.579,143.626 336.579,35.204 "/>
<g>
	<rect x="248.5" y="62.53" style="fill:#D8D7DA;" width="51.5" height="51.5"/>
	<rect x="175.42" y="35.2" style="fill:#D8D7DA;" width="21.333" height="108.42"/>
</g>
<rect x="230.25" y="62.53" style="fill:#FF9811;" width="51.5" height="51.5"/>
<g>
	<rect x="419.38" y="241.24" style="fill:#FFFFFF;" width="31.14" height="15"/>
	<rect x="394.38" y="241.24" style="fill:#FFFFFF;" width="15" height="15"/>
	<rect x="369.38" y="241.24" style="fill:#FFFFFF;" width="15" height="15"/>
</g>
<g>
	<rect x="250.27" y="241.24" style="fill:#1D1D1F;" width="15" height="15"/>
	<rect x="200.27" y="241.24" style="fill:#1D1D1F;" width="15" height="15"/>
	<rect x="225.27" y="241.24" style="fill:#1D1D1F;" width="15" height="15"/>
	<path style="fill:#1D1D1F;" d="M385.392,275.199c-57.648,0-104.548,46.9-104.548,104.548s46.9,104.548,104.548,104.548
		s104.548-46.9,104.548-104.548S443.04,275.199,385.392,275.199z M385.392,469.296c-49.377,0-89.548-40.171-89.548-89.548
		s40.171-89.548,89.548-89.548s89.548,40.171,89.548,89.548S434.769,469.296,385.392,469.296z"/>
	<path style="fill:#1D1D1F;" d="M385.392,302.979c-42.331,0-76.769,34.438-76.769,76.769s34.438,76.769,76.769,76.769
		s76.769-34.438,76.769-76.769S427.723,302.979,385.392,302.979z M386.704,387.408c-4.224,0-7.66-3.437-7.66-7.66
		s3.437-7.66,7.66-7.66s7.66,3.436,7.66,7.66S390.927,387.408,386.704,387.408z M396.519,359.326
		c-0.749-0.361-1.523-0.678-2.315-0.957v-39.751c11.236,1.612,21.501,6.258,29.943,13.08L396.519,359.326z M379.204,358.369
		c-0.792,0.279-1.566,0.595-2.315,0.957l-28.782-28.782c8.822-6.702,19.489-11.094,31.098-12.254L379.204,358.369L379.204,358.369z
		 M376.888,400.171c0.749,0.362,1.524,0.678,2.316,0.957v40.08c-11.608-1.16-22.275-5.552-31.098-12.254L376.888,400.171z
		 M394.204,401.126c0.792-0.279,1.566-0.595,2.315-0.957l27.628,27.628c-8.442,6.823-18.707,11.468-29.943,13.08V401.126z
		 M407.125,389.563c0.362-0.749,0.678-1.524,0.957-2.316h38.607c-1.35,11.099-5.645,21.298-12.093,29.786L407.125,389.563z
		 M408.083,372.248c-0.279-0.792-0.595-1.566-0.957-2.316l27.471-27.471c6.448,8.488,10.742,18.688,12.093,29.786h-38.607V372.248z
		 M337.342,340.993l28.939,28.939c-0.362,0.749-0.678,1.524-0.957,2.316h-41.23C325.524,360.5,330.255,349.762,337.342,340.993z
		 M324.095,387.248h41.23c0.279,0.792,0.595,1.566,0.957,2.316l-28.939,28.939C330.255,409.733,325.524,398.995,324.095,387.248z"/>
	<path style="fill:#1D1D1F;" d="M256,177.311l26.185-26.185h61.894V27.704H167.921v123.422h61.894L256,177.311z M182.921,42.704
		h146.157v93.422h-53.107L256,156.098l-19.972-19.972h-53.107V42.704z"/>
	<path style="fill:#1D1D1F;" d="M289.25,55.03h-66.5v66.5h66.5V55.03z M274.25,106.53h-36.5v-36.5h10.75v18.25h15V70.03h10.75
		V106.53z"/>
	<path style="fill:#1D1D1F;" d="M466.566,203.014v17.343H186.162v-17.343h-45.434v130.07h-15.104v25.381H0v42.565h75.5v75.766h15
		V401.03h178.659v-15H15v-12.565h254.159v-15H140.625v-10.381h134.466v-15h-88.929v-5.878h63.575v-15h-63.575v-5.878H300.9v-15
		H186.162v-14.214h159.591v-15H186.162v-26.756h280.404v26.756h-41.535v15h41.535v14.214h-4.182v15h19.182v-88.313H497V401.03h15
		V203.014H466.566z M171.162,333.085h-15.434v-115.07h15.434V333.085z"/>
</g>
<g>
</g>
<g>
</g>
<g>
</g>
<g>
</g>
<g>
</g>
<g>
</g>
<g>
</g>
<g>
</g>
<g>
</g>
<g>
</g>
<g>
</g>
<g>
</g>
<g>
</g>
<g>
</g>
<g>
</g>
</svg>
