<?xml version="1.0" encoding="iso-8859-1"?>
<!-- Generator: Adobe Illustrator 19.0.0, SVG Export Plug-In . SVG Version: 6.00 Build 0)  -->
<svg version="1.1" id="Capa_1" xmlns="http://www.w3.org/2000/svg" xmlns:xlink="http://www.w3.org/1999/xlink" x="0px" y="0px"
	 viewBox="0 0 512 512" style="enable-background:new 0 0 512 512;" xml:space="preserve">
<path style="fill:#CC7400;" d="M270.993,224.473L64.697,430.769c-9.022,9.022-9.022,23.785,0,32.807l0,0
	c9.022,9.022,23.785,9.022,32.807,0L303.8,257.28L270.993,224.473z"/>
<path style="fill:#AA6100;" d="M81.101,447.172l206.295-206.295l-16.403-16.403L64.697,430.769c-9.022,9.022-9.022,23.785,0,32.807
	l0,0c2.986,2.986,6.605,4.962,10.432,5.971C73.089,461.81,75.065,453.208,81.101,447.172z"/>
<path style="fill:#C6C5CA;" d="M282.207,265.591l-19.803-19.803c-7.569-7.569-7.569-19.955,0-27.525l9.681-9.681
	c7.569-7.569,19.955-7.569,27.525,0l19.803,19.803c7.569,7.569,7.569,19.955,0,27.525l-9.681,9.681
	C302.162,273.16,289.776,273.16,282.207,265.591z"/>
<path style="fill:#ACABB1;" d="M282.214,238.073l9.681-9.681c7.568-7.568,19.952-7.569,27.521-0.003
	c-0.001-0.001-0.002-0.002-0.003-0.004l-19.803-19.803c-7.569-7.569-19.955-7.569-27.525,0l-9.681,9.681
	c-7.569,7.569-7.569,19.955,0,27.525l19.803,19.803c0.001,0.001,0.003,0.002,0.004,0.003
	C274.645,258.024,274.645,245.641,282.214,238.073z"/>
<path style="fill:#C6C5CA;" d="M87.217,408.249l-22.52,22.52c-9.022,9.022-9.022,23.785,0,32.807l0,0
	c9.022,9.022,23.785,9.022,32.807,0l22.52-22.52L87.217,408.249z"/>
<g>
	<path style="fill:#ACABB1;" d="M75.13,469.547c-2.041-7.737-0.065-16.339,5.971-22.375l22.52-22.52l-16.403-16.403l-22.52,22.52
		c-9.022,9.022-9.022,23.785,0,32.807C67.683,466.562,71.303,468.537,75.13,469.547z"/>
	<path style="fill:#ACABB1;" d="M107.496,447.884l-27.108-27.108c-4.931-4.931-4.931-13.001,0-17.933l0.417-0.417
		c4.931-4.931,13.001-4.931,17.933,0l27.108,27.108c4.931,4.931,4.931,13.001,0,17.933l-0.417,0.417
		C120.497,452.816,112.428,452.816,107.496,447.884z"/>
</g>
<path style="fill:#898890;" d="M98.808,421.263l0.417-0.417c4.931-4.931,13.001-4.932,17.933,0l-18.42-18.419
	c-4.931-4.931-13.001-4.931-17.933,0l-0.417,0.417c-4.931,4.931-4.931,13.001,0,17.933l18.419,18.419
	C93.877,434.264,93.877,426.195,98.808,421.263z"/>
<g>
	<path style="fill:#3E3D42;" d="M343.483,31.199l-17.03,91.066l52.472,0.041l-16.888-91.092
		C360.131,20.933,345.405,20.922,343.483,31.199z"/>
	<path style="fill:#3E3D42;" d="M343.259,319.481l-16.888-91.092l52.472,0.041l-17.03,91.066
		C359.891,329.773,345.165,329.761,343.259,319.481z"/>
	<path style="fill:#3E3D42;" d="M244.239,79.9l52.351,76.435l37.132-37.074l-76.353-52.47
		C248.752,60.868,238.331,71.273,244.239,79.9z"/>
	<path style="fill:#3E3D42;" d="M447.927,283.904l-76.353-52.47l37.132-37.074l52.351,76.435
		C466.965,279.421,456.544,289.826,447.927,283.904z"/>
	<path style="fill:#3E3D42;" d="M208.5,184.512l91.066,17.03l0.041-52.472l-91.092,16.888
		C198.234,167.864,198.222,182.59,208.5,184.512z"/>
	<path style="fill:#3E3D42;" d="M496.782,184.736l-91.092,16.888l0.041-52.472l91.066,17.03
		C507.073,168.104,507.062,182.83,496.782,184.736z"/>
	<path style="fill:#3E3D42;" d="M448.011,66.864l-76.394,52.411l37.103,37.103l52.411-76.394
		C467.046,71.362,456.633,60.949,448.011,66.864z"/>
</g>
<g>
	<path style="fill:#2D2D30;" d="M417.639,87.701l-46.022,31.574l37.103,37.103l31.574-46.022
		c-3.152-4.245-6.646-8.313-10.494-12.161C425.953,94.347,421.884,90.853,417.639,87.701z"/>
	<path style="fill:#2D2D30;" d="M460.579,159.389l-54.869-10.216v52.472l54.869-10.216c0.773-5.23,1.179-10.578,1.179-16.019
		C461.758,169.967,461.352,164.619,460.579,159.389z"/>
	<path style="fill:#2D2D30;" d="M440.25,240.353l-31.574-46.022l-37.103,37.103l46.022,31.574
		c4.245-3.152,8.313-6.646,12.161-10.494C433.604,248.666,437.099,244.598,440.25,240.353z"/>
	<path style="fill:#2D2D30;" d="M368.606,283.278l10.216-54.869H326.35l10.216,54.869c5.23,0.773,10.578,1.179,16.019,1.179
		S363.376,284.051,368.606,283.278z"/>
	<path style="fill:#2D2D30;" d="M244.717,191.305l54.869,10.216V149.05l-54.869,10.216c-0.773,5.23-1.179,10.578-1.179,16.019
		S243.944,186.075,244.717,191.305z"/>
	<path style="fill:#2D2D30;" d="M265.046,110.341l31.574,46.022l37.103-37.103l-46.022-31.574
		c-4.245,3.152-8.314,6.646-12.161,10.494S268.197,106.097,265.046,110.341z"/>
	<path style="fill:#2D2D30;" d="M336.69,67.416l-10.216,54.869h52.472L368.73,67.416c-5.23-0.773-10.578-1.179-16.019-1.179
		S341.92,66.643,336.69,67.416z"/>
</g>
<circle style="fill:#57565C;" cx="352.648" cy="175.35" r="79.62"/>
<g>
	<path style="fill:#3E3D42;" d="M333.75,156.449c24.536-24.536,61.095-29.694,90.705-15.507
		c-3.792-7.914-8.949-15.338-15.507-21.895c-31.094-31.094-81.507-31.094-112.601,0s-31.094,81.507,0,112.601
		c6.558,6.558,13.981,11.716,21.895,15.507C304.056,217.544,309.214,180.985,333.75,156.449z"/>
	<circle style="fill:#3E3D42;" cx="350.748" cy="137.63" r="15.922"/>
	<circle style="fill:#3E3D42;" cx="390.368" cy="177.25" r="15.922"/>
	<circle style="fill:#3E3D42;" cx="314.928" cy="173.44" r="15.922"/>
</g>
<g>
	<path style="fill:#2D2D30;" d="M339.488,126.371c-6.218,6.218-6.218,16.299,0,22.517c0.444,0.444,0.913,0.848,1.394,1.229
		c7.849-6.177,16.593-10.655,25.741-13.46c-0.228-3.744-1.756-7.425-4.617-10.286C355.787,120.153,345.706,120.153,339.488,126.371z
		"/>
	<path style="fill:#2D2D30;" d="M303.672,162.187c-6.218,6.218-6.218,16.299,0,22.517c2.861,2.861,6.541,4.389,10.286,4.617
		c2.805-9.148,7.284-17.892,13.461-25.741c-0.381-0.481-0.784-0.949-1.229-1.394C319.971,155.969,309.89,155.969,303.672,162.187z"
		/>
</g>
<circle style="fill:#3E3D42;" cx="354.548" cy="213.06" r="15.922"/>
<path d="M350.746,161.041c5.998,0,11.996-2.283,16.563-6.849c9.132-9.133,9.132-23.992,0-33.124
	c-4.424-4.424-10.306-6.86-16.563-6.86c-6.256,0-12.138,2.436-16.563,6.86c-9.132,9.132-9.132,23.991,0.001,33.125
	C338.751,158.758,344.749,161.041,350.746,161.041z M344.79,131.675c1.592-1.591,3.707-2.467,5.956-2.467
	c2.25,0,4.364,0.876,5.955,2.467c3.284,3.284,3.284,8.627,0,11.911c-3.282,3.284-8.626,3.284-11.91,0
	C341.507,140.301,341.507,134.958,344.79,131.675z"/>
<path d="M373.803,160.687c-9.131,9.132-9.131,23.992,0,33.124c4.566,4.566,10.563,6.849,16.563,6.849
	c5.997,0,11.996-2.284,16.562-6.849h0.001c9.131-9.132,9.131-23.992-0.001-33.125C397.794,151.554,382.936,151.555,373.803,160.687z
	 M396.32,171.293c3.284,3.284,3.283,8.627,0.001,11.911c-3.285,3.284-8.628,3.283-11.911,0c-3.284-3.284-3.284-8.627,0-11.911
	c1.642-1.642,3.798-2.462,5.955-2.462C392.521,168.831,394.679,169.652,396.32,171.293z"/>
<path d="M331.493,156.883c-9.133-9.132-23.99-9.132-33.125,0c-9.131,9.132-9.131,23.992,0.001,33.125
	c4.566,4.566,10.564,6.849,16.562,6.849c5.998,0,11.996-2.283,16.563-6.849C340.624,180.875,340.624,166.016,331.493,156.883z
	 M320.886,179.401c-3.283,3.283-8.627,3.284-11.91,0c-3.284-3.284-3.284-8.627-0.001-11.911c1.643-1.642,3.8-2.463,5.956-2.463
	c2.157,0,4.313,0.821,5.955,2.462C324.17,170.774,324.17,176.117,320.886,179.401z"/>
<path d="M337.987,196.502c-9.131,9.132-9.131,23.992,0,33.124c4.566,4.566,10.563,6.849,16.563,6.849
	c5.997,0,11.996-2.284,16.562-6.849h0.001c9.131-9.132,9.131-23.992-0.001-33.125C361.978,187.37,347.12,187.37,337.987,196.502z
	 M360.506,219.02c-3.286,3.285-8.629,3.283-11.911,0c-3.284-3.284-3.284-8.627,0-11.911c1.642-1.642,3.798-2.462,5.955-2.462
	c2.156,0,4.313,0.821,5.955,2.462C363.789,210.392,363.788,215.736,360.506,219.02z"/>
<path d="M498.175,158.81l-63.119-11.803c-1.152-3.359-2.509-6.64-4.067-9.831l36.326-52.949c4.688-6.833,3.87-15.698-1.989-21.557
	c-5.86-5.86-14.726-6.677-21.559-1.991l-12.321,8.454c-3.415,2.344-4.284,7.012-1.941,10.428c2.344,3.414,7.011,4.285,10.428,1.941
	l12.32-8.454c0.363-0.249,1.327-0.911,2.466,0.228c1.138,1.138,0.477,2.102,0.228,2.465l-32.531,47.418
	c-2.477-3.297-5.196-6.447-8.163-9.415c-2.968-2.968-6.118-5.687-9.416-8.164l9.638-6.612c3.415-2.343,4.284-7.012,1.941-10.427
	c-2.345-3.416-7.012-4.286-10.428-1.942l-15.169,10.407c-3.15-1.538-6.389-2.882-9.703-4.025l-11.705-63.135
	c-1.511-8.148-8.353-13.843-16.64-13.85c-0.005,0-0.009,0-0.014,0c-8.279,0-15.124,5.683-16.646,13.824l-11.803,63.118
	c-3.338,1.145-6.6,2.491-9.772,4.037l-52.919-36.366c-6.828-4.692-15.694-3.882-21.559,1.973s-6.689,14.719-2.007,21.556
	l36.285,52.978c-1.551,3.169-2.905,6.427-4.055,9.763l-63.135,11.704c-8.148,1.511-13.843,8.354-13.85,16.64
	c-0.006,8.287,5.679,15.138,13.823,16.661l59.87,11.196c-0.069,0.068-0.141,0.131-0.21,0.199l-9.681,9.681
	c-6.12,6.12-8.67,14.475-7.664,22.463l-62.662,62.662c-2.929,2.929-2.929,7.678,0,10.606c1.465,1.464,6.675,3.789,10.607,0
	l58.69-58.69c0.332,0.37,21.748,21.767,22.221,22.179L128.696,421.778l-22.2-22.2l67.077-67.077c2.929-2.929,2.929-7.678,0-10.606
	c-2.93-2.929-7.678-2.929-10.607,0l-69.652,69.652c-6.274-1.11-11.165-0.121-17.811,5.578c-7.446,6.385-6.193,17.066-5.99,18.223
	l-10.118,10.119c-6.119,6.12-9.102,14.202-8.963,22.24c-13.697,0.095-30.931,3.784-37.5,6.647
	c-10.899,4.75-15.884,17.436-11.134,28.335c3.53,8.099,11.702,17.704,28.335,11.134c6.682-2.912,21.498-13.323,30.872-23.456
	c5.566,4.832,12.619,7.477,20.097,7.477c8.218,0,15.927-3.184,21.706-8.963l10.114-10.114c1.171,0.207,9.209,2.76,18.227-5.994
	c7.736-7.509,5.777-16.649,5.574-17.806L293.07,278.62c0.964,0.103,11.979,3.438,21.966-7.724l9.68-9.68
	c0.033-0.033,0.063-0.068,0.096-0.1l11.074,59.734c1.511,8.148,8.354,13.843,16.64,13.849c0.005,0,0.009,0,0.014,0
	c8.279,0,15.124-5.683,16.646-13.823l11.803-63.118c3.338-1.145,6.599-2.491,9.771-4.036l52.919,36.366
	c2.966,2.038,6.314,3.038,9.636,3.038c4.327,0,8.605-1.698,11.924-5.011c5.863-5.855,6.688-14.719,2.006-21.556l-36.285-52.978
	c1.551-3.169,2.905-6.427,4.055-9.763l63.135-11.705c8.147-1.51,13.843-8.353,13.85-16.639
	C512.007,167.188,506.32,160.333,498.175,158.81z M41.511,468.125c-7.56,6.312-14.711,10.786-17.373,11.946
	c-5.307,1.988-7.552-0.992-8.591-3.376c-0.94-2.156-1.049-6.352,3.376-8.591c3.959-1.725,17.043-4.758,28.532-5.314
	C45.825,464.38,43.861,466.163,41.511,468.125z M70.001,458.273c-6.121-6.121-6.121-16.08,0-22.201l7.538-7.538l22.201,22.201
	l-7.539,7.538C82.344,466.083,72.947,461.219,70.001,458.273z M120.542,442.164c0,0-3.384,3.964-7.742,0.417l-27.108-27.108
	c-3.224-4.204,0.418-7.743,0.418-7.743c1.01-1.01,4.611-2.62,7.325,0l27.107,27.107
	C123.362,437.752,121.511,441.195,120.542,442.164z M424.769,175.347c0,19.264-7.502,37.375-21.124,50.997
	c-13.621,13.622-31.732,21.124-50.997,21.124c-19.264,0-37.375-7.502-50.996-21.124c-13.622-13.622-21.124-31.733-21.124-50.997
	s7.502-37.375,21.124-50.997c13.621-13.622,31.732-21.124,50.996-21.124c19.265,0,37.376,7.502,50.997,21.124
	C417.267,137.972,424.769,156.083,424.769,175.347z M350.855,32.577c0.081-0.432,0.296-1.581,1.902-1.581c0.001,0,0.002,0,0.003,0
	c1.608,0.001,1.822,1.151,1.902,1.584l10.482,56.539c-4.105-0.586-8.278-0.893-12.498-0.893c-4.174,0-8.301,0.303-12.363,0.877
	L350.855,32.577z M250.427,75.662c-0.248-0.363-0.909-1.328,0.229-2.465c1.141-1.137,2.103-0.474,2.465-0.225l47.391,32.567
	c-3.317,2.488-6.484,5.221-9.468,8.205c-2.952,2.952-5.656,6.085-8.122,9.362L250.427,75.662z M208.298,175.235
	c0.002-1.609,1.151-1.823,1.584-1.903l56.539-10.482c-0.586,4.104-0.893,8.277-0.893,12.497c0,4.175,0.303,8.302,0.877,12.363
	l-56.525-10.571C209.446,177.059,208.297,176.844,208.298,175.235z M287.511,260.288l-19.803-19.803
	c-4.665-4.665-4.665-12.254,0-16.918l7.754-7.754c4.044,7.692,9.262,14.818,15.582,21.138s13.446,11.538,21.138,15.583l-7.753,7.754
	C299.765,264.951,292.175,264.952,287.511,260.288z M354.44,318.117c-0.081,0.432-0.296,1.58-1.902,1.58h-0.002
	c-1.609-0.001-1.823-1.151-1.903-1.583l-10.482-56.539c4.104,0.586,8.276,0.893,12.497,0.893c4.175,0,8.302-0.303,12.364-0.877
	L354.44,318.117z M454.869,275.033c0.248,0.363,0.909,1.328-0.229,2.464c-1.14,1.138-2.102,0.475-2.465,0.226l-47.391-32.567
	c3.317-2.488,6.484-5.221,9.469-8.205c2.952-2.952,5.656-6.085,8.122-9.362L454.869,275.033z M495.414,177.362l-56.539,10.482
	c0.586-4.104,0.893-8.276,0.893-12.496c0-4.175-0.303-8.302-0.877-12.364l56.525,10.571c0.433,0.081,1.582,0.296,1.581,1.905
	C496.997,177.069,495.847,177.281,495.414,177.362z"/>
<g>
</g>
<g>
</g>
<g>
</g>
<g>
</g>
<g>
</g>
<g>
</g>
<g>
</g>
<g>
</g>
<g>
</g>
<g>
</g>
<g>
</g>
<g>
</g>
<g>
</g>
<g>
</g>
<g>
</g>
</svg>
