<svg id="stained-window" enable-background="new 0 0 300 300" height="512" viewBox="0 0 300 300" width="512" xmlns="http://www.w3.org/2000/svg"><g><circle cx="168" cy="116" fill="#e5efef" r="86"/><g fill="#4c241d"><circle cx="234.177" cy="202.058" r="4.276"/><path d="m244 70c-7.719 0-14-6.281-14-14s6.281-14 14-14 14 6.281 14 14-6.281 14-14 14zm0-20c-3.309 0-6 2.691-6 6s2.691 6 6 6 6-2.691 6-6-2.691-6-6-6z"/><path d="m58 90c-1.023 0-2.047-.391-2.828-1.172l-12-12c-1.562-1.562-1.562-4.094 0-5.656s4.094-1.562 5.656 0l12 12c1.562 1.562 1.562 4.094 0 5.656-.781.781-1.805 1.172-2.828 1.172z"/><path d="m46 90c-1.023 0-2.047-.391-2.828-1.172-1.562-1.562-1.562-4.094 0-5.656l12-12c1.562-1.562 4.094-1.562 5.656 0s1.562 4.094 0 5.656l-12 12c-.781.781-1.805 1.172-2.828 1.172z"/></g><g><path d="m147.195 34h-18.391c-37.368 34.645-58.804 83.406-58.804 134.687v97.313h136v-97.313c0-51.281-21.436-100.042-58.805-134.687z" fill="#e66353"/><path d="m206 270h-136c-2.209 0-4-1.791-4-4v-97.312c0-52.059 21.9-102.221 60.086-137.621.738-.686 1.711-1.066 2.719-1.066h18.391c1.008 0 1.98.381 2.719 1.066 38.185 35.4 60.085 85.562 60.085 137.621v97.312c0 2.209-1.791 4-4 4zm-132-8h128v-93.312c0-49.32-20.531-96.859-56.383-130.688h-15.234c-35.852 33.828-56.383 81.367-56.383 130.688z" fill="#4c241d"/></g><g><path d="m142 146 64 35.111v-12.424c0-18.722-2.921-37.088-8.365-54.576l-27.635-12.111z" fill="#f4aeab"/><path d="m206 185.111c-.662 0-1.324-.164-1.924-.492l-64-35.111c-.971-.533-1.676-1.443-1.951-2.514-.273-1.072-.094-2.209.5-3.143l28-44c1.059-1.664 3.172-2.305 4.98-1.516l27.635 12.111c1.062.465 1.869 1.369 2.213 2.475 5.672 18.213 8.547 36.975 8.547 55.766v12.424c0 1.414-.746 2.723-1.963 3.441-.627.374-1.332.559-2.037.559zm-58.334-40.564 54.334 29.807v-5.666c0-17.387-2.574-34.754-7.652-51.65l-22.814-9.998z" fill="#4c241d"/></g><g><path d="m94 234 24-60-46.054-31.511c-1.243 8.624-1.946 17.366-1.946 26.198v65.313z" fill="#bd53b5"/><path d="m94 238h-24c-2.209 0-4-1.791-4-4v-65.312c0-8.611.668-17.619 1.986-26.77.197-1.367 1.086-2.537 2.35-3.092 1.27-.557 2.729-.42 3.867.361l46.055 31.512c1.547 1.057 2.152 3.047 1.457 4.787l-24 60c-.61 1.518-2.08 2.514-3.715 2.514zm-20-8h17.291l21.805-54.51-38.008-26.006c-.723 6.555-1.088 12.991-1.088 19.204z" fill="#4c241d"/></g><g><path d="m206 235.44-56-41.44-56 40 72 32h40z" fill="#a9ba5a"/><path d="m206 270h-40c-.561 0-1.113-.117-1.625-.346l-72-32c-1.311-.582-2.209-1.822-2.355-3.25-.145-1.43.488-2.824 1.656-3.66l56-40c1.41-1.006 3.312-.992 4.703.041l56 41.439c1.02.754 1.621 1.947 1.621 3.215v30.561c0 2.209-1.791 4-4 4zm-39.15-8h35.15v-24.545l-52.041-38.51-47.939 34.242z" fill="#4c241d"/></g><g><path d="m128.837 34c-14.763 13.687-27.059 29.558-36.51 46.938l25.673 93.062 36.938-132.362c-2.503-2.613-5.085-5.161-7.747-7.638z" fill="#9dc1e4"/><path d="m118 178c-.002 0-.004 0-.006 0-1.797-.002-3.373-1.203-3.85-2.936l-25.671-93.062c-.275-1-.154-2.064.342-2.975 9.73-17.896 22.281-34.033 37.305-47.961.738-.686 1.711-1.066 2.719-1.066h18.354c1.012 0 1.984.383 2.725 1.072 2.684 2.496 5.344 5.119 7.91 7.801.979 1.02 1.344 2.48.965 3.84l-36.938 132.363c-.484 1.729-2.06 2.924-3.855 2.924zm-21.385-96.561 21.406 77.6 32.445-116.266c-1.594-1.625-3.221-3.223-4.857-4.773h-15.193c-13.488 12.721-24.848 27.322-33.801 43.439z" fill="#4c241d"/></g><g><path d="m178 122h-28v-24h-24v24h-28v24h28v76h24v-76h28z" fill="#ffce56"/><path d="m150 226h-24c-2.209 0-4-1.791-4-4v-72h-24c-2.209 0-4-1.791-4-4v-24c0-2.209 1.791-4 4-4h24v-20c0-2.209 1.791-4 4-4h24c2.209 0 4 1.791 4 4v20h24c2.209 0 4 1.791 4 4v24c0 2.209-1.791 4-4 4h-24v72c0 2.209-1.791 4-4 4zm-20-8h16v-72c0-2.209 1.791-4 4-4h24v-16h-24c-2.209 0-4-1.791-4-4v-20h-16v20c0 2.209-1.791 4-4 4h-24v16h24c2.209 0 4 1.791 4 4z" fill="#4c241d"/></g></g></svg>