<svg height="512" viewBox="0 0 512 512" width="512" xmlns="http://www.w3.org/2000/svg"><g id="FilledOutline"><path d="m168 240h176v56h-176z" fill="#f8bc1e"/><path d="m160 280h-104a64 64 0 0 0 64 64h40z" fill="#808080"/><path d="m142.667 472 37.12-63.636c12.507-21.439-2.958-48.364-27.779-48.364h-24.008v-88h328v48a72 72 0 0 0 -72 72v80z" fill="#b2b1b4"/><path d="m216 160h-16a16 16 0 0 1 -16-16 16 16 0 0 1 16-16h96l168.021-7a23.021 23.021 0 0 1 23.979 23 23.021 23.021 0 0 1 -23.979 23l-168.021-7z" fill="#b0792c"/><path d="m288 208h-64l-8-8v-112l8-8h64l8 8v112z" fill="#686869"/><path d="m136 456h272v32h-272z" fill="#808080"/><path d="m456 264h-104v-24a8 8 0 0 0 -8-8h-176a8 8 0 0 0 -8 8v24h-32a8 8 0 0 0 -8 8h-64a8 8 0 0 0 -8 8 72.081 72.081 0 0 0 72 72v8a8 8 0 0 0 8 8h24a24.164 24.164 0 0 1 20.873 36.34l-25.468 43.66h-11.405a8 8 0 0 0 -8 8v32a8 8 0 0 0 8 8h272a8 8 0 0 0 8-8v-32a8 8 0 0 0 -8-8h-16v-56a64.072 64.072 0 0 1 64-64 8 8 0 0 0 8-8v-48a8 8 0 0 0 -8-8zm-391.43 24h55.43v48a56.086 56.086 0 0 1 -55.43-48zm111.43-40h160v16h-160zm224 232h-256v-16h256zm-24-88v56h-210.072l20.765-35.6a39.744 39.744 0 0 0 .136-40.242 41.6 41.6 0 0 0 -2.746-4.16h31.917v-15.998h-80v-72h312v32h-80v16h40.074a79.916 79.916 0 0 0 -32.074 64z"/><path d="m486.453 121.613a30.725 30.725 0 0 0 -22.765-8.607l-159.688 6.654v-31.66a8 8 0 0 0 -2.343-5.657l-8-8a8 8 0 0 0 -5.657-2.343h-64a8 8 0 0 0 -5.657 2.343l-8 8a8 8 0 0 0 -2.343 5.657v32h-8a24 24 0 0 0 0 48h8v32a8 8 0 0 0 2.343 5.657l8 8a8 8 0 0 0 5.657 2.343h64a8 8 0 0 0 5.657-2.343l8-8a8 8 0 0 0 2.343-5.657v-31.66l159.688 6.654c.446.019.89.027 1.333.027a31.021 31.021 0 0 0 21.432-53.408zm-286.453 30.387a8 8 0 0 1 0-16h8v16zm88 44.687-3.313 3.313h-57.374l-3.313-3.313v-105.374l3.313-3.313h57.374l3.313 3.313zm187.377-41.847a14.868 14.868 0 0 1 -11.023 4.168l-160.354-6.682v-16.652l160.354-6.682a15.021 15.021 0 0 1 11.023 25.848z"/><path d="m248 16h16v40h-16z"/><path d="m155.897 44.07h16v72.807h-16z" transform="matrix(.866 -.5 .5 .866 -18.279 92.73)"/><path d="m125.934 102.475h15.999v134.099h-15.999z" transform="matrix(.5 -.866 .866 .5 -79.846 200.752)"/><path d="m48 232h96v16h-96z"/><path d="m368 232h96v16h-96z"/><path d="m318.52 189.525h22.099v15.999h-22.099z" transform="matrix(.866 -.5 .5 .866 -54.609 191.249)"/><path d="m321.78 73.934h50.96v16h-50.96z" transform="matrix(.5 -.866 .866 .5 102.674 341.703)"/><path d="m197.93 43.678h16v18.914h-16z" transform="matrix(.966 -.259 .259 .966 -6.735 55.111)"/><path d="m99.877 181.659h16v37.303h-16z" transform="matrix(.259 -.966 .966 .259 -113.527 252.675)"/><path d="m383.123 191.039h51.485v16h-51.485z" transform="matrix(.966 -.259 .259 .966 -37.583 112.604)"/></g></svg>