<?xml version="1.0" encoding="iso-8859-1"?>
<!-- Generator: Adobe Illustrator 19.0.0, SVG Export Plug-In . SVG Version: 6.00 Build 0)  -->
<svg version="1.1" id="Capa_1" xmlns="http://www.w3.org/2000/svg" xmlns:xlink="http://www.w3.org/1999/xlink" x="0px" y="0px"
	 viewBox="0 0 512 512" style="enable-background:new 0 0 512 512;" xml:space="preserve">
<g>
	<rect x="7.5" y="102.54" style="fill:#C6C5CA;" width="43.41" height="245.71"/>
	<rect x="382.59" y="102.54" style="fill:#C6C5CA;" width="43.41" height="245.71"/>
</g>
<g>
	<rect x="7.5" y="102.54" style="fill:#898890;" width="21.03" height="245.71"/>
	<rect x="382.59" y="102.54" style="fill:#898890;" width="21.03" height="245.71"/>
</g>
<g>
	<rect x="86.43" y="329.97" style="fill:#FF9811;" width="37.26" height="103.97"/>
	<rect x="307.24" y="329.97" style="fill:#FF9811;" width="37.26" height="103.97"/>
</g>
<g>
	<rect x="86.43" y="329.97" style="fill:#FF5023;" width="18.199" height="103.97"/>
	<rect x="307.24" y="329.97" style="fill:#FF5023;" width="18.199" height="103.97"/>
</g>
<rect x="123.7" y="372.89" style="fill:#FF9811;" width="183.55" height="34.15"/>
<rect x="123.7" y="372.89" style="fill:#FF5023;" width="23.304" height="34.15"/>
<path style="fill:#FFB655;" d="M382.582,102.396C274.406,69.944,159.085,69.945,50.91,102.398l0,0v245.997l0.004,0.001
	c11.76,3.528,23.609,6.649,35.52,9.41V329.97h37.263v35.207c60.772,9.929,122.741,10.052,183.546,0.399V329.97h37.263v28.429
	c12.775-2.9,25.478-6.221,38.081-10.002l0.004-0.001V102.399L382.582,102.396z"/>
<g>
	<path style="fill:#FF7956;" d="M81.118,348.396l-0.004-0.001V102.399l0,0c49.215-14.765,99.91-22.789,150.737-24.12
		c-60.894-1.594-121.979,6.43-180.942,24.12l0,0v245.997l0.004,0.001c11.76,3.528,23.609,6.649,35.52,9.41v-7.864
		C84.661,349.43,82.887,348.927,81.118,348.396z"/>
	<path style="fill:#FF7956;" d="M153.901,365.177V329.97h-30.205v35.207c35.797,5.848,72.009,8.291,108.154,7.341
		C205.772,371.839,179.728,369.397,153.901,365.177z"/>
	<path style="fill:#FF7956;" d="M374.71,329.97h-30.205v28.428c10.119-2.297,20.19-4.87,30.205-7.715V329.97z"/>
</g>
<rect x="455.5" y="234.06" style="fill:#C6C5CA;" width="45.49" height="27.11"/>
<rect x="455.5" y="234.06" style="fill:#898890;" width="22.747" height="27.11"/>
<polygon style="fill:#FFB655;" points="461,284.17 452,291.17 426,291.17 426,314.67 452,314.67 461,321.67 504.5,321.67 
	504.5,284.17 "/>
<g>
	<polygon style="fill:#FF7956;" points="481.5,284.17 461,284.17 452,291.17 472.5,291.17 	"/>
	<rect x="426" y="291.17" style="fill:#FF7956;" width="20.5" height="23.5"/>
	<polygon style="fill:#FF7956;" points="452,314.67 461,321.67 481.5,321.67 472.5,314.67 	"/>
</g>
<rect x="473.18" y="321.67" style="fill:#FFB655;" width="19.13" height="24.833"/>
<g>
	<path style="fill:#1D1D1F;" d="M172.604,171.723l0.363,14.996c4.975-0.121,9.952-0.221,14.934-0.3l-0.236-14.998
		C182.641,171.501,177.62,171.602,172.604,171.723z"/>
	<path style="fill:#1D1D1F;" d="M147.512,172.506l0.572,14.988c4.97-0.189,9.945-0.358,14.928-0.506l-0.445-14.994
		C157.543,172.143,152.524,172.314,147.512,172.506z"/>
	<path style="fill:#1D1D1F;" d="M97.372,175.132l0.998,14.967c4.959-0.331,9.928-0.641,14.906-0.93l-0.869-14.975
		C107.386,174.485,102.374,174.799,97.372,175.132z"/>
	<path style="fill:#1D1D1F;" d="M122.434,173.64l0.783,14.98c4.965-0.26,9.938-0.499,14.919-0.717l-0.656-14.986
		C132.457,173.137,127.441,173.379,122.434,173.64z"/>
	<path style="fill:#1D1D1F;" d="M338.486,260.536c-34.381,2.364-69.646,3.729-104.818,4.058l0.141,15
		c35.467-0.332,71.031-1.709,105.707-4.093L338.486,260.536z"/>
	<rect x="21.705" y="302.54" style="fill:#1D1D1F;" width="15" height="15"/>
	<rect x="21.705" y="252.54" style="fill:#1D1D1F;" width="15" height="15"/>
	<rect x="21.705" y="277.54" style="fill:#1D1D1F;" width="15" height="15"/>
	<rect x="396.8" y="316.05" style="fill:#1D1D1F;" width="15" height="15"/>
	<rect x="396.8" y="291.05" style="fill:#1D1D1F;" width="15" height="15"/>
</g>
<g>
	<rect x="396.8" y="145.97" style="fill:#FFFFFF;" width="15" height="15"/>
	<rect x="396.8" y="120.97" style="fill:#FFFFFF;" width="15" height="15"/>
	<rect x="396.8" y="170.97" style="fill:#FFFFFF;" width="15" height="54.46"/>
</g>
<path style="fill:#1D1D1F;" d="M299.742,365.42H131.196v-42.915H78.934v118.972h52.263V414.57h168.546v26.907h52.263V322.505
	h-52.263L299.742,365.42L299.742,365.42z M116.196,426.476H93.934v-66.541H109.3v-15H93.934v-7.431h22.263v44.989h-11.131v15h11.131
	L116.196,426.476L116.196,426.476z M131.196,399.569V380.42h168.546v19.149H131.196z M314.742,337.505h22.263v30.264h-15.466v15
	h15.466v43.708h-22.263V337.505z"/>
<g>
	<path style="fill:#FFFFFF;" d="M313.5,107.587c-18.509-2.467-37.385-4.243-56.102-5.279l-0.828,14.977
		c18.332,1.015,36.819,2.755,54.947,5.172L313.5,107.587z"/>
	<path style="fill:#FFFFFF;" d="M338.478,111.363c-4.973-0.842-10.01-1.64-14.973-2.371l-2.188,14.84
		c4.857,0.716,9.789,1.497,14.658,2.32L338.478,111.363z"/>
	<path style="fill:#FFFFFF;" d="M363.31,116.015c-4.893-1.008-9.899-1.982-14.881-2.897l-2.711,14.752
		c4.877,0.896,9.778,1.852,14.566,2.837L363.31,116.015z"/>
</g>
<g>
	<path style="fill:#1D1D1F;" d="M512,276.704h-26.25v-8h22.747v-42.106h-60.494v42.106h22.747v8h-12.323l-9,7H443v15h11.573l9-7H497
		v22.5h-33.427l-9-7H443v15h6.427l9,7h7.257v24.833h34.133v-24.833H512V276.704z M493.497,253.704h-7.747v-12.106h7.747V253.704z
		 M463.003,253.704v-12.106h7.747v12.106H463.003z M484.816,339.037h-4.133v-9.833h4.133V339.037z"/>
	<path style="fill:#1D1D1F;" d="M49.353,95.075H0v260.712h49.34c4.74,1.415,9.699,2.819,15.146,4.283l3.895-14.486
		c-3.509-0.943-6.809-1.859-9.972-2.769v-36.223c51.898,8.634,105.118,12.957,158.341,12.957s106.443-4.323,158.341-12.957v36.225
		c-4.077,1.177-8.263,2.332-12.5,3.45l3.828,14.504c6.067-1.603,12.031-3.279,17.741-4.984h49.34V95.075h-49.346
		C274.627,62.339,158.887,62.341,49.353,95.075z M58.41,159.484c103.739-17.549,212.941-17.549,316.681,0v18.707
		c-26.042-2.345-52.744-4.127-79.512-5.294l-0.652,14.986c26.999,1.176,53.926,2.986,80.164,5.37v24.677H58.41V159.484z
		 M375.091,108.042v36.228c-103.797-17.267-212.885-17.268-316.681-0.001v-36.228C162.133,78.013,271.376,78.014,375.091,108.042z
		 M15,110.075h28.409v230.712H15V110.075z M58.409,291.377v-18.719c18.26,1.645,36.871,3.031,55.488,4.096l0.857-14.975
		c-18.913-1.083-37.819-2.498-56.345-4.182V232.93H375.09v58.446C271.35,308.926,162.15,308.926,58.409,291.377z M418.5,340.787
		h-28.409V110.075H418.5V340.787z"/>
</g>
<g>
</g>
<g>
</g>
<g>
</g>
<g>
</g>
<g>
</g>
<g>
</g>
<g>
</g>
<g>
</g>
<g>
</g>
<g>
</g>
<g>
</g>
<g>
</g>
<g>
</g>
<g>
</g>
<g>
</g>
</svg>
