<?xml version="1.0"?>
<svg xmlns="http://www.w3.org/2000/svg" xmlns:xlink="http://www.w3.org/1999/xlink" xmlns:svgjs="http://svgjs.com/svgjs" version="1.1" width="512" height="512" x="0" y="0" viewBox="0 0 512 512" style="enable-background:new 0 0 512 512" xml:space="preserve" class=""><g>
<path xmlns="http://www.w3.org/2000/svg" style="" d="M291.824,384.818v-79.926h-71.65v79.926l-75.218,13.521c-26.821,4.822-46.339,28.16-46.339,55.412  v27.718c0,12.72,10.311,23.031,23.032,23.031h268.701c12.72,0,23.032-10.311,23.032-23.031V453.75  c0-27.251-19.518-50.591-46.339-55.412L291.824,384.818z" fill="#3fb7ff" data-original="#ff3f62"/>
<path xmlns="http://www.w3.org/2000/svg" style="" d="M224.525,398.38l6.991-1.257c-7.85-3.357-16.009-6.84-23.639-10.095l-62.92,11.31  c-26.821,4.822-46.339,28.16-46.339,55.412v27.719c0,12.72,10.311,23.031,23.032,23.031h78.234  c-12.098-0.692-21.698-10.718-21.698-22.991v-27.719C178.186,426.54,197.703,403.201,224.525,398.38z" fill="#0cafff" data-original="#ff0c38" class=""/>
<path xmlns="http://www.w3.org/2000/svg" style="" d="M400.86,418.374l-19.497-32.913c-6.526-11.017-9.281-23.852-7.876-36.581  c3.987-36.118,9.526-115.395-10.61-167.54v69.687c0,58.783-48.095,106.878-106.878,106.879  c-58.783,0-106.878-48.096-106.878-106.879v-69.687c-20.138,52.146-14.597,131.423-10.61,167.54  c1.405,12.727-1.35,25.563-7.876,36.581l-19.497,32.913c0,0,44.372,48.296,144.864,48.296S400.86,418.374,400.86,418.374z" fill="#acabb1" data-original="#acabb1" class=""/>
<g xmlns="http://www.w3.org/2000/svg">
	<path style="" d="M209.671,433.45c-11.235-7.326-14.736-22.174-7.9-33.714l8.431-14.234   c6.175-10.423,8.967-22.476,8.061-34.524c-40.304-15.335-69.143-54.435-69.143-99.952v-69.687   c-20.138,52.145-14.597,131.423-10.61,167.54c1.405,12.727-1.35,25.563-7.876,36.581l-19.497,32.913   c0,0,44.372,48.296,144.864,48.296c14.348,0,27.547-0.988,39.641-2.676C254.645,458.227,226.433,444.38,209.671,433.45z" fill="#898890" data-original="#898890" class=""/>
	<path style="" d="M296.859,417.238c-3.79-1.672-5.507-6.099-3.836-9.888l15.566-35.298   c1.671-3.79,6.098-5.508,9.888-3.836c3.79,1.672,5.507,6.099,3.836,9.888l-15.566,35.298   C305.076,417.192,300.649,418.91,296.859,417.238z" fill="#898890" data-original="#898890" class=""/>
	<path style="" d="M324.759,429.97c-3.79-1.672-5.508-6.099-3.836-9.888l15.566-35.298   c1.671-3.79,6.098-5.508,9.888-3.836c3.79,1.672,5.507,6.099,3.836,9.888l-15.566,35.298   C332.976,429.924,328.549,431.642,324.759,429.97z" fill="#898890" data-original="#898890" class=""/>
</g>
<path xmlns="http://www.w3.org/2000/svg" style="" d="M256,357.906L256,357.906c-58.783,0-106.879-48.096-106.879-106.879v-89.113  c0-58.783,48.096-106.879,106.879-106.879l0,0c58.783,0,106.879,48.096,106.879,106.879v89.113  C362.879,309.81,314.783,357.906,256,357.906z" fill="#ffdaaa" data-original="#ffdaaa"/>
<path xmlns="http://www.w3.org/2000/svg" style="" d="M181.665,251.027v-89.113c0-53.255,39.473-97.736,90.606-105.633  c-5.309-0.82-10.743-1.246-16.272-1.246l0,0c-58.783,0-106.879,48.096-106.879,106.879v89.113  c0,58.783,48.096,106.879,106.879,106.879l0,0c5.529,0,10.963-0.426,16.272-1.246C221.139,348.763,181.665,304.282,181.665,251.027z  " fill="#ffc477" data-original="#ffc477" class=""/>
<path xmlns="http://www.w3.org/2000/svg" style="" d="M256,357.906L256,357.906c58.783,0,106.879-48.096,106.879-106.879v-7.676  c0,11.65-2.883,19.693-6.817,25.243c-7.398,10.441-22.468,11.643-31.642,2.722l-19-18.475c-5.836-5.674-14.636-7.002-21.885-3.3  l-7.314,3.735h-40.447l-7.314-3.735c-7.249-3.702-16.05-2.375-21.885,3.3l-18.998,18.474c-9.174,8.921-24.244,7.72-31.642-2.723  c-3.933-5.552-6.815-13.593-6.815-25.241v7.676C149.121,309.81,197.215,357.906,256,357.906z" fill="#cc7400" data-original="#cc7400"/>
<path xmlns="http://www.w3.org/2000/svg" style="" d="M184.175,274.001c-9.159,5.829-21.699,3.827-28.24-5.408c-3.933-5.552-6.815-13.593-6.815-25.241  v7.676c0,58.783,48.096,106.879,106.879,106.879l0,0c5.53,0,10.963-0.426,16.272-1.246  C228.705,349.932,193.61,316.643,184.175,274.001z" fill="#aa6100" data-original="#aa6100" class=""/>
<g xmlns="http://www.w3.org/2000/svg">
	<circle style="" cx="204.616" cy="208.707" r="12.499" fill="#060202" data-original="#4e901e" class=""/>
	<circle style="" cx="307.379" cy="208.707" r="12.499" fill="#060202" data-original="#4e901e" class=""/>
</g>
<path xmlns="http://www.w3.org/2000/svg" style="" d="M238.484,11.575C129.156,64.862,140.969,170.07,140.969,170.07H371.03  c0,0,11.813-105.208-97.515-158.496C262.46,6.186,249.539,6.186,238.484,11.575z" fill="#c6c5ca" data-original="#c6c5ca" class=""/>
<g xmlns="http://www.w3.org/2000/svg">
	<path style="" d="M285.897,18.134c-3.951-2.259-8.06-4.454-12.381-6.56c-11.055-5.389-23.976-5.389-35.032,0   C129.156,64.862,140.969,170.07,140.969,170.07h51.383C191.57,149.902,194.089,65.383,285.897,18.134z" fill="#acabb1" data-original="#acabb1" class=""/>
	<path style="" d="M240.574,10.629V170.07h30.851V10.629C261.558,6.502,250.44,6.502,240.574,10.629z" fill="#acabb1" data-original="#acabb1" class=""/>
</g>
<path xmlns="http://www.w3.org/2000/svg" style="" d="M271.425,10.629c-9.866-4.128-20.985-4.128-30.851,0v39.76c8.659-8.487,18.858-16.614,30.851-24.068  V10.629z" fill="#898890" data-original="#898890" class=""/>
<path xmlns="http://www.w3.org/2000/svg" style="" d="M235.774,148.844v104.434c0,5.325,1.848,10.484,5.228,14.598l8.038,9.786  c3.6,4.382,10.305,4.383,13.906,0.002l8.04-9.782c3.383-4.115,5.232-9.276,5.232-14.604V148.844H235.774z" fill="#c6c5ca" data-original="#c6c5ca" class=""/>
<path xmlns="http://www.w3.org/2000/svg" style="" d="M255.997,148.844v132.105c2.576-0.001,5.151-1.095,6.951-3.285l8.04-9.782  c3.383-4.115,5.232-9.276,5.232-14.604V148.844H255.997z" fill="#acabb1" data-original="#acabb1" class=""/>
<path xmlns="http://www.w3.org/2000/svg" style="" d="M362.031,181.382H149.969c-4.971,0-8.999-4.029-8.999-8.999v-27.418c0-4.971,4.029-8.999,8.999-8.999  h212.062c4.971,0,8.999,4.029,8.999,8.999v27.418C371.03,177.353,367.001,181.382,362.031,181.382z" fill="#d8d7da" data-original="#d8d7da"/>
<path xmlns="http://www.w3.org/2000/svg" style="" d="M205.253,172.382v-27.418c0-4.971,4.03-8.999,8.999-8.999h-64.284c-4.971,0-8.999,4.029-8.999,8.999  v27.418c0,4.971,4.029,8.999,8.999,8.999h64.284C209.283,181.382,205.253,177.353,205.253,172.382z" fill="#c6c5ca" data-original="#c6c5ca" class=""/>
<circle xmlns="http://www.w3.org/2000/svg" cx="292.38" cy="55.722" r="7.5" fill="#000000" data-original="#000000" style="" class=""/>
<circle xmlns="http://www.w3.org/2000/svg" cx="292.38" cy="85.715" r="7.5" fill="#000000" data-original="#000000" style="" class=""/>
<circle xmlns="http://www.w3.org/2000/svg" cx="292.38" cy="115.713" r="7.5" fill="#000000" data-original="#000000" style="" class=""/>
<path xmlns="http://www.w3.org/2000/svg" d="M407.026,414.068l-19.21-32.429c-5.653-9.542-8.094-20.885-6.874-31.937c0.344-3.123,0.667-6.259,0.959-9.32  c0.395-4.124-2.629-7.785-6.753-8.178c-4.104-0.393-7.784,2.629-8.178,6.752c-0.286,2.991-0.602,6.054-0.938,9.103  c-1.574,14.262,1.578,28.903,8.877,41.225l16.432,27.738c-4.997,4.322-14.706,11.795-29.385,19.202  c-20.75,10.468-55.975,22.949-105.956,22.949s-85.207-12.479-105.958-22.949c-14.685-7.409-24.396-14.884-29.387-19.201  l16.431-27.739c7.3-12.322,10.452-26.963,8.878-41.225c-1.936-17.534-4.634-49.363-3.489-83.017  c6.93,56.483,55.198,100.365,113.524,100.366c58.395,0,106.71-43.99,113.55-100.57c0.576,16.635,0.204,32.746-0.538,46.755  c-0.22,4.137,2.956,7.667,7.093,7.886c4.088,0.21,7.666-2.956,7.885-7.093c1.954-36.865,1.362-87.901-11.729-127.081  c3.814-3.025,6.272-7.688,6.272-12.922v-27.417c0-2.164-0.43-4.226-1.191-6.122c-2.267-16.535-7.651-38.2-19.992-60.327  c-17.497-31.369-44.596-56.159-80.548-73.683c-13.22-6.445-28.384-6.444-41.604,0c-18.066,8.806-34.085,19.588-47.611,32.047  c-3.047,2.807-3.242,7.551-0.436,10.597c2.807,3.046,7.551,3.241,10.597,0.435c10.248-9.44,22.116-17.835,35.327-25.07v105.623  h-81.368c3.749-17.258,11.159-37.644,25.487-57.462c2.427-3.357,1.673-8.044-1.684-10.471c-3.356-2.427-8.044-1.673-10.471,1.684  c-19.712,27.266-27.5,55.464-30.387,76.653c-0.754,1.888-1.181,3.942-1.181,6.096v27.417c0,5.236,2.46,9.9,6.275,12.925  c-17.488,52.174-13.065,124.752-8.688,164.396c1.22,11.051-1.222,22.393-6.875,31.936l-19.211,32.431  c-8.932,11.244-13.853,25.311-13.853,39.681v27.718c0,16.835,13.696,30.531,30.531,30.531h74.188c4.142,0,7.5-3.357,7.5-7.5  s-3.358-7.5-7.5-7.5h-74.188c-8.564,0-15.532-6.968-15.532-15.532v-27.718c0-8.42,2.209-16.704,6.312-23.986  c16.261,13.642,61.978,44.405,143.573,44.405s127.31-30.764,143.569-44.406c4.104,7.283,6.313,15.567,6.313,23.987v27.718  c0,8.564-6.968,15.532-15.532,15.532H225.502c-4.142,0-7.5,3.357-7.5,7.5s3.358,7.499,7.5,7.499h164.849  c16.835,0,30.531-13.696,30.531-30.531v-27.718C420.881,439.38,415.96,425.313,407.026,414.068z M362.031,143.464  c0.827,0,1.5,0.673,1.5,1.5v27.417c0,0.827-0.673,1.5-1.5,1.5H149.969c-0.827,0-1.5-0.673-1.5-1.5v-27.417  c0-0.827,0.673-1.5,1.5-1.5H362.031z M355.377,243.389c-0.005,8.765-1.833,15.788-5.436,20.871  c-2.248,3.172-5.644,5.117-9.561,5.477c-3.955,0.359-7.879-1.019-10.733-3.795l-18.999-18.476  c-7.201-7.001-17.62-9.247-26.931-6.106v-52.479h71.659v54.508H355.377z M243.273,188.881h25.445v64.397  c0,3.581-1.252,7.076-3.526,9.841l-8.04,9.782c-0.372,0.452-0.835,0.547-1.159,0.547s-0.787-0.095-1.159-0.548l-8.039-9.785  c-2.272-2.766-3.523-6.26-3.523-9.838L243.273,188.881L243.273,188.881z M228.274,188.881v52.478  c-9.309-3.141-19.73-0.894-26.928,6.107l-18.998,18.474c-2.854,2.775-6.761,4.156-10.736,3.794c-3.917-0.36-7.312-2.305-9.558-5.477  c-3.606-5.09-5.435-12.124-5.435-20.906v-54.47L228.274,188.881L228.274,188.881z M255.999,350.407  c-43.793,0-81.059-28.476-94.26-67.884c2.674,1.137,17.016,7.492,31.067-5.831l18.998-18.474c8.698-8.701,16.859-0.153,16.859-0.153  c0.85,5.322,3.097,10.372,6.545,14.57l8.039,9.786c3.146,3.829,7.792,6.026,12.747,6.026c0.001,0,0.001,0,0.002,0  c4.955,0,9.6-2.195,12.746-6.023l8.04-9.781c3.452-4.199,5.701-9.251,6.551-14.576c0,0,7.167-8.05,16.862,0.151l18.999,18.475  c15.053,13.071,28.392,6.969,31.068,5.831C337.057,321.931,299.793,350.407,255.999,350.407z M360.303,128.465h-81.378V22.81  C333.286,52.545,353.261,95.966,360.303,128.465z M248.073,16.015c5.213-1.324,10.639-1.325,15.852,0v112.45h-15.852V16.015z" fill="#000000" data-original="#000000" style="" class=""/>
<g xmlns="http://www.w3.org/2000/svg">
</g>
<g xmlns="http://www.w3.org/2000/svg">
</g>
<g xmlns="http://www.w3.org/2000/svg">
</g>
<g xmlns="http://www.w3.org/2000/svg">
</g>
<g xmlns="http://www.w3.org/2000/svg">
</g>
<g xmlns="http://www.w3.org/2000/svg">
</g>
<g xmlns="http://www.w3.org/2000/svg">
</g>
<g xmlns="http://www.w3.org/2000/svg">
</g>
<g xmlns="http://www.w3.org/2000/svg">
</g>
<g xmlns="http://www.w3.org/2000/svg">
</g>
<g xmlns="http://www.w3.org/2000/svg">
</g>
<g xmlns="http://www.w3.org/2000/svg">
</g>
<g xmlns="http://www.w3.org/2000/svg">
</g>
<g xmlns="http://www.w3.org/2000/svg">
</g>
<g xmlns="http://www.w3.org/2000/svg">
</g>
</g></svg>
