<svg id="Layer_3" enable-background="new 0 0 64 64" height="512" viewBox="0 0 64 64" width="512" xmlns="http://www.w3.org/2000/svg"><path d="m2 4h60v58h-60z" fill="#56493d"/><path d="m6 8h52v50h-52z" fill="#ab927a"/><path d="m36 14h18v24h-18z" fill="#f2f2f2"/><path d="m10 14h18v24h-18z" fill="#f2f2f2"/><path d="m23 34h-8v-4c0-2.209 1.791-4 4-4 2.209 0 4 1.791 4 4z" fill="#b13947"/><path d="m17.5 26.297c-1.465.594-2.5 2.025-2.5 3.703v4h5v-4c0-1.678-1.035-3.109-2.5-3.703z" fill="#ec4c5f"/><path d="m16 22v1c0 1.657 1.343 3 3 3 1.657 0 3-1.343 3-3v-1" fill="#fcc062"/><path d="m49 34h-8v-4c0-2.209 1.791-4 4-4 2.209 0 4 1.791 4 4z" fill="#386e8c"/><path d="m43.5 26.297c-1.465.594-2.5 2.025-2.5 3.703v4h5v-4c0-1.678-1.035-3.109-2.5-3.703z" fill="#4a92bb"/><path d="m42 22v1c0 1.657 1.343 3 3 3 1.657 0 3-1.343 3-3v-1" fill="#fcc062"/><path d="m16 18h6v4h-6z" fill="#806e5c"/><path d="m16 18h3v4h-3z" fill="#ab927a"/><path d="m42 18h6v4h-6z" fill="#806e5c"/><path d="m42 18h3v4h-3z" fill="#ab927a"/><path d="m22 2h20v8h-20z" fill="#999"/><path d="m22 2h17v8h-17z" fill="#ccc"/><path d="m62 63h-60c-.553 0-1-.448-1-1v-58c0-.552.447-1 1-1h20v2h-19v56h58v-56h-19v-2h20c.553 0 1 .448 1 1v58c0 .552-.447 1-1 1z"/><path d="m58 59h-52c-.553 0-1-.448-1-1v-50c0-.552.447-1 1-1h16v2h-15v48h50v-48h-15v-2h16c.553 0 1 .448 1 1v50c0 .552-.447 1-1 1z"/><path d="m23 22h-2v-3h-4v3h-2v-4c0-.552.447-1 1-1h6c.553 0 1 .448 1 1z"/><path d="m13 21h12v2h-12z"/><path d="m19 27c-2.206 0-4-1.794-4-4v-1h2v1c0 1.103.897 2 2 2s2-.897 2-2v-1h2v1c0 2.206-1.794 4-4 4z"/><path d="m23 35h-8c-.553 0-1-.448-1-1v-4c0-2.757 2.243-5 5-5s5 2.243 5 5v4c0 .552-.447 1-1 1zm-7-2h6v-3c0-1.654-1.346-3-3-3s-3 1.346-3 3z"/><path d="m28 39h-18c-.553 0-1-.448-1-1v-24c0-.552.447-1 1-1h18c.553 0 1 .448 1 1v24c0 .552-.447 1-1 1zm-17-2h16v-22h-16z"/><path d="m49 22h-2v-3h-4v3h-2v-4c0-.552.447-1 1-1h6c.553 0 1 .448 1 1z"/><path d="m39 21h12v2h-12z"/><path d="m45 27c-2.206 0-4-1.794-4-4v-1h2v1c0 1.103.897 2 2 2s2-.897 2-2v-1h2v1c0 2.206-1.794 4-4 4z"/><path d="m49 35h-8c-.553 0-1-.448-1-1v-4c0-2.757 2.243-5 5-5s5 2.243 5 5v4c0 .552-.447 1-1 1zm-7-2h6v-3c0-1.654-1.346-3-3-3s-3 1.346-3 3z"/><path d="m54 39h-18c-.553 0-1-.448-1-1v-24c0-.552.447-1 1-1h18c.553 0 1 .448 1 1v24c0 .552-.447 1-1 1zm-17-2h16v-22h-16z"/><path d="m48 53h-3v-2h3c.552 0 1-.449 1-1s-.448-1-1-1c-1.654 0-3-1.346-3-3s1.346-3 3-3h3v2h-3c-.552 0-1 .449-1 1s.448 1 1 1c1.654 0 3 1.346 3 3s-1.346 3-3 3z"/><path d="m47 41h2v3h-2z"/><path d="m47 52h2v3h-2z"/><path d="m42 11h-20c-.553 0-1-.448-1-1v-8c0-.552.447-1 1-1h20c.553 0 1 .448 1 1v8c0 .552-.447 1-1 1zm-19-2h18v-6h-18z"/><path d="m17 52h-2v-5.586l-1.293 1.293-1.414-1.414 3-3c.286-.287.716-.372 1.09-.217s.617.52.617.924z"/><path d="m13 51h6v2h-6z"/><path d="m24 53c-1.654 0-3-1.346-3-3v-4c0-1.654 1.346-3 3-3s3 1.346 3 3v4c0 1.654-1.346 3-3 3zm0-8c-.552 0-1 .449-1 1v4c0 .551.448 1 1 1s1-.449 1-1v-4c0-.551-.448-1-1-1z"/><path d="m32 53c-1.654 0-3-1.346-3-3v-4c0-1.654 1.346-3 3-3s3 1.346 3 3v4c0 1.654-1.346 3-3 3zm0-8c-.552 0-1 .449-1 1v4c0 .551.448 1 1 1s1-.449 1-1v-4c0-.551-.448-1-1-1z"/><path d="m40 53c-1.654 0-3-1.346-3-3v-4c0-1.654 1.346-3 3-3s3 1.346 3 3v4c0 1.654-1.346 3-3 3zm0-8c-.552 0-1 .449-1 1v4c0 .551.448 1 1 1s1-.449 1-1v-4c0-.551-.448-1-1-1z"/><path d="m25 5h14v2h-14z"/></svg>