<svg id="Layer_3" enable-background="new 0 0 64 64" height="512" viewBox="0 0 64 64" width="512" xmlns="http://www.w3.org/2000/svg"><path d="m20 2h24v36h-24z" fill="#ccc"/><path d="m20 2h21v36h-21z" fill="#e6e6e6"/><path d="m2 26h24v36h-24z" fill="#ccc"/><path d="m2 26h21v36h-21z" fill="#e6e6e6"/><path d="m38 26h24v36h-24z" fill="#ccc"/><path d="m38 26h21v36h-21z" fill="#e6e6e6"/><path d="m50 34-6 10 6 10 6-10z" fill="#b13947"/><path d="m44 44 4.5 7.5 4.5-7.5-4.5-7.5z" fill="#ec4c5f"/><path d="m14 34-6 10 6 10 6-10z" fill="#b13947"/><path d="m8 44 4.5 7.5 4.5-7.5-4.5-7.5z" fill="#ec4c5f"/><path d="m32 10-6 10 6 10 6-10z" fill="#b13947"/><path d="m26 20 4.5 7.5 4.5-7.5-4.5-7.5z" fill="#ec4c5f"/><path d="m26 63h-24c-.552 0-1-.448-1-1v-36c0-.552.448-1 1-1h24c.552 0 1 .448 1 1v36c0 .552-.448 1-1 1zm-23-2h22v-34h-22z"/><path d="m14 55c-.351 0-.677-.184-.857-.485l-6-10c-.19-.317-.19-.712 0-1.029l6-10c.361-.603 1.354-.603 1.715 0l6 10c.19.317.19.712 0 1.029l-6 10c-.181.301-.507.485-.858.485zm-4.834-11 4.834 8.056 4.834-8.056-4.834-8.056z"/><path d="m5 29h2v2h-2z"/><path d="m21 29h2v2h-2z"/><path d="m21 57h2v2h-2z"/><path d="m5 57h2v2h-2z"/><path d="m62 63h-24c-.552 0-1-.448-1-1v-36c0-.552.448-1 1-1h24c.552 0 1 .448 1 1v36c0 .552-.448 1-1 1zm-23-2h22v-34h-22z"/><path d="m50 55c-.351 0-.677-.184-.857-.485l-6-10c-.19-.317-.19-.712 0-1.029l6-10c.361-.603 1.354-.603 1.715 0l6 10c.19.317.19.712 0 1.029l-6 10c-.181.301-.507.485-.858.485zm-4.834-11 4.834 8.056 4.834-8.056-4.834-8.056z"/><path d="m41 29h2v2h-2z"/><path d="m57 29h2v2h-2z"/><path d="m57 57h2v2h-2z"/><path d="m41 57h2v2h-2z"/><path d="m45 26h-2v-23h-22v23h-2v-24c0-.552.448-1 1-1h24c.552 0 1 .448 1 1z"/><path d="m26 37h12v2h-12z"/><path d="m32 31c-.351 0-.677-.184-.857-.485l-6-10c-.19-.317-.19-.712 0-1.029l6-10c.361-.603 1.354-.603 1.715 0l6 10c.19.317.19.712 0 1.029l-6 10c-.181.301-.507.485-.858.485zm-4.834-11 4.834 8.056 4.834-8.056-4.834-8.056z"/><path d="m23 5h2v2h-2z"/><path d="m39 5h2v2h-2z"/></svg>