<svg id="Capa_1" enable-background="new 0 0 512.367 512.367" height="512" viewBox="0 0 512.367 512.367" width="512" xmlns="http://www.w3.org/2000/svg"><g><g><g><path d="m441.204 10.988 7.611 11.595c2.346 3.573 1.35 8.372-2.223 10.717l-352.549 231.421c-3.573 2.346-8.371 1.35-10.717-2.223l-7.611-11.595c-2.346-3.573-1.35-8.371 2.223-10.717l352.549-231.421c3.573-2.346 8.371-1.351 10.717 2.223z" fill="#e3b783"/></g></g><g><g><path d="m155.045 169.6 31.414 47.857c6.743 10.272 14.952 19.503 24.367 27.399l52.53 44.055c-24.887 36.203-62.976 61.205-106.091 69.641l-19.528-65.718c-3.5-11.779-8.704-22.982-15.447-33.254l-31.415-47.857c-1.406-2.142-.809-5.018 1.332-6.424l56.412-37.03c2.144-1.407 5.02-.811 6.426 1.331z" fill="#c8c3ca"/></g></g><g><g><path d="m232.631 267.411c-22.207 26.9-52.275 46.241-86.023 55.275" fill="#fbfbfb"/></g></g><g><g><path d="m146.608 322.686 10.657 35.865c43.114-8.435 81.203-33.438 106.091-69.641l-28.667-24.042c-.678.855-1.364 1.703-2.058 2.543" fill="#fbfbfb"/></g></g><g><g><path d="m210.826 244.855c-9.415-7.896-17.624-17.127-24.367-27.398l-31.414-47.857c-1.406-2.142-4.282-2.738-6.424-1.333l-17.088 11.217 24.926 37.973c6.743 10.272 14.952 19.503 24.367 27.398l52.53 44.055c-19.411 28.235-46.852 49.656-78.445 61.72l2.354 7.92c43.114-8.435 81.203-33.438 106.091-69.64z" fill="#b1abb4"/></g></g><g><g><path d="m234.689 264.868c-.678.855-1.364 1.703-2.058 2.543l-14.104 9.063 14.829 12.437c-19.411 28.235-46.852 49.656-78.445 61.72l2.354 7.921c43.114-8.435 81.203-33.438 106.091-69.641z" fill="#e3e0e4"/></g></g><g><g><path d="m317.989 504.867h-247.8c-4.369 0-7.911-3.542-7.911-7.911v-145.234c0-4.369 3.542-7.911 7.911-7.911h247.8c4.369 0 7.911 3.542 7.911 7.911v145.233c0 4.369-3.542 7.912-7.911 7.912z" fill="#c7865b"/></g></g><g><g><path d="m317.989 343.811h-30c4.369 0 7.911 3.542 7.911 7.911v145.233c0 4.37-3.542 7.912-7.911 7.912h30c4.369 0 7.911-3.542 7.911-7.912v-145.233c0-4.369-3.542-7.911-7.911-7.911z" fill="#c27e4e"/></g></g><g><path d="m455.085 18.467-7.612-11.595c-4.61-7.025-14.077-8.987-21.102-4.377l-178.815 117.378c-3.463 2.273-4.427 6.923-2.154 10.386s6.924 4.427 10.386 2.154l178.814-117.379c.11-.071.259-.041.332.069l7.612 11.595c.018.029.054.083.034.18s-.074.132-.103.151l-260.01 170.677-7.874-11.995 58.157-38.175c3.463-2.273 4.427-6.923 2.154-10.386-2.274-3.463-6.924-4.427-10.386-2.154l-58.157 38.175-5.046-7.687c-3.673-5.595-11.213-7.159-16.81-3.487l-56.414 37.031c-5.595 3.673-7.158 11.214-3.485 16.809l5.046 7.687-15.832 10.392c-7.024 4.612-8.987 14.079-4.377 21.103l7.612 11.595c2.923 4.453 7.797 6.873 12.763 6.873 2.868 0 5.767-.807 8.339-2.495l15.831-10.392 2.032 3.095c6.346 9.667 11.234 20.189 14.527 31.274l12.284 41.342h-72.642c-8.498 0-15.411 6.914-15.411 15.411v145.233c0 8.498 6.914 15.412 15.411 15.412h144.904c4.142 0 7.5-3.358 7.5-7.501 0-4.142-3.358-7.5-7.5-7.5h-27.975v-27.452c0-4.142-3.358-7.5-7.5-7.5s-7.5 3.358-7.5 7.5v27.452h-50.475v-63.701c0-4.142-3.358-7.5-7.5-7.5s-7.5 3.358-7.5 7.5v63.701h-36.454c-.227 0-.411-.184-.411-.412v-145.232c0-.227.185-.411.411-.411h36.455v25.168c0 4.142 3.358 7.5 7.5 7.5s7.5-3.358 7.5-7.5v-25.168h50.475v58.914c0 4.142 3.358 7.5 7.5 7.5s7.5-3.358 7.5-7.5v-58.914h87.322v25.168c0 4.142 3.358 7.5 7.5 7.5s7.5-3.358 7.5-7.5v-25.168h28.548c.227 0 .412.185.412.411v145.233c0 .227-.185.412-.412.412h-16.051v-23.414c0-4.142-3.358-7.5-7.5-7.5s-7.5 3.358-7.5 7.5v23.414h-41.844c-4.142 0-7.5 3.358-7.5 7.5s3.358 7.501 7.5 7.501h72.896c8.498 0 15.412-6.914 15.412-15.412v-145.234c0-8.498-6.913-15.411-15.412-15.411h-90.79c16.448-11.806 30.837-26.424 42.337-43.152 2.189-3.185 1.6-7.512-1.361-9.995l-52.53-44.055c-8.86-7.431-16.571-16.1-22.917-25.768l-2.031-3.095 260.009-170.676c3.403-2.234 5.733-5.659 6.56-9.645s.052-8.055-2.182-11.458zm-365.158 239.985c-.029.018-.081.052-.18.034-.097-.021-.132-.075-.151-.104l-7.612-11.595c-.072-.11-.041-.259.069-.332l15.831-10.392 7.874 11.995zm108.637 77.859h-40.083l-2.539-8.544c30.712-9.719 58.563-28.001 79.696-52.314l17.565 14.731c-14.471 19.23-33.232 35.078-54.639 46.127zm7.443-85.709 18.135 15.21c-19.25 22.076-44.564 38.692-72.474 47.574l-6.742-22.689c-3.711-12.488-9.217-24.342-16.366-35.233l-29.845-45.466 51.629-33.89 29.844 45.465c7.151 10.891 15.837 20.658 25.819 29.029z"/><path d="m245.093 475.229c4.142 0 7.5-3.358 7.5-7.5v-53.335c0-4.142-3.358-7.5-7.5-7.5s-7.5 3.358-7.5 7.5v53.335c0 4.142 3.358 7.5 7.5 7.5z"/></g></g></svg>