<?xml version="1.0" encoding="iso-8859-1"?>
<!-- Generator: Adobe Illustrator 19.0.0, SVG Export Plug-In . SVG Version: 6.00 Build 0)  -->
<svg version="1.1" id="Capa_1" xmlns="http://www.w3.org/2000/svg" xmlns:xlink="http://www.w3.org/1999/xlink" x="0px" y="0px"
	 viewBox="0 0 512 512" style="enable-background:new 0 0 512 512;" xml:space="preserve">
<path style="fill:#FF3F62;" d="M292.909,388.697v-82.343h-73.818v82.343l-77.493,13.929c-27.633,4.968-47.741,29.012-47.741,57.089
	v28.558c0,13.105,10.623,23.728,23.728,23.728h276.828c13.105,0,23.728-10.623,23.728-23.728v-28.558
	c0-28.076-20.108-52.121-47.741-57.089L292.909,388.697z"/>
<path style="fill:#FF0C38;" d="M223.573,402.669l7.202-1.295c-8.088-3.458-16.493-7.046-24.355-10.401l-64.822,11.652
	c-27.633,4.968-47.741,29.012-47.741,57.089v28.558c0,13.105,10.623,23.728,23.728,23.728h80.6
	c-12.464-0.713-22.354-11.042-22.354-23.686v-28.558C175.832,431.681,195.94,407.635,223.573,402.669z"/>
<path style="fill:#ACABB1;" d="M405.242,423.267l-20.086-33.908c-6.723-11.351-9.562-24.574-8.115-37.687
	c4.107-37.21,9.815-118.885-10.931-172.608v71.794c0,60.561-49.55,110.111-110.111,110.112
	c-60.561,0-110.111-49.551-110.111-110.112v-71.794c-20.747,53.723-15.039,135.398-10.931,172.608
	c1.447,13.112-1.391,26.337-8.115,37.687l-20.086,33.908c0,0,45.714,49.757,149.245,49.757S405.242,423.267,405.242,423.267z"/>
<g>
	<path style="fill:#898890;" d="M208.27,438.799c-11.575-7.547-15.182-22.844-8.139-34.734l8.687-14.665
		c6.361-10.739,9.239-23.155,8.305-35.568c-41.523-15.799-71.234-56.082-71.234-102.975v-71.794
		c-20.747,53.722-15.039,135.398-10.931,172.608c1.447,13.112-1.391,26.337-8.115,37.687l-20.086,33.908
		c0,0,45.714,49.757,149.245,49.757c14.782,0,28.38-1.018,40.84-2.757C254.604,464.325,225.539,450.059,208.27,438.799z"/>
	<path style="fill:#898890;" d="M298.095,422.098c-3.904-1.722-5.673-6.283-3.952-10.187l16.037-36.365
		c1.721-3.904,6.282-5.674,10.187-3.952c3.904,1.722,5.673,6.283,3.952,10.187l-16.037,36.365
		C306.561,422.051,302.001,423.821,298.095,422.098z"/>
	<path style="fill:#898890;" d="M326.839,435.214c-3.904-1.722-5.673-6.283-3.952-10.187l16.037-36.365
		c1.721-3.904,6.282-5.674,10.187-3.952c3.904,1.721,5.673,6.283,3.952,10.187l-16.037,36.365
		C335.304,435.167,330.744,436.936,326.839,435.214z"/>
</g>
<path style="fill:#FFDAAA;" d="M256,360.971L256,360.971c-60.561,0-110.112-49.551-110.112-110.112v-91.809
	c0-60.561,49.551-110.112,110.112-110.112l0,0c60.561,0,110.112,49.551,110.112,110.112v91.809
	C366.112,311.421,316.561,360.971,256,360.971z"/>
<path style="fill:#FFC477;" d="M179.417,250.859v-91.809c0-54.865,40.667-100.692,93.347-108.828
	c-5.469-0.845-11.068-1.284-16.764-1.284l0,0c-60.561,0-110.112,49.551-110.112,110.112v91.809
	c0,60.561,49.551,110.112,110.112,110.112l0,0c5.696,0,11.295-0.439,16.764-1.284C220.085,351.551,179.417,305.725,179.417,250.859z
	"/>
<path style="fill:#CC7400;" d="M256,360.971L256,360.971c60.561,0,110.112-49.551,110.112-110.112v-7.908
	c0,12.003-2.97,20.288-7.023,26.007c-7.622,10.757-23.147,11.995-32.599,2.804l-19.574-19.034c-6.012-5.845-15.079-7.213-22.547-3.4
	l-7.535,3.848h-41.671l-7.535-3.848c-7.468-3.814-16.535-2.447-22.547,3.4l-19.574,19.033c-9.452,9.191-24.978,7.953-32.599-2.805
	c-4.052-5.72-7.021-14.004-7.021-26.005v7.908C145.888,311.421,195.439,360.971,256,360.971z"/>
<path style="fill:#AA6100;" d="M182.003,274.528c-9.436,6.005-22.355,3.943-29.094-5.571c-4.052-5.72-7.021-14.004-7.021-26.005
	v7.908c0,60.561,49.551,110.112,110.112,110.112l0,0c5.697,0,11.295-0.439,16.764-1.284
	C227.88,352.756,191.724,318.46,182.003,274.528z"/>
<g>
	<circle style="fill:#008877;" cx="203.059" cy="207.262" r="12.877"/>
	<circle style="fill:#008877;" cx="308.941" cy="207.262" r="12.877"/>
</g>
<path style="fill:#C6C5CA;" d="M237.954,4.164C125.319,59.063,137.49,167.454,137.49,167.454h237.02
	c0,0,12.171-108.39-100.464-163.29C262.656-1.388,249.344-1.388,237.954,4.164z"/>
<g>
	<path style="fill:#ACABB1;" d="M286.801,10.922c-4.07-2.327-8.304-4.588-12.756-6.758c-11.39-5.552-24.702-5.552-36.091,0
		C125.319,59.063,137.49,167.454,137.49,167.454h52.937C189.622,146.674,192.217,59.599,286.801,10.922z"/>
	<path style="fill:#ACABB1;" d="M240.108,3.189v164.264h31.784V3.189C261.727-1.063,250.273-1.063,240.108,3.189z"/>
</g>
<path style="fill:#898890;" d="M271.892,3.189c-10.165-4.253-21.619-4.253-31.784,0v40.963c8.921-8.744,19.428-17.116,31.784-24.796
	V3.189z"/>
<g>
	<circle style="fill:#ACABB1;" cx="293.488" cy="49.644" r="7.726"/>
	<circle style="fill:#ACABB1;" cx="293.488" cy="80.55" r="7.726"/>
	<circle style="fill:#ACABB1;" cx="293.488" cy="111.455" r="7.726"/>
</g>
<path style="fill:#C6C5CA;" d="M235.162,145.584v107.593c0,5.486,1.904,10.801,5.386,15.04l8.282,10.082
	c3.709,4.514,10.617,4.515,14.327,0.002l8.284-10.078c3.485-4.239,5.39-9.557,5.39-15.046V145.584H235.162z"/>
<path style="fill:#ACABB1;" d="M255.997,145.584v136.101c2.654-0.001,5.306-1.128,7.161-3.384l8.284-10.078
	c3.485-4.239,5.39-9.557,5.39-15.046V145.584H255.997z"/>
<path style="fill:#D8D7DA;" d="M365.238,179.107H146.762c-5.121,0-9.272-4.151-9.272-9.272v-28.248c0-5.121,4.151-9.272,9.272-9.272
	h218.477c5.121,0,9.272,4.151,9.272,9.272v28.248C374.51,174.956,370.358,179.107,365.238,179.107z"/>
<path style="fill:#C6C5CA;" d="M203.718,169.836v-28.248c0-5.121,4.152-9.272,9.272-9.272h-66.228c-5.121,0-9.272,4.151-9.272,9.272
	v28.248c0,5.121,4.151,9.272,9.272,9.272h66.228C207.87,179.107,203.718,174.956,203.718,169.836z"/>
<g>
</g>
<g>
</g>
<g>
</g>
<g>
</g>
<g>
</g>
<g>
</g>
<g>
</g>
<g>
</g>
<g>
</g>
<g>
</g>
<g>
</g>
<g>
</g>
<g>
</g>
<g>
</g>
<g>
</g>
</svg>
