<svg id="Capa_1" enable-background="new 0 0 507.138 507.138" height="512" viewBox="0 0 507.138 507.138" width="512" xmlns="http://www.w3.org/2000/svg"><g><g><path d="m451.065 214.603-47.138-125.638 23.608-46.324c1.138-2.232.708-4.943-1.063-6.715l-26.724-26.724c-2.089-2.089-5.416-2.268-7.717-.415l-72.683 58.53c-2.328 1.875-3.172 5.044-2.085 7.828l64.96 166.319c22.553 57.743-4.225 118.966-54.099 145.29-4.097 2.162-9.153 1.171-12.207-2.312l-14.581-16.628c-2.223-2.536-5.432-3.989-8.805-3.989h-78.934c-3.372 0-6.581 1.454-8.804 3.989l-14.258 16.259c-3.071 3.502-8.163 4.485-12.266 2.281-49.394-26.54-75.792-87.436-53.353-144.889l64.96-166.319c1.088-2.785.244-5.953-2.085-7.828l-72.681-58.531c-2.301-1.853-5.628-1.674-7.717.415l-26.724 26.724c-1.772 1.772-2.201 4.483-1.063 6.715l23.608 46.324-47.138 125.638c-51.741 137.906 50.201 285.035 197.494 285.035h.001c147.293 0 249.235-147.129 197.494-285.035z" fill="#efedef"/><g><path d="m96.63 214.603 40.764-108.649c4.061-10.824 3.384-22.856-1.865-33.156l-9.374-18.394c-4.712-9.246-2.934-20.475 4.404-27.813l2.971-2.971-18.42-14.833c-2.301-1.853-5.628-1.674-7.717.415l-26.724 26.724c-1.772 1.772-2.201 4.483-1.063 6.715l23.608 46.324-47.138 125.638c-51.741 137.906 50.202 285.035 197.494 285.035h.001c6.861 0 13.623-.321 20.277-.944-136.179-12.745-226.548-152.609-177.218-284.091z" fill="#e5e1e5"/></g><circle cx="253.065" cy="428.466" fill="#d7d0d6" r="27.063"/></g><g><path d="m395.905 434.095c-38.051 37.43-88.6 58.043-142.334 58.043-34.455 0-66.991-8.155-96.704-24.239-27.881-15.093-52.266-36.994-70.517-63.336-18.252-26.342-30.191-56.865-34.527-88.271-4.622-33.47-.828-66.796 11.275-99.055l47.139-125.637c.739-1.972.616-4.164-.34-6.04l-23.042-45.213 24.752-24.752 71.111 57.264-37.908 97.057c-1.507 3.858.399 8.208 4.258 9.715 3.861 1.506 8.208-.399 9.715-4.258l38.082-97.501c2.287-5.862.532-12.452-4.368-16.397l-72.683-58.53c-5.297-4.265-12.915-3.855-17.725.953l-26.725 26.725c-4.081 4.082-5.062 10.28-2.441 15.424l22.107 43.379-45.977 122.543c-12.988 34.619-17.057 70.409-12.09 106.376 4.657 33.727 17.471 66.494 37.057 94.762s45.765 51.776 75.706 67.983c31.931 17.285 66.868 26.049 103.845 26.049 57.694 0 111.979-22.143 152.854-62.35 2.952-2.904 2.991-7.653.087-10.606-2.907-2.955-7.655-2.992-10.607-.088z"/><path d="m458.087 211.969-45.976-122.543 22.107-43.379c2.621-5.144 1.64-11.342-2.441-15.424l-26.725-26.725c-4.808-4.806-12.427-5.217-17.725-.953l-72.682 58.529c-4.901 3.945-6.656 10.535-4.368 16.399l64.96 166.318c20.162 51.62-1.598 110.057-50.614 135.929-1.001.529-2.288.265-3.067-.625l-14.581-16.628c-3.647-4.159-8.912-6.544-14.443-6.544h-78.934c-5.531 0-10.796 2.385-14.443 6.545l-14.257 16.258c-.785.896-2.08 1.155-3.078.619-22.884-12.296-40.701-32.522-50.17-56.955-9.778-25.23-9.688-53.145.254-78.599l14.829-37.967c1.507-3.858-.399-8.208-4.258-9.715-3.859-1.505-8.207.4-9.715 4.258l-14.829 37.967c-11.311 28.96-11.406 60.736-.268 89.476 10.76 27.766 31.023 50.761 57.057 64.748 7.203 3.871 16.025 2.251 21.455-3.942l14.257-16.258c.8-.911 1.953-1.435 3.166-1.435h78.934c1.213 0 2.366.523 3.166 1.435l14.58 16.627c5.387 6.146 14.164 7.791 21.348 4.001 55.768-29.436 80.523-95.921 57.585-154.651l-64.788-165.876 71.112-57.264 24.751 24.752-23.042 45.213c-.956 1.876-1.079 4.068-.34 6.04l47.138 125.638c12.188 32.485 15.948 66.04 11.174 99.732-4.479 31.613-16.655 62.283-35.212 88.695-2.381 3.389-1.564 8.067 1.825 10.448 1.312.922 2.815 1.364 4.305 1.364 2.36 0 4.684-1.111 6.144-3.189 19.913-28.342 32.98-61.266 37.791-95.214 5.129-36.206 1.098-72.242-11.982-107.105z"/><path d="m287.628 428.466c0-19.059-15.505-34.563-34.563-34.563s-34.563 15.505-34.563 34.563 15.505 34.563 34.563 34.563 34.563-15.505 34.563-34.563zm-54.127 0c0-10.787 8.776-19.563 19.563-19.563s19.563 8.776 19.563 19.563-8.776 19.563-19.563 19.563c-10.786 0-19.563-8.776-19.563-19.563z"/><path d="m342.428 439.348c1.313 0 2.644-.345 3.852-1.069l10.482-6.289c3.552-2.132 4.704-6.738 2.573-10.29-2.131-3.553-6.739-4.703-10.29-2.573l-10.482 6.289c-3.552 2.132-4.704 6.738-2.573 10.29 1.406 2.344 3.89 3.642 6.438 3.642z"/><path d="m394.039 391.918c2.308 0 4.585-1.062 6.054-3.065l5.766-7.862c2.449-3.341 1.728-8.034-1.612-10.483s-8.034-1.727-10.483 1.612l-5.766 7.862c-2.449 3.341-1.728 8.034 1.612 10.483 1.337.98 2.889 1.453 4.429 1.453z"/><path d="m421.563 336.887c3.185 0 6.14-2.045 7.15-5.243l3.145-9.958c1.247-3.95-.944-8.163-4.894-9.411-3.953-1.247-8.163.944-9.411 4.894l-3.145 9.958c-1.247 3.95.944 8.163 4.894 9.411.752.237 1.513.349 2.261.349z"/><path d="m417.331 267.64c.671 3.61 3.822 6.132 7.365 6.132.455 0 .915-.041 1.378-.127 4.073-.757 6.761-4.671 6.005-8.743l-1.572-8.466c-.758-4.074-4.682-6.762-8.743-6.005-4.073.757-6.761 4.671-6.005 8.743z"/><path d="m417.101 211.844-3.663-10.354c-1.382-3.905-5.666-5.952-9.571-4.569-3.905 1.381-5.951 5.667-4.569 9.571l3.663 10.354c1.089 3.078 3.981 5.001 7.07 5.001.83 0 1.674-.139 2.501-.432 3.905-1.38 5.951-5.666 4.569-9.571z"/><path d="m387.146 172.195c1.215 2.852 3.987 4.562 6.903 4.562.98 0 1.977-.193 2.936-.603 3.811-1.623 5.584-6.028 3.96-9.839l-4.738-11.121c-1.623-3.811-6.028-5.585-9.839-3.96-3.811 1.623-5.584 6.028-3.96 9.839z"/><path d="m377.82 106.678c-1.623-3.811-6.027-5.586-9.839-3.96-3.811 1.623-5.584 6.028-3.96 9.839l4.738 11.121c1.215 2.852 3.987 4.562 6.903 4.562.98 0 1.977-.193 2.936-.603 3.811-1.623 5.584-6.028 3.96-9.839z"/><path d="m159.85 438.279c1.208.725 2.538 1.069 3.852 1.069 2.548 0 5.032-1.299 6.438-3.643 2.131-3.552.979-8.158-2.573-10.29l-10.482-6.289c-3.551-2.13-8.159-.979-10.29 2.573s-.979 8.158 2.573 10.29z"/><path d="m106.036 388.852c1.47 2.004 3.746 3.065 6.054 3.065 1.539 0 3.093-.473 4.43-1.453 3.34-2.449 4.062-7.143 1.612-10.483l-5.766-7.862c-2.449-3.341-7.143-4.062-10.483-1.612-3.34 2.449-4.062 7.143-1.612 10.483z"/><path d="m74.272 321.686 3.145 9.958c1.011 3.198 3.965 5.243 7.15 5.243.748 0 1.509-.113 2.261-.35 3.949-1.248 6.141-5.461 4.894-9.411l-3.145-9.958c-1.248-3.949-5.457-6.138-9.411-4.894-3.95 1.249-6.141 5.462-4.894 9.412z"/><path d="m80.055 273.645c.463.086.923.127 1.378.127 3.543 0 6.694-2.522 7.365-6.132l1.572-8.466c.756-4.072-1.932-7.986-6.005-8.743-4.063-.753-7.986 1.933-8.743 6.005l-1.572 8.466c-.756 4.072 1.932 7.986 6.005 8.743z"/><path d="m96.099 221.847c3.089 0 5.981-1.923 7.07-5.001l3.663-10.354c1.382-3.904-.664-8.19-4.569-9.571-3.906-1.384-8.19.664-9.571 4.569l-3.663 10.354c-1.382 3.904.664 8.19 4.569 9.571.827.294 1.671.432 2.501.432z"/><path d="m118.984 172.195 4.738-11.121c1.624-3.811-.149-8.216-3.96-9.839-3.811-1.625-8.215.149-9.839 3.96l-4.738 11.121c-1.624 3.811.149 8.216 3.96 9.839.959.409 1.955.603 2.936.603 2.915 0 5.688-1.711 6.903-4.563z"/><path d="m127.531 127.638c.959.409 1.955.603 2.936.603 2.916 0 5.688-1.711 6.903-4.562l4.738-11.121c1.624-3.811-.149-8.216-3.96-9.839-3.812-1.626-8.216.149-9.839 3.96l-4.738 11.121c-1.624 3.81.15 8.215 3.96 9.838z"/></g></g></svg>