<svg id="Layer_1" height="512" viewBox="0 0 512 512" width="512" xmlns="http://www.w3.org/2000/svg" data-name="Layer 1"><path d="m256 9.77a6 6 0 0 0 -6 6v71.994h12v-71.994a6 6 0 0 0 -6-6z" fill="#6d7486"/><path d="m186.79 169.77h138.42v142.2h-138.42z" fill="#c6ac95"/><path d="m186.79 170.77h30v141.2h-30z" fill="#efccac"/><path d="m373.31 242.18.55 228.72h84.48v-228.72z" fill="#c6ac95"/><path d="m342.46 292.75v18.22h-17.25-16.14v-18.22h-37.38v18.22h-31.38v-18.22h-37.38v18.22h-16.14-17.25v-18.22h-35.4v176.15h243.72v-176.15z" fill="#c19678"/><path d="m301.05 38.22-45.01 19.59h-.04v-40.73h.04z" fill="#50dd5a"/><path d="m277.3 232.19v28.64h-42.6v-28.64a21.3 21.3 0 0 1 42.6 0z" fill="#ae8567"/><path d="m256 78.59-85.38 92.18h170.76z" fill="#e26764"/><path d="m256 78.59-85.38 92.18h30l70.38-75.985z" fill="#f97d7a"/><path d="m134.14 292.75h30v176.15h-30z" fill="#ad826a"/><path d="m209.13 207.917a6 6 0 0 1 -6-6v-4.6a6 6 0 0 1 12 0v4.6a6 6 0 0 1 -6 6z" fill="#f4f8fc"/><path d="m209.13 263.592a6 6 0 0 1 -6-6v-37.507a6 6 0 0 1 12 0v37.507a6 6 0 0 1 -6 6z" fill="#f4f8fc"/><g fill="#896049"><path d="m165.688 348.272h-14.51a6 6 0 0 1 0-12h14.51a6 6 0 0 1 0 12z"/><path d="m238.453 363.457h-18.559a6 6 0 0 1 0-12h18.559a6 6 0 0 1 0 12z"/><path d="m377.019 342.2h-16.535a6 6 0 0 1 0-12h16.535a6 6 0 0 1 0 12z"/><path d="m340.575 394.839h-15.522a6 6 0 0 1 0-12h15.522a6 6 0 0 1 0 12z"/><path d="m185.935 397.876h-14.51a6 6 0 1 1 0-12h14.51a6 6 0 0 1 0 12z"/><path d="m151.516 426.221h-17.547a6 6 0 0 1 0-12h17.547a6 6 0 0 1 0 12z"/><path d="m377.019 446.468h-17.547a6 6 0 0 1 0-12h17.547a6 6 0 0 1 0 12z"/><path d="m298.181 350.127h-14.511a6 6 0 0 1 0-12h14.511a6 6 0 0 1 0 12z"/><path d="m321.423 434.151h-31.51a6 6 0 0 1 0-12h31.51a6 6 0 0 1 0 12z"/><path d="m221.243 454.566h-21.485a6 6 0 1 1 0-12h21.485a6 6 0 0 1 0 12z"/></g><path d="m289.91 467.78v1.12h-67.82v-45.56a28.332 28.332 0 0 1 13.81-24.34l20.1-12 20.1 12a28.332 28.332 0 0 1 13.81 24.34z" fill="#7b86c8"/><path d="m235.9 399a28.332 28.332 0 0 0 -13.81 24.34v45.56h23v-45.56a28.332 28.332 0 0 1 13.81-24.34l8.6-5.134-11.5-6.866z" fill="#6c7bb7"/><path d="m53.66 243.2v226.7h85.48l-.45-225.72z" fill="#c6ac95"/><path d="m78.09 246.18h-24.43v223.72h30v-223.72z" fill="#efccac"/><path d="m131.73 181.4v18.22h-24.23v-18.22h-22.65v18.22h-24.23v-18.22h-22.65v54.66a10.119 10.119 0 0 0 10.12 10.12h96.17a10.119 10.119 0 0 0 10.12-10.12v-54.66z" fill="#c79a83"/><path d="m67.97 236.06v-36.44h-7.35v-18.22h-22.65v54.66a10.119 10.119 0 0 0 10.12 10.12h30a10.119 10.119 0 0 1 -10.12-10.12z" fill="#f2c0aa"/><path d="m75.493 308.939h-21.493v12h21.5a6 6 0 0 0 0-12z" fill="#ae8567"/><path d="m90.776 411.036h-17.547a6 6 0 1 1 0-12h17.547a6 6 0 1 1 0 12z" fill="#ae8567"/><path d="m129.245 454.566h-16.535a6 6 0 1 1 0-12h16.535a6 6 0 0 1 0 12z" fill="#ae8567"/><path d="m119.627 279.265h-16.534a6 6 0 0 1 0-12h16.534a6 6 0 1 1 0 12z" fill="#ae8567"/><path d="m133.294 366.494h-16.535a6 6 0 0 1 0-12h16.535a6 6 0 0 1 0 12z" fill="#ae8567"/><path d="m451.38 181.4v18.22h-24.23v-18.22h-22.65v18.22h-24.23v-18.22h-22.65v54.66a10.119 10.119 0 0 0 10.12 10.12h96.17a10.119 10.119 0 0 0 10.12-10.12v-54.66z" fill="#c79a83"/><path d="m403.32 246.18h-30l.54 224.72h30z" fill="#efccac"/><path d="m387.62 236.06v-36.44h-7.35v-18.22h-22.65v54.66a10.119 10.119 0 0 0 10.12 10.12h30a10.119 10.119 0 0 1 -10.12-10.12z" fill="#f2c0aa"/><path d="m413.463 317.9h-16.535a6 6 0 0 1 0-12h16.535a6 6 0 0 1 0 12z" fill="#ae8567"/><path d="m399.29 365.481h-15.522a6 6 0 0 1 0-12h15.522a6 6 0 0 1 0 12z" fill="#ae8567"/><path d="m433.709 411.036h-17.547a6 6 0 0 1 0-12h17.547a6 6 0 0 1 0 12z" fill="#ae8567"/><path d="m436.471 262.372a6 6 0 0 0 0 12h21.534v-12z" fill="#ae8567"/><path d="m437.421 446.616a6 6 0 0 0 0 12h20.584v-12z" fill="#ae8567"/><path d="m463.15 468.9h-414.3a23.029 23.029 0 0 0 -23.03 23.03v4.3h460.36v-4.3a23.029 23.029 0 0 0 -23.03-23.03z" fill="#8890a4"/><path d="m78.85 468.9h-30a23.029 23.029 0 0 0 -23.03 23.03v4.3h30v-4.3a23.029 23.029 0 0 1 23.03-23.03z" fill="#b0bbd1"/></svg>